<svg width="1670" height="1093" viewBox="0 0 1670 1093" fill="none" xmlns="http://www.w3.org/2000/svg">
<path fill-rule="evenodd" clip-rule="evenodd" d="M-261.137 1092.1L1658.85 1084.78L1654.95 62.8504L1654.91 52.2442L1654.9 50.3512L1633.89 48.9313C1627.53 42.7885 1611.32 33.6165 1597.36 46.0704C1587.69 48.6074 1566.26 50.8892 1557.81 39.7209C1552.98 40.0727 1542.71 41.0786 1540.31 42.2878L1527.3 39.8373C1528.28 36.5001 1525.96 30.842 1508.77 34.9078C1506.61 36.4161 1498.26 35.3479 1482.19 19.0083C1481.35 17.0115 1477.87 14.2246 1470.69 19.0522C1470.3 19.0537 1469.27 19.6031 1467.79 20.388L1467.79 20.3887C1461.52 23.7189 1447.29 31.2803 1441.17 19.1648C1433.61 4.1929 1421.63 10.7389 1415.16 19.264C1412.14 15.2754 1405.01 7.40211 1400.61 7.81892C1399.27 7.32402 1394.1 7.94383 1384.12 14.3822L1375.14 19.4166C1371.61 12.7632 1362.56 1.16369 1354.58 7.99446C1351.43 11.6734 1344.92 19.8319 1344.13 23.035C1343.35 26.2383 1341.48 26.7121 1340.65 26.5486C1339.47 25.3863 1336.83 23.0629 1335.63 23.0675C1335.53 23.0679 1335.42 23.0659 1335.31 23.0628C1335.18 23.0588 1335.03 23.0527 1334.88 23.0462C1333.36 22.9819 1331.17 22.8894 1328.63 24.5943C1326 26.3652 1321.02 23.8821 1308.24 17.5071C1306.5 16.6407 1304.62 15.7024 1302.58 14.6932C1301.08 13.3655 1296.97 12.1144 1292.59 17.7315C1291.74 13.4011 1287.84 6.44896 1279.06 13.2828C1274.74 16.9662 1264.99 21.8369 1260.55 11.8533C1252.57 17.7174 1233.19 27.1584 1219.55 18.0101C1209.05 18.5501 1185.74 21.1391 1176.56 27.1744C1159.21 23.9071 1121.8 19.3829 1111.03 27.4244C1113.7 29.581 1119.26 34.0933 1120.06 34.8902C1120.2 35.0275 1120.41 35.0696 1120.71 35.0438L1128.31 55.6993C1128.2 55.5265 1128.14 55.4088 1128.14 55.3593C1114.17 63.4133 1097.33 65.4772 1090.66 65.5024C1074.29 75.5652 1062.16 69.7779 1058.15 65.6264C1049.66 69.9062 1045.25 68.251 1039.23 65.9952C1033.91 64.0021 1027.34 61.54 1015.61 62.2885C995.581 57.1645 979.252 60.5936 973.591 62.9487C966.355 54.4315 953.886 55.4633 948.556 57.0439C916.202 73.5681 904.414 69.7125 902.564 65.7192C896.101 68.9798 890.022 63.0237 884.772 57.8799C881.91 55.076 879.295 52.5134 876.998 51.8166C871.816 50.2445 868.879 55.6316 867.643 57.8976C867.327 58.4788 867.122 58.8546 867.02 58.8549C866.885 58.8555 866.319 58.678 865.37 58.3804L865.365 58.3786C862.769 57.5646 857.318 55.8548 849.994 54.4197C841.983 52.8502 823.656 56.8536 815.493 59.0515C804.674 55.4926 773.299 57.7124 758.964 59.2671C756.731 58.5004 755.232 57.8436 754.061 57.3309C752.985 56.8596 752.187 56.5101 751.353 56.3091C748.963 55.7331 746.278 56.3782 735.895 58.8729C733.515 59.4447 730.731 60.1137 727.454 60.8874C710.552 64.8771 706.034 63.3497 702.906 62.2926C700.854 61.599 699.401 61.1078 695.443 62.5095C687.449 65.3402 672.105 64.432 665.431 63.6241C663.602 64.9644 659.144 67.7482 655.944 68.1604C652.743 68.5727 649.937 67.35 648.934 66.6871C648.942 68.6872 644.618 71.8705 642.456 73.2122C620.386 77.1919 600.904 71.7948 595.418 70.275C594.566 70.0391 594.052 69.8966 593.917 69.8971C593.705 69.8979 593.583 69.8311 593.451 69.7588C592.958 69.4896 592.325 69.1444 586.421 71.9258C580.284 74.8171 576.131 69.6443 574.555 67.6821L574.555 67.681C574.208 67.249 573.986 66.973 573.896 66.9733C561.381 73.2876 556.503 67.7052 553.481 64.2462C552.886 63.5652 552.363 62.9665 551.867 62.5571C550.208 61.1859 545.055 59.6761 539.672 58.0991C535.286 56.814 530.747 55.4843 527.822 54.1484C524.617 52.6844 520.678 49.4074 516.847 46.2202C512.891 42.9299 509.051 39.7353 506.252 38.7299C501.844 37.1467 478.737 38.5015 467.734 39.3769C463.211 33.8938 433.205 36.5084 427.708 38.0295C424.584 38.894 421.29 37.6595 418.755 36.7089C416.828 35.987 415.339 35.429 414.694 36.079C414.185 36.5912 411.361 36.8229 406.95 37.1849L406.949 37.1849L406.948 37.1849C398.39 37.8867 383.865 39.0781 368.699 43.7547C350.311 49.4253 325.686 46.2523 315.672 43.957C301.603 28.0099 285.643 40.5714 280.157 45.0926C275.769 48.7095 270.331 48.2968 268.161 47.6385C265.321 46.4826 259.143 44.1726 257.142 44.1802C255.865 44.1851 252.755 41.9824 249.617 39.7594C246.606 37.6272 243.57 35.4765 242.1 35.2372C239.697 34.8464 237.434 36.0884 236.602 36.7583C231.126 29.2396 227.427 27.6791 220.48 24.7477L220.472 24.7444C219.128 24.1775 217.662 23.5589 216.039 22.836C208.021 19.2665 188.054 30.7765 179.073 36.9777C172.122 33.1528 164.6 34.9665 157.398 36.703L157.396 36.7033C155.249 37.2212 153.129 37.7322 151.062 38.0846C143.863 39.3121 139.392 38.6291 138.056 38.1342C130.897 41.3284 111.974 46.5341 93.5461 41.8041C75.1183 37.0742 60.533 42.9301 55.5438 46.4493C42.1657 46.5003 27.6485 54.1453 19.0916 58.6515C16.4495 60.043 14.3756 61.1351 13.0791 61.612C7.58395 63.6331 -5.42661 62.6826 -5.43042 61.6826C-5.43424 60.6826 -10.9732 51.2033 -11.9737 51.2071C-12.7743 51.2101 -13.9697 52.5481 -14.4674 53.2166C-22.4837 50.0471 -44.8431 46.3322 -55.0207 44.8709L-104.548 44.5598C-114.138 48.5966 -131.235 42.9948 -138.584 39.6893L-145.088 39.7141L-145.082 41.2142C-134.47 55.1055 -167.798 48.8471 -179.938 46.5672C-182.177 46.1468 -183.696 45.8617 -184.085 45.8631C-186.086 45.8708 -190.905 50.2228 -193.065 52.3978L-191.06 53.3902C-190.631 53.6026 -190.104 55.1905 -189.565 56.8186C-189.062 58.3353 -188.548 59.887 -188.09 60.3938L-208.273 63.4563L-209.031 63.4591C-213.206 61.9751 -222.451 60.0102 -226.038 64.0241C-229.624 68.038 -233.203 65.3849 -234.544 63.5565C-235.74 64.7611 -255.379 66.1361 -265.048 66.6729L-265.028 72.0677L-264.995 80.6735L-261.137 1092.1ZM-187.477 60.3007L-180 59.1663C-180.504 59.0645 -181.016 58.9605 -181.534 58.8541C-183.166 58.8603 -186.585 59.1607 -187.477 60.3007Z" fill="white"/>
<g filter="url(#filter0_d_409_59)">
<path d="M1633.89 48.974L1654.9 50.3939L1654.95 62.8926L1633.94 62.4728C1628.4 54.4938 1613.89 52.5492 1608.89 52.5682C1603.88 52.5873 1598.4 58.6083 1596.91 59.614C1595.41 60.6197 1576.4 60.6922 1568.89 59.7208C1561.39 58.7495 1558.86 52.2591 1557.86 52.2629C1556.86 52.2667 1542.36 54.3231 1539.36 54.8346C1536.96 55.2437 1530.35 52.7023 1527.34 51.3804C1524.91 43.7896 1518.64 44.5802 1515.81 45.9243C1497.82 49.493 1494.3 44.5064 1487.26 35.5332C1480.22 26.5599 1476.22 28.0752 1475.72 28.0771C1468.54 32.5045 1457.74 35.9791 1453.25 37.1629C1440.25 38.7125 1440.18 21.2126 1427.67 19.7603C1423.89 19.3226 1417.52 25.6324 1414.7 29.3099C1414.18 25.8118 1401.63 14.3596 1395.14 18.3844C1389.95 21.6042 1379.67 26.7768 1375.17 28.9606C1372.64 20.9702 1364.62 16.0008 1360.62 16.016C1356.61 16.0313 1347.64 24.5656 1347.65 27.5656C1347.67 30.5655 1340.69 38.5922 1340.69 37.0922C1340.68 35.8922 1335.67 34.6113 1333.17 34.1209C1333.17 33.6209 1331.57 33.227 1325.17 35.6514C1319.17 36.6743 1305.12 24.7278 1301.12 24.743C1297.92 24.7552 1294.79 26.7672 1293.63 27.7716C1288.39 18.9915 1284.09 20.4746 1282.6 22.3137C1281.94 23.4829 1278.71 26.5285 1271.12 29.3575C1261.63 32.8937 1263.08 20.3881 1260.59 22.3976C1258.09 24.4071 1246.61 29.951 1237.62 32.9853C1228.62 36.0196 1222.09 29.5445 1210.08 28.0903C1198.07 26.6361 1184.1 36.6894 1175.11 39.2238C1166.11 41.7581 1148.08 34.8268 1137.06 33.3688C1126.05 31.9108 1121.07 35.9299 1120.06 34.9337C1119.26 34.1367 1113.7 29.6246 1111.03 27.4681C1121.8 19.4269 1159.21 23.951 1176.56 27.2181C1185.74 21.1831 1209.05 18.5942 1219.55 18.0541C1233.19 27.2021 1252.57 17.7615 1260.55 11.8977C1264.99 21.8808 1274.74 17.0102 1279.06 13.3271C1287.84 6.49354 1291.74 13.4454 1292.59 17.7755C1296.97 12.1588 1301.08 13.4098 1302.58 14.7374C1319.62 23.1724 1325.64 26.6495 1328.63 24.6381C1331.63 22.6267 1334.13 23.1171 1335.63 23.1114C1336.83 23.1068 1339.47 25.4301 1340.65 26.5923C1341.48 26.7558 1343.35 26.282 1344.13 23.079C1344.92 19.8759 1351.43 11.7177 1354.58 8.039C1362.56 1.20851 1371.61 12.8074 1375.14 19.4607L1384.12 14.4264C1394.1 7.98826 1399.27 7.36855 1400.61 7.86346C1405.01 7.44667 1412.14 15.3195 1415.16 19.308C1421.63 10.7833 1433.61 4.23755 1441.17 19.2088C1448.73 34.1801 1468.69 19.1039 1470.69 19.0962C1477.87 14.2688 1481.35 17.0556 1482.19 19.0524C1498.26 35.3912 1506.6 36.4594 1508.77 34.9511C1525.96 30.8855 1528.28 36.5434 1527.3 39.8805L1540.31 42.3309C1542.71 41.1217 1552.98 40.1159 1557.81 39.7641C1566.26 50.932 1587.69 48.6502 1597.36 46.1133C1611.32 33.66 1627.53 42.8315 1633.89 48.974Z" fill="white"/>
<path d="M1133.68 64.3808C1134.18 63.3789 1128.15 55.9019 1128.14 55.4019C1114.17 63.4556 1097.33 65.5193 1090.66 65.5445C1074.29 75.607 1062.16 69.8199 1058.15 65.6685C1042.17 73.7295 1040.62 60.7353 1015.61 62.3307C995.581 57.2071 979.252 60.6361 973.591 62.991C966.355 54.4741 953.886 55.5059 948.556 57.0864C916.201 73.61 904.414 69.7545 902.564 65.7614C892.578 70.799 883.509 53.8345 876.998 51.8593C870.487 49.8842 867.52 58.8955 867.019 58.8974C866.519 58.8994 860.006 56.4242 849.993 54.4624C841.983 52.8929 823.656 56.8962 815.493 59.094C804.674 55.5352 773.299 57.7549 758.964 59.3096C747.443 55.3535 755.443 54.323 727.453 60.9298C699.464 67.5366 705.434 59.0137 695.443 62.5519C687.449 65.3824 672.104 64.4742 665.431 63.6664C663.602 65.0067 659.144 67.7904 655.943 68.2026C652.743 68.6148 649.937 67.3921 648.934 66.7293C648.942 68.7293 644.618 71.9125 642.455 73.2541C616.96 77.8513 594.918 69.9353 593.917 69.9392C592.917 69.943 593.911 68.4392 586.421 71.9678C578.93 75.4964 574.396 67.0136 573.896 67.0155C558.916 74.5727 554.878 65.088 551.867 62.5995C548.856 60.111 534.337 57.1663 527.822 54.1911C521.308 51.216 511.763 40.7523 506.252 38.7733C501.844 37.1901 478.737 38.5449 467.734 39.4202C463.211 33.9374 433.205 36.5519 427.708 38.0729C422.211 39.5939 416.189 34.6168 414.694 36.1225C413.199 37.6282 391.684 36.7103 368.699 43.798C350.311 49.4682 325.685 46.2954 315.671 44.0002C301.603 28.0538 285.643 40.6147 280.157 45.1357C275.768 48.7525 270.331 48.3399 268.16 47.6815C265.321 46.5256 259.142 44.2158 257.141 44.2235C254.64 44.233 245.103 35.7693 242.099 35.2808C239.697 34.8899 237.434 36.1319 236.602 36.8018C230.065 27.8266 226.061 27.3419 216.038 22.8801C208.021 19.3107 188.054 30.8202 179.073 37.0212C170.049 32.0556 160.061 36.5937 151.062 38.128C143.863 39.3555 139.391 38.6725 138.055 38.1776C130.897 41.3716 111.974 46.5772 93.5459 41.8474C75.1182 37.1177 60.5328 42.9734 55.5436 46.4924C38.0346 46.5592 18.5742 59.6335 13.0789 61.6545C7.58376 63.6755 -5.42679 62.7251 -5.43061 61.7251C-5.43442 60.7251 -10.9734 51.2461 -11.9739 51.25C-12.7743 51.253 -13.9699 52.5909 -14.4676 53.2595C-22.4839 50.09 -44.8432 46.3753 -55.0208 44.9141L-104.548 44.603C-114.138 48.6396 -131.235 43.0381 -138.585 39.7328L-145.088 39.7576L-145.082 41.2576C-132.513 57.7098 -181.584 45.8968 -184.085 45.9064C-186.086 45.914 -190.905 50.2658 -193.065 52.4407L-191.06 53.433C-190.058 53.9292 -188.527 61.9234 -187.532 60.4196C-186.736 59.2166 -183.202 58.9031 -181.534 58.8967C-138.478 67.7326 -143.509 60.2517 -143.519 57.7517C-143.528 55.2518 -145.042 51.7575 -142.543 51.248C-140.543 50.8403 -123.349 55.6748 -115.002 58.143C-112.004 57.1315 -105.107 55.6052 -101.497 57.5915C-96.9852 60.0743 -55.9813 55.4178 -53.9727 57.4102C-51.964 59.4025 -27.4419 61.809 -21.4331 63.2861C-16.626 64.4678 -14.4187 66.0927 -13.9159 66.7575C-13.7517 66.0902 -13.1235 64.6544 -11.9243 64.2499C-10.4255 63.7441 -7.89558 71.2346 -5.37721 75.725C-3.36239 79.3173 8.13549 77.1735 13.6325 75.6525C21.6062 67.622 54.0904 58.998 56.5879 57.9885C59.0855 56.979 64.0632 50.4599 73.0754 52.4256C82.0877 54.3912 111.605 54.7786 114.608 55.2672C117.612 55.7557 133.601 50.6947 139.598 49.1718C145.596 47.649 141.097 48.6661 148.609 50.6375C156.12 52.6088 161.1 46.5898 166.601 46.0688C171.001 45.652 176.779 47.8633 179.118 49.0211C194.08 36.9639 199.089 38.4449 210.075 33.4029C221.062 28.361 236.652 49.8017 236.65 49.3017C236.648 48.8017 242.145 47.2807 245.149 47.7692C248.152 48.2578 256.185 55.7272 257.187 56.2234C258.19 56.7196 258.188 56.2196 264.704 59.6947C269.918 62.4749 274.547 60.8239 276.21 59.6509C279.867 56.4702 289.079 49.6017 296.675 47.5727C306.17 45.0365 312.706 53.5116 315.717 56.0001C318.728 58.4887 334.234 57.9295 335.235 57.9257C346.854 61.4814 358.086 59.3386 362.249 57.8227C375.44 53.7723 404.406 49.6618 417.241 48.1129C419.761 53.1033 448.245 44.9946 459.262 47.9526C468.076 50.319 471.282 51.5734 471.784 51.9049C486.778 48.3476 502.294 50.2885 507.302 51.7694C512.31 53.2503 522.877 69.2101 527.876 68.191C531.875 67.3758 546.576 74.4527 553.427 78.0931C561.481 91.062 568.456 83.5364 569.458 84.0326C570.46 84.5287 573.447 80.5173 574.455 82.5135C575.463 84.5097 580.477 87.4906 584.475 86.4753C588.474 85.46 592.976 85.4423 593.976 85.4385C601.499 90.4099 626.505 88.3145 632.508 88.2916L642.012 88.2553C645.614 88.2416 648.164 83.5652 648.989 81.2287C651.811 86.4179 660.495 81.0181 664.484 77.6695C669.699 80.8497 678.663 78.9488 682.493 77.6009C686.658 76.585 696.791 75.1463 704.004 77.5188C713.02 80.4844 724.009 75.9425 727.505 74.4292C731.001 72.9158 745.997 69.8586 753.003 70.3319C760.008 70.8052 758.022 74.8128 760.518 73.3032C763.014 71.7937 802.534 71.643 809.043 73.1181C814.25 74.2983 822.214 72.5679 825.546 71.5552C844.731 65.082 861.558 69.7512 867.573 72.8949C869.157 68.4888 872.884 66.3746 874.55 65.8682C879.541 62.8492 889.594 75.3109 893.111 79.2975C896.628 83.2842 898.623 81.7765 899.62 80.7727C900.417 79.9697 902.954 80.4267 904.122 80.7556C913.658 88.7192 938.124 76.6258 949.607 70.582C961.091 64.5382 972.142 76.4961 973.643 76.4904C975.144 76.4846 985.632 71.9446 989.135 72.4312C991.938 72.8206 1007.99 75.1927 1015.66 76.3301C1017.33 74.9904 1023.86 73.6988 1036.69 79.2499C1049.51 84.801 1055.71 81.8447 1057.2 79.6726C1063.63 86.0489 1070.23 86.6226 1072.73 86.1125C1077.74 88.0934 1090.22 79.5467 1091.72 79.541C1103.73 82.4952 1133.18 65.3827 1133.68 64.3808Z" fill="white"/>
<path d="M-193.015 65.4406C-194.022 63.9444 -192.021 63.9368 -191.522 63.4349L-209.031 63.5017C-213.206 62.0176 -222.452 60.0528 -226.038 64.0665C-229.625 68.0802 -233.203 65.4272 -234.544 63.599C-235.74 64.8035 -255.379 66.1784 -265.049 66.7153L-264.995 80.7152C-262.488 82.2057 -234.495 76.5989 -233.489 78.095C-232.684 79.292 -231.147 79.9195 -230.479 80.0836C-228.816 78.9106 -224.691 76.3615 -221.492 75.5493C-217.494 74.534 -212.487 75.5149 -209.98 77.0054C-207.473 78.4958 -189.47 76.9271 -187.975 75.4214C-186.48 73.9157 -189.489 71.9272 -191.507 67.4348C-193.525 62.9425 -192.009 66.9368 -193.015 65.4406Z" fill="white"/>
</g>
<defs>
<filter id="filter0_d_409_59" x="-280.049" y="0.956696" width="1950" height="112.793" filterUnits="userSpaceOnUse" color-interpolation-filters="sRGB">
<feFlood flood-opacity="0" result="BackgroundImageFix"/>
<feColorMatrix in="SourceAlpha" type="matrix" values="0 0 0 0 0 0 0 0 0 0 0 0 0 0 0 0 0 0 127 0" result="hardAlpha"/>
<feOffset dy="10"/>
<feGaussianBlur stdDeviation="7.5"/>
<feComposite in2="hardAlpha" operator="out"/>
<feColorMatrix type="matrix" values="0 0 0 0 0 0 0 0 0 0 0 0 0 0 0 0 0 0 0.1 0"/>
<feBlend mode="normal" in2="BackgroundImageFix" result="effect1_dropShadow_409_59"/>
<feBlend mode="normal" in="SourceGraphic" in2="effect1_dropShadow_409_59" result="shape"/>
</filter>
</defs>
</svg>
