<svg width="1951" height="1239" viewBox="0 0 1951 1239" fill="none" xmlns="http://www.w3.org/2000/svg">
<path fill-rule="evenodd" clip-rule="evenodd" d="M19.6956 1238.49L1939.68 1231.17L1935.78 209.241L1935.74 198.635L1935.74 196.742L1914.72 195.322C1908.36 189.179 1892.15 180.007 1878.19 192.461C1868.53 194.998 1847.09 197.28 1838.64 186.111C1833.81 186.463 1823.54 187.469 1821.14 188.678L1808.13 186.228C1809.12 182.891 1806.79 177.232 1789.6 181.298C1787.44 182.806 1779.1 181.738 1763.03 165.399C1762.18 163.402 1758.7 160.615 1751.52 165.443C1751.14 165.444 1750.1 165.994 1748.63 166.778L1748.62 166.779C1742.36 170.109 1728.12 177.671 1722 165.555C1714.44 150.583 1702.46 157.129 1695.99 165.654C1692.97 161.666 1685.84 153.792 1681.44 154.209C1680.1 153.714 1674.94 154.334 1664.96 160.773L1655.97 165.807C1652.44 159.154 1643.39 147.554 1635.42 154.385C1632.26 158.064 1625.76 166.222 1624.97 169.425C1624.18 172.629 1622.31 173.102 1621.48 172.939C1620.31 171.777 1617.66 169.453 1616.46 169.458C1616.36 169.458 1616.26 169.456 1616.15 169.453C1616.01 169.449 1615.86 169.443 1615.71 169.437C1614.19 169.372 1612 169.28 1609.47 170.985C1606.83 172.756 1601.85 170.272 1589.07 163.897C1587.33 163.031 1585.45 162.093 1583.41 161.084C1581.91 159.756 1577.8 158.505 1573.42 164.122C1572.57 159.791 1568.67 152.839 1559.9 159.673C1555.57 163.357 1545.82 168.227 1541.38 158.244C1533.4 164.108 1514.03 173.549 1500.38 164.4C1489.88 164.941 1466.58 167.53 1457.4 173.565C1440.04 170.298 1402.64 165.773 1391.86 173.815C1394.54 175.971 1400.09 180.484 1400.89 181.281C1401.03 181.418 1401.25 181.46 1401.54 181.434L1409.14 202.09C1409.04 201.917 1408.98 201.799 1408.98 201.75C1395 209.804 1378.17 211.868 1371.5 211.893C1355.13 221.956 1343 216.168 1338.98 212.017C1330.5 216.297 1326.08 214.641 1320.06 212.386C1314.74 210.392 1308.17 207.93 1296.44 208.679C1276.41 203.555 1260.09 206.984 1254.42 209.339C1247.19 200.822 1234.72 201.854 1229.39 203.434C1197.03 219.958 1185.25 216.103 1183.4 212.11C1176.93 215.37 1170.86 209.414 1165.61 204.27C1162.74 201.466 1160.13 198.904 1157.83 198.207C1152.65 196.635 1149.71 202.022 1148.48 204.288C1148.16 204.869 1147.95 205.245 1147.85 205.245C1147.72 205.246 1147.15 205.068 1146.2 204.771L1146.2 204.769C1143.6 203.955 1138.15 202.245 1130.83 200.81C1122.82 199.241 1104.49 203.244 1096.33 205.442C1085.51 201.883 1054.13 204.103 1039.8 205.657C1037.56 204.891 1036.06 204.234 1034.89 203.721C1033.82 203.25 1033.02 202.9 1032.19 202.7C1029.8 202.123 1027.11 202.769 1016.73 205.263C1014.35 205.835 1011.56 206.504 1008.29 207.278C991.385 211.267 986.867 209.74 983.739 208.683C981.687 207.989 980.234 207.498 976.276 208.9C968.282 211.731 952.938 210.822 946.264 210.014C944.435 211.355 939.977 214.139 936.777 214.551C933.576 214.963 930.77 213.74 929.767 213.077C929.775 215.078 925.451 218.261 923.289 219.603C901.219 223.582 881.737 218.185 876.251 216.665C875.399 216.429 874.885 216.287 874.75 216.287C874.538 216.288 874.416 216.221 874.284 216.149C873.791 215.88 873.158 215.535 867.254 218.316C861.117 221.207 856.964 216.035 855.388 214.072L855.388 214.071C855.041 213.639 854.819 213.363 854.729 213.364C842.214 219.678 837.336 214.096 834.314 210.637C833.719 209.956 833.196 209.357 832.7 208.947C831.041 207.576 825.888 206.066 820.505 204.489C816.119 203.204 811.58 201.875 808.655 200.539C805.45 199.075 801.511 195.798 797.68 192.611C793.724 189.32 789.884 186.126 787.085 185.12C782.677 183.537 759.57 184.892 748.567 185.767C744.044 180.284 714.038 182.899 708.541 184.42C705.417 185.284 702.123 184.05 699.588 183.099C697.661 182.377 696.172 181.819 695.527 182.469C695.018 182.982 692.194 183.213 687.783 183.575L687.782 183.575L687.781 183.575C679.223 184.277 664.698 185.468 649.532 190.145C631.144 195.816 606.519 192.643 596.505 190.347C582.436 174.4 566.476 186.962 560.99 191.483C556.602 195.1 551.164 194.687 548.994 194.029C546.154 192.873 539.976 190.563 537.975 190.571C536.698 190.575 533.588 188.373 530.45 186.15C527.439 184.018 524.403 181.867 522.933 181.628C520.53 181.237 518.267 182.479 517.435 183.149C511.959 175.63 508.26 174.069 501.313 171.138L501.305 171.135C499.961 170.568 498.495 169.949 496.872 169.226C488.854 165.657 468.887 177.167 459.906 183.368C452.955 179.543 445.433 181.357 438.231 183.093L438.229 183.094C436.082 183.612 433.962 184.123 431.895 184.475C424.696 185.702 420.225 185.019 418.889 184.525C411.73 187.719 392.807 192.924 374.379 188.194C355.951 183.465 341.366 189.321 336.377 192.84C322.999 192.891 308.481 200.536 299.925 205.042C297.282 206.433 295.209 207.525 293.912 208.002C288.417 210.023 275.406 209.073 275.403 208.073C275.399 207.073 269.86 197.594 268.859 197.597C268.059 197.601 266.863 198.938 266.366 199.607C258.349 196.437 235.99 192.723 225.812 191.261L176.285 190.95C166.695 194.987 149.598 189.385 142.249 186.08L135.745 186.104L135.751 187.605C146.363 201.496 113.035 195.237 100.895 192.958C98.6558 192.537 97.1373 192.252 96.7479 192.254C94.747 192.261 89.9276 196.613 87.7682 198.788L89.773 199.781C90.2023 199.993 90.7287 201.581 91.2683 203.209C91.7711 204.726 92.2853 206.277 92.7434 206.784L72.5599 209.847L71.8019 209.85C67.6274 208.365 58.3816 206.401 54.795 210.415C51.2085 214.428 47.6299 211.775 46.2888 209.947C45.0928 211.151 25.4543 212.526 15.7846 213.063L15.8051 218.458L15.838 227.064L19.6956 1238.49ZM93.3564 206.691L100.833 205.557C100.329 205.455 99.8173 205.351 99.2988 205.244C97.6671 205.251 94.2482 205.551 93.3564 206.691Z" fill="white"/>
<g filter="url(#filter0_d_102_30)">
<path d="M1914.72 195.364L1935.74 196.784L1935.78 209.283L1914.77 208.863C1909.24 200.884 1894.72 198.94 1889.72 198.959C1884.72 198.978 1879.24 204.999 1877.74 206.004C1876.24 207.01 1857.23 207.083 1849.73 206.111C1842.22 205.14 1839.69 198.649 1838.69 198.653C1837.69 198.657 1823.19 200.713 1820.19 201.225C1817.79 201.634 1811.18 199.093 1808.17 197.771C1805.74 190.18 1799.48 190.971 1796.65 192.315C1778.65 195.883 1775.13 190.897 1768.09 181.924C1761.05 172.95 1757.06 174.466 1756.56 174.467C1749.37 178.895 1738.58 182.369 1734.08 183.553C1721.08 185.103 1721.01 167.603 1708.5 166.151C1704.73 165.713 1698.35 172.023 1695.53 175.7C1695.02 172.202 1682.47 160.75 1675.98 164.775C1670.79 167.995 1660.5 173.167 1656.01 175.351C1653.48 167.361 1645.45 162.391 1641.45 162.406C1637.45 162.422 1628.48 170.956 1628.49 173.956C1628.5 176.956 1621.53 184.983 1621.52 183.483C1621.52 182.283 1616.51 181.002 1614 180.511C1614 180.011 1612.4 179.617 1606.01 182.042C1600.01 183.065 1585.95 171.118 1581.95 171.133C1578.75 171.146 1575.62 173.158 1574.46 174.162C1569.22 165.382 1564.93 166.865 1563.43 168.704C1562.77 169.873 1559.55 172.919 1551.95 175.748C1542.46 179.284 1543.92 166.778 1541.42 168.788C1538.93 170.797 1527.44 176.341 1518.45 179.376C1509.46 182.41 1502.93 175.935 1490.92 174.481C1478.9 173.026 1464.94 183.08 1455.94 185.614C1446.95 188.148 1428.91 181.217 1417.9 179.759C1406.89 178.301 1401.9 182.32 1400.9 181.324C1400.09 180.527 1394.54 176.015 1391.86 173.858C1402.64 165.817 1440.04 170.341 1457.4 173.608C1466.58 167.573 1489.88 164.985 1500.38 164.444C1514.03 173.592 1533.4 164.152 1541.38 158.288C1545.82 168.271 1555.58 163.401 1559.9 159.717C1568.68 152.884 1572.57 159.836 1573.42 164.166C1577.8 158.549 1581.91 159.8 1583.41 161.128C1600.46 169.563 1606.47 173.04 1609.47 171.028C1612.46 169.017 1614.96 169.507 1616.46 169.502C1617.66 169.497 1620.31 171.82 1621.48 172.983C1622.31 173.146 1624.18 172.672 1624.97 169.469C1625.76 166.266 1632.26 158.108 1635.42 154.429C1643.39 147.599 1652.44 159.198 1655.97 165.851L1664.96 160.817C1674.94 154.379 1680.1 153.759 1681.44 154.254C1685.84 153.837 1692.97 161.71 1695.99 165.698C1702.46 157.174 1714.44 150.628 1722 165.599C1729.57 180.57 1749.52 165.494 1751.52 165.487C1758.71 160.659 1762.18 163.446 1763.03 165.443C1779.1 181.782 1787.44 182.85 1789.6 181.341C1806.79 177.276 1809.12 182.934 1808.13 186.271L1821.15 188.721C1823.54 187.512 1833.81 186.506 1838.64 186.154C1847.09 197.322 1868.53 195.041 1878.19 192.504C1892.15 180.05 1908.36 189.222 1914.72 195.364Z" fill="white"/>
<path d="M1414.51 210.771C1415.01 209.769 1408.98 202.292 1408.98 201.792C1395 209.846 1378.17 211.91 1371.5 211.935C1355.13 221.997 1343 216.21 1338.98 212.059C1323 220.12 1321.45 207.126 1296.44 208.721C1276.41 203.597 1260.09 207.026 1254.42 209.381C1247.19 200.864 1234.72 201.896 1229.39 203.477C1197.03 220 1185.25 216.145 1183.4 212.152C1173.41 217.189 1164.34 200.225 1157.83 198.25C1151.32 196.275 1148.35 205.286 1147.85 205.288C1147.35 205.29 1140.84 202.815 1130.83 200.853C1122.82 199.283 1104.49 203.287 1096.33 205.484C1085.51 201.926 1054.13 204.145 1039.8 205.7C1028.28 201.744 1036.28 200.713 1008.29 207.32C980.297 213.927 986.268 205.404 976.276 208.942C968.283 211.773 952.938 210.865 946.265 210.057C944.435 211.397 939.977 214.181 936.777 214.593C933.577 215.005 930.771 213.782 929.768 213.12C929.775 215.12 925.452 218.303 923.289 219.644C897.793 224.242 875.751 216.326 874.751 216.33C873.75 216.333 874.745 214.83 867.254 218.358C859.764 221.887 855.229 213.404 854.729 213.406C839.75 220.963 835.712 211.478 832.701 208.99C829.689 206.501 815.171 203.557 808.656 200.581C802.141 197.606 792.596 187.143 787.086 185.164C782.677 183.58 759.57 184.935 748.568 185.811C744.044 180.328 714.039 182.942 708.542 184.463C703.044 185.984 697.022 181.007 695.527 182.513C694.032 184.019 672.517 183.101 649.532 190.188C631.144 195.859 606.519 192.686 596.505 190.391C582.437 174.444 566.476 187.005 560.99 191.526C556.602 195.143 551.164 194.73 548.994 194.072C546.155 192.916 539.976 190.606 537.975 190.614C535.474 190.623 525.936 182.16 522.933 181.671C520.53 181.28 518.267 182.522 517.436 183.192C510.898 174.217 506.894 173.732 496.872 169.27C488.854 165.701 468.887 177.211 459.906 183.412C450.882 178.446 440.895 182.984 431.896 184.518C424.696 185.746 420.225 185.063 418.889 184.568C411.731 187.762 392.807 192.968 374.379 188.238C355.952 183.508 341.366 189.364 336.377 192.883C318.868 192.95 299.408 206.024 293.912 208.045C288.417 210.066 275.407 209.115 275.403 208.115C275.399 207.115 269.86 197.636 268.86 197.64C268.059 197.643 266.864 198.981 266.366 199.65C258.35 196.48 235.99 192.766 225.813 191.304L176.285 190.993C166.696 195.03 149.599 189.428 142.249 186.123L135.745 186.148L135.751 187.648C148.32 204.1 99.2496 192.287 96.7482 192.297C94.7473 192.304 89.928 196.656 87.7685 198.831L89.7734 199.823C90.7757 200.32 92.307 208.314 93.3017 206.81C94.0976 205.607 97.6317 205.293 99.2991 205.287C142.356 214.123 137.324 206.642 137.315 204.142C137.305 201.642 135.791 198.148 138.291 197.638C140.29 197.231 157.484 202.065 165.831 204.533C168.829 203.522 175.727 201.996 179.336 203.982C183.848 206.465 224.852 201.808 226.861 203.801C228.87 205.793 253.392 208.199 259.4 209.676C264.207 210.858 266.415 212.483 266.918 213.148C267.082 212.481 267.71 211.045 268.909 210.64C270.408 210.134 272.938 217.625 275.456 222.115C277.471 225.708 288.969 223.564 294.466 222.043C302.44 214.012 334.924 205.388 337.421 204.379C339.919 203.369 344.897 196.85 353.909 198.816C362.921 200.782 392.438 201.169 395.442 201.658C398.445 202.146 414.434 197.085 420.432 195.562C426.429 194.039 421.931 195.056 429.442 197.028C436.954 198.999 441.933 192.98 447.434 192.459C451.835 192.042 457.613 194.254 459.952 195.411C474.914 183.354 479.922 184.835 490.909 179.793C501.895 174.751 517.485 196.192 517.483 195.692C517.481 195.192 522.979 193.671 525.982 194.16C528.985 194.648 537.018 202.118 538.021 202.614C539.023 203.11 539.021 202.61 545.538 206.085C550.751 208.865 555.381 207.214 557.044 206.041C560.7 202.861 569.912 195.992 577.508 193.963C587.004 191.427 593.54 199.902 596.551 202.39C599.562 204.879 615.068 204.32 616.068 204.316C627.688 207.872 638.919 205.729 643.082 204.213C656.274 200.163 685.24 196.052 698.074 194.503C700.595 199.494 729.079 191.385 740.096 194.343C748.909 196.709 752.116 197.964 752.617 198.295C767.612 194.738 783.127 196.679 788.136 198.16C793.144 199.641 803.71 215.6 808.709 214.581C812.708 213.766 827.41 220.843 834.26 224.483C842.314 237.452 849.289 229.927 850.292 230.423C851.294 230.919 854.28 226.908 855.288 228.904C856.297 230.9 861.311 233.881 865.309 232.866C869.307 231.85 873.809 231.833 874.81 231.829C882.333 236.8 907.338 234.705 913.341 234.682L922.846 234.646C926.448 234.632 928.998 229.956 929.823 227.619C932.644 232.808 941.328 227.408 945.317 224.06C950.532 227.24 959.497 225.339 963.327 223.991C967.492 222.975 977.625 221.537 984.838 223.909C993.854 226.875 1004.84 222.333 1008.34 220.82C1011.83 219.306 1026.83 216.249 1033.84 216.722C1040.84 217.196 1038.86 221.203 1041.35 219.694C1043.85 218.184 1083.37 218.033 1089.88 219.508C1095.08 220.689 1103.05 218.958 1106.38 217.946C1125.56 211.472 1142.39 216.142 1148.41 219.285C1149.99 214.879 1153.72 212.765 1155.38 212.259C1160.37 209.24 1170.43 221.701 1173.94 225.688C1177.46 229.675 1179.46 228.167 1180.45 227.163C1181.25 226.36 1183.79 226.817 1184.96 227.146C1194.49 235.11 1218.96 223.016 1230.44 216.972C1241.92 210.929 1252.98 222.886 1254.48 222.881C1255.98 222.875 1266.47 218.335 1269.97 218.822C1272.77 219.211 1288.82 221.583 1296.5 222.72C1298.16 221.381 1304.69 220.089 1317.52 225.64C1330.35 231.191 1336.54 228.235 1338.03 226.063C1344.46 232.439 1351.07 233.013 1353.57 232.503C1358.58 234.484 1371.05 225.937 1372.55 225.931C1384.57 228.886 1414.02 211.773 1414.51 210.771Z" fill="white"/>
<path d="M87.818 211.831C86.8118 210.335 88.8128 210.327 89.3111 209.825L71.8022 209.892C67.6277 208.408 58.382 206.443 54.7953 210.457C51.2088 214.471 47.6301 211.818 46.2891 209.989C45.093 211.194 25.4546 212.569 15.7849 213.106L15.8383 227.106C18.3452 228.596 46.3387 222.989 47.3449 224.485C48.1499 225.682 49.6865 226.31 50.3541 226.474C52.0171 225.301 56.1429 222.752 59.3415 221.94C63.3397 220.924 68.3462 221.905 70.8531 223.396C73.3602 224.886 91.3637 223.317 92.8587 221.812C94.3538 220.306 91.3446 218.318 89.3264 213.825C87.3083 209.333 88.8242 213.327 87.818 211.831Z" fill="white"/>
</g>
<g clip-path="url(#clip0_102_30)">
<path d="M858.343 95.9828C861.289 96.2234 863.723 96.488 865.82 98.3402C873.696 105.304 882.121 111.679 889.186 119.484C892.032 122.623 895.315 125.402 898.086 128.601C900.707 131.632 903.927 133.869 907.072 136.287C909.706 138.319 911.816 140.989 914.337 143.19C916.659 145.235 919.167 147.075 921.651 148.927C922.899 149.853 924.135 149.469 925.458 148.206C928.778 145.03 931.949 141.663 935.569 138.836C940.686 134.831 946.178 131.271 951.47 127.47C954.079 125.594 956.526 123.501 959.197 121.733C960.632 120.783 962.454 120.386 964.027 119.605C965.288 118.991 966.461 118.185 967.659 117.452C969.956 116.044 972.253 114.625 974.562 113.206C980.304 109.694 985.97 106.11 990.951 101.576C992.985 99.7234 995.619 98.5086 997.953 96.9571C999.001 96.2595 1000.04 95.5138 1000.99 94.6959C1002.61 93.3007 1004.84 93.8781 1005.5 95.8987C1005.68 96.4399 1005.97 97.0292 1006.38 97.4141C1009 99.8917 1010.52 102.935 1011.43 106.302C1011.93 108.143 1011.22 108.984 1009.3 108.527C1006.07 107.746 1003.93 108.912 1002.28 111.51C1001.77 112.328 1000.96 113.026 1000.15 113.591C995.956 116.465 991.637 119.172 987.518 122.142C984.223 124.512 981.165 127.182 978.007 129.72C977.695 129.972 977.408 130.297 977.058 130.477C971.154 133.52 966.386 137.934 961.556 142.288C958.46 145.079 955.19 147.664 952.045 150.407C949.611 152.536 947.301 154.809 944.855 156.926C941.635 159.704 938.277 162.338 935.069 165.128C933.509 166.487 932.036 167.979 930.726 169.566C929.228 171.37 927.443 171.755 925.558 170.312C923.811 168.977 922.2 167.498 920.428 166.211C915.785 162.891 911.067 159.668 906.423 156.348C903.939 154.568 901.531 152.692 899.134 150.816C894.328 147.051 889.486 143.311 884.767 139.438C881.709 136.936 878.826 134.242 875.905 131.584C870.738 126.857 865.633 122.07 860.44 117.368C859.404 116.429 858.031 115.84 856.92 114.962C855.934 114.18 855.023 113.29 854.237 112.328C852.964 110.777 851.79 109.141 850.617 107.517C849.943 106.579 849.244 105.641 848.757 104.618C848.258 103.548 848.47 102.55 849.456 101.648C850.305 100.878 851.054 99.9278 851.578 98.9295C852.315 97.5223 853.425 96.8729 854.961 96.6323C856.234 96.4399 857.482 96.1512 858.381 95.9828H858.343Z" fill="white"/>
<path d="M925.908 114.325C923.948 113.856 922.425 112.28 920.84 110.837C918.668 108.864 916.596 106.759 914.424 104.787C910.218 100.962 905.924 97.2337 901.743 93.3849C897.761 89.7046 893.979 85.8197 889.935 82.1875C887.538 80.0225 884.805 78.2064 882.258 76.1978C881.921 75.9332 881.522 75.5363 881.472 75.1515C881.085 72.4693 879.026 70.978 877.166 69.3543C872.036 64.8801 866.881 60.43 861.738 55.9798C861.202 55.5108 860.64 55.0657 860.053 54.6809C858.555 53.7067 858.218 52.8287 859.329 51.4696C860.777 49.6775 862.512 48.0899 864.085 46.382C865.558 44.7823 867.255 43.303 868.341 41.4869C870.114 38.5161 872.136 38.0831 875.219 40.3683C877.478 42.0401 879.225 44.3494 881.185 46.394C881.984 47.2359 882.72 48.126 883.519 48.9799C884.992 50.5555 886.565 52.0469 887.938 53.6826C888.512 54.3682 888.662 55.3664 889.111 56.1723C889.922 57.6035 890.734 59.0348 891.682 60.3698C893.929 63.5811 896.176 66.8045 898.597 69.8955C899.983 71.6755 901.718 73.203 903.278 74.8628C904.414 76.0655 905.238 77.2923 905.525 79.0603C905.699 80.1308 907.31 81.2373 908.52 81.8627C911.953 83.6187 914.636 86.2407 917.52 88.6341C919.667 90.4142 921.826 92.1822 923.973 93.9743C924.759 94.6238 925.633 94.9004 926.532 94.3231C928.828 92.8317 931.225 91.4365 933.309 89.7046C935.244 88.0929 936.692 85.952 938.602 84.3043C941.572 81.7304 943.794 78.3748 947.389 76.4384C948.4 75.8972 949.174 74.935 950.06 74.1772C953.917 70.8938 957.661 67.478 961.668 64.3749C964.102 62.4987 966.935 61.1155 969.582 59.4918C970.368 59.0107 971.117 58.5056 971.891 58.0124C974.886 56.1001 977.832 54.1156 980.903 52.3235C983.761 50.6517 986.682 49.028 989.715 47.6809C991.412 46.9232 993.085 46.3219 994.383 44.9267C995.307 43.9404 996.78 44.0727 997.853 45.059C1001.15 48.1019 1002.71 52.0108 1003.68 56.1723C1004.07 57.808 1002.55 59.7564 1000.65 60.3578C998.552 61.0193 996.755 61.9334 995.357 63.7375C994.371 65.0004 992.835 65.9024 991.437 66.8165C987.019 69.7271 982.438 72.4333 978.132 75.4882C974.524 78.038 971.229 81.0088 967.722 83.7029C965.675 85.2785 963.465 86.6376 961.344 88.129C959.309 89.5602 957.237 90.9554 955.277 92.4829C951.271 95.61 947.414 98.9296 943.345 101.972C940.299 104.258 936.966 106.182 933.858 108.395C932.548 109.321 931.474 110.56 930.326 111.703C929.153 112.869 928.204 114.325 925.895 114.361L925.908 114.325ZM970.38 77.6652C970.318 77.5329 970.256 77.4006 970.193 77.2683C968.795 77.5449 966.91 77.2322 966.286 78.7476C965.737 80.0706 964.739 80.3713 963.703 80.8765C960.894 82.2356 957.973 83.4263 955.752 85.6513C955.24 86.1685 954.703 87.4434 954.965 87.7321C955.677 88.5379 956.588 88.1049 957.349 87.3953C958.011 86.7699 958.76 86.2407 959.496 85.6994C963.128 83.0173 966.761 80.3473 970.393 77.6772L970.38 77.6652ZM981.939 57.6035C979.267 58.3612 978.868 58.7702 978.98 60.5623C980.69 60.5382 981.701 59.564 981.939 57.6035Z" fill="white"/>
</g>
<defs>
<filter id="filter0_d_102_30" x="0.784668" y="147.347" width="1950" height="112.793" filterUnits="userSpaceOnUse" color-interpolation-filters="sRGB">
<feFlood flood-opacity="0" result="BackgroundImageFix"/>
<feColorMatrix in="SourceAlpha" type="matrix" values="0 0 0 0 0 0 0 0 0 0 0 0 0 0 0 0 0 0 127 0" result="hardAlpha"/>
<feOffset dy="10"/>
<feGaussianBlur stdDeviation="7.5"/>
<feComposite in2="hardAlpha" operator="out"/>
<feColorMatrix type="matrix" values="0 0 0 0 0 0 0 0 0 0 0 0 0 0 0 0 0 0 0.1 0"/>
<feBlend mode="normal" in2="BackgroundImageFix" result="effect1_dropShadow_102_30"/>
<feBlend mode="normal" in="SourceGraphic" in2="effect1_dropShadow_102_30" result="shape"/>
</filter>
<clipPath id="clip0_102_30">
<rect width="172" height="167" fill="white" transform="translate(839.583 4.17795)"/>
</clipPath>
</defs>
</svg>
