<svg width="172" height="167" viewBox="0 0 172 167" fill="none" xmlns="http://www.w3.org/2000/svg">
<g clip-path="url(#clip0_177_24)">
<path d="M18.7603 91.8049C21.706 92.0454 24.14 92.31 26.2369 94.1622C34.113 101.126 42.5382 107.501 49.6029 115.306C52.4488 118.445 55.7315 121.224 58.5025 124.423C61.1237 127.454 64.344 129.691 67.4894 132.109C70.1231 134.141 72.2325 136.811 74.7539 139.012C77.0755 141.057 79.5844 142.897 82.0683 144.749C83.3164 145.675 84.5521 145.291 85.8752 144.028C89.1954 140.852 92.3658 137.485 95.9855 134.658C101.103 130.653 106.595 127.093 111.887 123.293C114.496 121.416 116.943 119.323 119.614 117.555C121.049 116.605 122.871 116.208 124.444 115.427C125.705 114.813 126.878 114.007 128.076 113.274C130.373 111.867 132.67 110.447 134.979 109.028C140.721 105.516 146.387 101.932 151.368 97.3976C153.402 95.5454 156.036 94.3306 158.37 92.7791C159.418 92.0815 160.454 91.3358 161.403 90.5179C163.026 89.1228 165.26 89.7001 165.921 91.7207C166.096 92.2619 166.383 92.8512 166.795 93.2361C169.416 95.7138 170.939 98.7567 171.85 102.124C172.35 103.965 171.638 104.806 169.716 104.349C166.483 103.568 164.349 104.734 162.701 107.332C162.189 108.15 161.378 108.848 160.567 109.413C156.373 112.287 152.054 114.994 147.935 117.964C144.64 120.334 141.582 123.004 138.424 125.542C138.112 125.794 137.825 126.119 137.475 126.299C131.571 129.342 126.803 133.756 121.973 138.11C118.877 140.901 115.607 143.486 112.462 146.229C110.028 148.358 107.718 150.631 105.272 152.748C102.052 155.526 98.6941 158.16 95.4862 160.95C93.926 162.309 92.4531 163.801 91.1426 165.388C89.6447 167.192 87.8598 167.577 85.9751 166.134C84.2276 164.799 82.6174 163.32 80.845 162.033C76.2018 158.713 71.4836 155.49 66.8404 152.17C64.3565 150.39 61.9475 148.514 59.551 146.638C54.7455 142.873 49.9025 139.133 45.1844 135.26C42.1263 132.758 39.243 130.064 36.3222 127.406C31.1548 122.679 26.0497 117.892 20.8572 113.19C19.8212 112.251 18.4482 111.662 17.3373 110.784C16.3513 110.002 15.4401 109.112 14.6537 108.15C13.3806 106.599 12.2073 104.963 11.034 103.339C10.36 102.401 9.661 101.463 9.1742 100.441C8.67493 99.3701 8.88712 98.3718 9.87319 97.4698C10.722 96.7 11.4709 95.7498 11.9951 94.7516C12.7315 93.3444 13.8424 92.6949 15.3777 92.4543C16.6508 92.2619 17.899 91.9733 18.7977 91.8049H18.7603Z" fill="white"/>
<path d="M86.3245 110.147C84.3649 109.678 82.8421 108.102 81.2569 106.659C79.085 104.686 77.0131 102.581 74.8412 100.609C70.6348 96.7842 66.3411 93.0557 62.1596 89.2069C58.1779 85.5266 54.3959 81.6417 50.3518 78.0094C47.9553 75.8445 45.2218 74.0284 42.6755 72.0198C42.3385 71.7552 41.939 71.3583 41.8891 70.9734C41.5022 68.2913 39.4427 66.7999 37.5829 65.1763C32.4528 60.7021 27.2978 56.2519 22.1553 51.8018C21.6186 51.3328 21.0569 50.8877 20.4702 50.5029C18.9724 49.5286 18.6354 48.6506 19.7463 47.2916C21.1942 45.4995 22.9292 43.9119 24.5019 42.204C25.9747 40.6043 27.6723 39.125 28.7582 37.3088C30.5306 34.3381 32.5527 33.9051 35.6357 36.1903C37.8949 37.8621 39.6424 40.1714 41.602 42.216C42.4009 43.0579 43.1373 43.9479 43.9361 44.8019C45.409 46.3775 46.9817 47.8689 48.3547 49.5046C48.9289 50.1902 49.0787 51.1884 49.528 51.9943C50.3393 53.4255 51.1506 54.8568 52.0993 56.1918C54.346 59.4031 56.5927 62.6264 59.0142 65.7175C60.3997 67.4975 62.1347 69.025 63.6949 70.6848C64.8308 71.8875 65.6546 73.1143 65.9416 74.8823C66.1164 75.9528 67.7266 77.0593 68.9373 77.6847C72.3698 79.4407 75.0534 82.0627 77.9367 84.4561C80.0836 86.2362 82.243 88.0042 84.3898 89.7963C85.1762 90.4458 86.0499 90.7224 86.9486 90.1451C89.2453 88.6537 91.6418 87.2585 93.7263 85.5266C95.6609 83.9149 97.1088 81.774 99.0186 80.1263C101.989 77.5524 104.211 74.1968 107.806 72.2604C108.817 71.7191 109.591 70.757 110.477 69.9992C114.334 66.7158 118.078 63.3 122.085 60.1969C124.519 58.3207 127.352 56.9375 129.999 55.3138C130.785 54.8327 131.534 54.3276 132.308 53.8344C135.303 51.9221 138.249 49.9376 141.32 48.1455C144.178 46.4737 147.099 44.85 150.132 43.5029C151.829 42.7452 153.502 42.1438 154.8 40.7487C155.724 39.7624 157.197 39.8947 158.27 40.881C161.565 43.9239 163.125 47.8328 164.099 51.9943C164.486 53.63 162.963 55.5784 161.066 56.1798C158.969 56.8413 157.172 57.7554 155.774 59.5595C154.788 60.8223 153.252 61.7244 151.854 62.6385C147.436 65.5491 142.855 68.2553 138.549 71.3102C134.941 73.86 131.646 76.8308 128.139 79.5249C126.092 81.1005 123.882 82.4596 121.761 83.951C119.726 85.3822 117.654 86.7774 115.694 88.3049C111.688 91.432 107.831 94.7515 103.762 97.7945C100.716 100.08 97.3834 102.004 94.2755 104.217C92.9649 105.143 91.8914 106.382 90.7431 107.525C89.5698 108.691 88.6212 110.147 86.312 110.183L86.3245 110.147ZM130.797 73.4872C130.735 73.3549 130.673 73.2226 130.61 73.0903C129.212 73.3669 127.327 73.0542 126.703 74.5696C126.154 75.8926 125.156 76.1933 124.12 76.6985C121.311 78.0576 118.39 79.2483 116.169 81.4733C115.657 81.9905 115.12 83.2654 115.382 83.5541C116.094 84.3599 117.005 83.9269 117.766 83.2173C118.428 82.5919 119.177 82.0627 119.913 81.5214C123.545 78.8393 127.178 76.1693 130.81 73.4992L130.797 73.4872ZM142.356 53.4255C139.684 54.1832 139.285 54.5922 139.397 56.3842C141.107 56.3602 142.118 55.386 142.356 53.4255Z" fill="white"/>
</g>
<defs>
<clipPath id="clip0_177_24">
<rect width="172" height="167" fill="white"/>
</clipPath>
</defs>
</svg>
