<svg width="508" height="145" viewBox="0 0 508 145" fill="none" xmlns="http://www.w3.org/2000/svg">
<g clip-path="url(#clip0_133_325)">
<path d="M52.9427 69.9383C50.6494 74.0571 49.6461 78.5777 49.7536 83.4197C49.8432 87.2973 49.0011 87.6791 45.597 88.9649C44.1996 89.4873 42.6767 89.5476 41.315 90.1101C39.2726 90.954 37.3197 92.0791 35.331 93.1038C35.116 93.2243 34.9547 93.5257 34.8114 93.7869C34.2022 94.9723 33.3243 94.9723 32.3748 94.4097C31.5506 93.9074 30.7802 93.3248 30.2069 92.923C29.8307 90.7933 29.4902 88.8243 29.114 86.8553C29.0602 86.5941 28.7019 86.4133 28.4869 86.1923C28.2898 86.4937 27.9315 86.775 27.8957 87.0964C27.5553 89.6681 27.3403 92.2599 26.982 94.8316C26.6774 97.1221 26.1757 99.3723 25.8711 101.663C25.692 103.069 25.7636 104.516 25.6561 105.962C25.5845 106.947 25.4411 107.931 25.3337 108.916C24.9753 112.07 24.4737 115.204 24.3303 118.379C24.2049 121.071 24.5991 123.804 24.5274 126.516C24.4737 128.505 24.0616 130.494 23.7749 132.463C23.6495 133.246 23.3629 133.99 23.2374 134.773C22.9508 136.582 22.8791 138.45 22.4312 140.198C22.252 140.861 21.3562 141.524 20.6754 141.765C19.475 142.187 18.1492 142.167 16.9309 142.529C14.9959 143.131 13.1147 144.036 11.1618 144.518C10.0689 144.779 8.85061 144.397 7.70397 144.397C5.96608 144.397 4.33569 143.835 2.68739 143.352C0.806174 142.81 0.0895202 141.263 0.842007 139.314C0.913672 139.133 1.00325 138.932 0.985337 138.731C0.895756 136.24 0.806174 133.729 0.680759 131.237C0.609094 129.63 0.501596 128.043 0.394098 126.456C0.250767 124.306 -0.0538106 122.136 -6.15851e-05 119.986C0.0895201 116.309 0.412014 112.633 0.62701 108.936C0.752425 106.706 0.734509 104.455 0.931588 102.245C1.09284 100.457 1.55866 98.6892 1.77366 96.9011C2.1499 93.8472 2.43656 90.7933 2.72322 87.7193C2.77697 87.1567 2.59781 86.554 2.52614 85.9713C2.49031 85.7302 2.32906 85.3887 2.41864 85.2681C3.61904 83.6407 3.06363 81.8124 3.09947 80.0042C3.1353 77.5731 3.52946 75.1219 3.78029 72.6909C3.9057 71.5457 4.08486 70.4004 4.17445 69.2351C4.51486 64.815 4.55069 60.3547 5.24943 56.015C5.984 51.3939 5.769 46.7729 6.0915 42.1519C6.30649 38.9975 6.5394 35.8632 6.82607 32.729C6.93356 31.4632 7.32772 30.318 8.79686 30.1372C9.02978 30.6194 9.31644 31.2221 9.6031 31.8249C9.78226 31.6842 9.96143 31.5235 10.1406 31.3828C10.2481 31.0815 10.3735 30.7801 10.481 30.4787C10.7856 29.6952 11.126 29.434 11.7531 30.2175C12.7922 31.5034 13.5626 31.3226 14.1897 29.7153C14.2972 29.4541 14.4584 29.1326 14.6555 29.0321C15.9097 28.4897 17.1996 27.5052 18.4359 27.6056C21.0875 27.8066 23.2733 26.1992 25.7457 25.7974C26.7311 25.6367 27.5911 24.5919 28.5228 23.9892C29.5798 23.3061 30.6548 22.6632 31.7119 22.0202C32.8585 21.317 33.4318 22.2613 33.8439 23.1253C34.3993 24.2906 34.7756 25.5362 36.2089 25.7171C36.3701 25.7371 36.5672 26.4604 36.5672 26.8623C36.5134 28.4093 36.191 29.9764 36.3164 31.5034C36.4776 33.3719 37.1405 35.2002 37.3376 37.0888C37.6243 39.7208 37.6601 42.393 37.8751 45.045C38.0543 47.3154 38.3767 49.5455 38.5738 51.8158C38.6276 52.3784 38.4663 52.9811 38.4484 53.5638C38.4484 53.8652 38.4484 54.2067 38.5738 54.4478C38.9501 55.151 39.3801 55.8341 39.7921 56.5172C40.3296 55.8944 41.0284 55.3921 41.3688 54.6487C42.4796 52.1976 43.5367 49.7062 44.4325 47.1546C45.3641 44.4423 46.0449 41.6295 46.9228 38.877C47.5678 36.8678 48.392 34.9189 49.1086 32.9299C49.4311 32.0459 49.6999 31.1417 50.0224 30.2778C50.7032 28.4294 51.3482 26.5207 52.1723 24.7527C52.4411 24.1901 53.1756 23.7682 53.7848 23.5673C57.5831 22.2613 61.3993 20.9956 65.2334 19.7901C66.2725 19.4686 67.3654 19.3882 68.4225 19.1672C69.3183 18.9663 70.2141 18.5444 71.1099 18.5444C71.7907 18.5444 72.7045 18.8659 73.0986 19.4284C73.5824 20.1115 73.8153 21.1563 73.8332 22.0604C73.8511 24.3709 73.7078 26.6614 73.6003 28.9719C73.5465 30.0367 73.4032 31.0815 73.3315 32.1262C73.2061 33.8139 73.0986 35.4815 73.009 37.1692C72.8478 40.4441 72.7224 43.719 72.5253 46.9738C72.3103 50.7711 71.9878 54.5885 71.7907 58.3857C71.6653 60.6762 71.6295 62.9666 71.6295 65.257C71.6295 66.4022 71.8266 67.5474 71.8982 68.6927C71.9341 69.3959 71.8266 70.0991 71.8624 70.7822C71.952 72.1082 72.1491 73.4142 72.2207 74.7402C72.3103 76.4279 72.382 78.1156 72.3103 79.7831C72.1849 83.0179 71.8803 86.2325 71.7549 89.4672C71.6116 93.3851 71.7011 97.3029 71.5041 101.201C71.3428 104.315 70.8412 107.409 70.5366 110.523C70.3395 112.532 70.1245 114.541 70.0708 116.55C69.9812 120.026 70.0708 123.502 69.9812 126.958C69.9274 129.248 69.8199 131.579 69.4437 133.809C69.3004 134.653 68.4225 135.657 67.6879 135.959C66.1292 136.562 64.3913 136.642 62.7788 137.104C61.238 137.566 59.8226 137.767 58.1922 137.285C56.956 136.923 55.5227 137.506 54.179 137.566C52.6919 137.626 51.2048 137.566 49.7357 137.566C48.8936 137.566 47.9262 136.32 47.9262 134.794C47.9262 132.744 48.177 130.675 48.2666 128.625C48.3203 127.42 48.2128 126.214 48.2307 125.009C48.2487 123.422 48.2845 121.814 48.4099 120.227C48.4995 118.921 48.822 117.656 48.8936 116.35C49.037 114.039 49.0728 111.729 49.1624 109.398C49.1624 109.137 49.1086 108.855 49.2161 108.655C50.3628 106.304 49.9865 103.752 50.0224 101.261C50.0582 98.3276 49.9507 95.3942 49.9865 92.4609C49.9865 91.8983 50.3807 91.3558 50.4703 90.7732C50.8465 88.543 51.4378 86.3129 51.4557 84.0827C51.4557 82.3749 52.5486 81.1494 52.5127 79.4818C52.4769 77.8343 52.6382 76.1466 52.8352 74.4991C52.9965 72.9922 53.3011 71.5256 53.5519 70.0388C53.3906 69.9986 53.2115 69.9785 53.0502 69.9383H52.9427ZM12.0935 102.386C13.3834 96.3787 13.473 94.2892 12.3085 92.722C12.4876 96.1577 11.3231 99.2317 12.0935 102.386ZM27.8061 44.0605C27.6628 44.0605 27.5194 44.0605 27.394 44.0405C26.1578 45.8286 26.0145 49.5254 27.394 50.8916C27.5374 48.4606 27.6807 46.2706 27.824 44.0605H27.8061ZM52.8532 32.3472C53.749 32.4276 54.1252 32.086 54.2685 31.1417C54.376 30.4787 54.6448 29.8157 54.9673 29.2531C55.3435 28.57 55.8631 27.9673 56.3289 27.3445C56.2214 27.1636 56.096 27.0029 55.9885 26.8221C55.3794 27.244 54.5015 27.5052 54.2148 28.1079C53.6236 29.3536 53.3369 30.8002 52.8532 32.3472ZM70.017 74.2781C69.8379 71.2443 69.6766 68.4717 69.5333 65.6789C69.3362 65.6789 69.157 65.699 68.96 65.7191C68.96 66.4022 68.8166 67.1255 68.9958 67.7484C69.3541 69.0342 69.3362 70.2196 68.96 71.5256C68.6912 72.4498 68.8525 73.5146 70.0349 74.2781H70.017ZM31.9627 47.9784C31.8014 47.9784 31.6223 47.9784 31.461 47.9784C31.2998 49.3647 31.0848 50.751 31.031 52.1373C31.031 52.4186 31.6044 52.7401 31.9089 53.0414C32.1239 52.7601 32.536 52.4387 32.5002 52.1775C32.3748 50.7711 32.1598 49.3647 31.9627 47.9583V47.9784ZM60.0914 40.6249C58.246 42.413 57.9951 44.4423 59.5897 45.688C59.7509 43.9601 59.9122 42.3729 60.0914 40.6249ZM37.5526 65.0561C38.108 64.5538 38.5022 64.3328 38.6813 63.9913C38.8784 63.5693 39.1113 62.8461 38.9322 62.5849C38.6634 62.183 38.0543 62.0625 37.5884 61.8415C37.4809 62.3237 37.3018 62.8059 37.2838 63.3082C37.2838 63.7703 37.4272 64.2525 37.5526 65.0762V65.0561ZM10.5168 50.5702C11.4306 48.4405 9.02978 48.0186 9.11936 46.4313C8.47437 48.2396 9.15519 49.4852 10.5168 50.5702ZM28.3436 63.5292C26.9461 64.8753 27.5732 65.699 28.8632 67.5073L29.2394 67.4068C28.9527 66.2013 28.684 64.9757 28.3436 63.5292ZM58.8372 34.9189C60.1093 35.2806 60.3959 34.2358 60.7901 33.4924C60.9155 33.2513 60.7005 32.7692 60.6468 32.3874C60.3064 32.508 59.8047 32.5281 59.6614 32.7892C59.321 33.4121 59.1239 34.1354 58.8551 34.9189H58.8372ZM3.9057 123.603C3.97737 124.567 4.06695 125.491 4.15653 126.717C4.9986 125.993 5.48234 125.551 6.01983 125.089C5.28526 124.567 4.6761 124.125 3.9057 123.583V123.603ZM7.86521 139.917C8.85061 141.183 10.4989 141.122 11.4126 139.917H7.86521ZM58.8731 51.3939C58.9985 51.3939 59.1239 51.3939 59.2493 51.3939V47.2551C59.1239 47.2551 58.9985 47.2551 58.8731 47.2551V51.3939ZM60.9334 84.2434C61.023 84.0626 61.1126 83.8818 61.2022 83.701C60.7722 83.2791 60.3422 82.8772 59.6793 82.2544C59.5001 83.1183 59.3747 83.701 59.2135 84.5046C59.948 84.4042 60.4318 84.3238 60.9334 84.2434ZM18.2925 123.462C18.9375 123.804 19.5646 124.165 20.4425 124.647C20.1021 123.02 19.8871 122.919 18.2925 123.462ZM51.7782 34.9993C51.9753 35.0395 52.1544 35.0998 52.3515 35.1399C52.6023 34.6176 52.889 34.1153 53.0861 33.5728C53.1398 33.4121 53.0144 33.0504 52.8711 32.9299C52.7457 32.8294 52.3515 32.9098 52.3157 33.0102C52.1007 33.6532 51.9573 34.3363 51.7782 34.9993ZM55.7198 63.268L55.9885 62.9465C55.4152 62.2433 54.8419 61.5602 54.1073 60.6762C53.9998 61.3593 53.9281 61.7611 53.8744 62.0826C54.5552 62.5246 55.1285 62.9063 55.7019 63.268H55.7198ZM4.38944 104.496C4.56861 104.516 4.74777 104.536 4.92693 104.556C5.03443 103.23 5.14193 101.904 5.24943 100.578C5.14193 100.578 5.01651 100.538 4.90902 100.518C4.74777 101.844 4.56861 103.149 4.40736 104.476L4.38944 104.496ZM26.122 79.1603C25.9249 79.6626 25.692 80.185 25.5128 80.7274C25.4232 81.0288 25.3874 81.3905 25.4232 81.7119C25.4232 81.7722 25.907 81.9329 25.9786 81.8325C26.2115 81.5713 26.4982 81.1895 26.4803 80.8681C26.4624 80.2854 26.2474 79.7028 26.122 79.1402V79.1603ZM8.99394 44.7838C9.13727 44.8039 9.28061 44.824 9.42394 44.8441C9.56727 44.2816 9.74643 43.6989 9.78226 43.1162C9.78226 42.9756 9.24477 42.8149 8.7252 42.5336C8.8327 43.5382 8.90436 44.161 8.97603 44.7637L8.99394 44.7838Z" fill="white"/>
<path d="M382.245 95.0527C382.137 95.8362 382.084 96.2782 382.012 96.7002C381.439 100.417 380.847 104.114 380.328 107.831C380.22 108.594 380.525 109.418 380.453 110.202C380.149 113.316 379.755 116.41 379.432 119.504C379.307 120.75 379.271 121.995 379.181 123.241C378.984 125.772 378.966 128.344 377.318 130.454C376.368 131.679 375.276 131.78 374.147 131.278C371.764 130.233 369.471 129.972 367.141 131.358C366.891 131.499 366.514 131.499 366.228 131.458C365.009 131.217 364.006 131.78 362.877 132.182C361.301 132.764 359.545 132.784 357.879 132.925C357.646 132.925 357.144 132.222 357.162 131.88C357.27 129.69 357.485 127.5 357.664 125.31C357.825 123.281 357.915 121.232 358.165 119.203C358.38 117.414 358.775 115.646 359.133 113.898C359.527 111.97 360.226 110.182 360.226 108.112C360.226 106.284 360.763 104.455 361.122 102.647C361.641 100.035 362.25 97.4636 362.77 94.8517C363.182 92.8024 363.433 90.733 363.863 88.6837C364.472 85.7704 365.171 82.8572 365.834 79.964C365.869 79.7832 366.066 79.6023 366.049 79.4215C365.654 74.5594 367.536 70.0388 367.643 65.257C367.697 63.0068 368.611 60.7967 368.593 58.6469C368.593 56.9794 369.238 55.4926 369.059 53.8853C369.023 53.5035 369.112 53.1017 369.166 52.72C369.399 51.1528 369.578 49.5656 369.901 48.0186C370.42 45.5674 370.814 43.056 371.692 40.7656C372.391 38.9372 372.248 37.2897 372.033 35.5016C372.14 35.5217 372.266 35.5418 372.373 35.5619C372.552 34.5573 372.678 33.5326 372.911 32.5482C373.161 31.5034 373.645 30.5189 373.842 29.4541C374.362 26.8221 374.792 24.17 375.222 21.5179C375.365 20.6339 375.508 19.7298 375.562 18.8458C375.67 16.4951 375.688 14.1243 375.831 11.7535C375.885 10.9298 376.064 10.0256 376.44 9.32243C376.978 8.33795 377.766 7.89594 378.608 9.06125C379.145 9.80463 379.629 9.70417 380.149 9.02106C381.098 7.77539 382.155 7.09228 383.804 7.39366C384.717 7.55439 385.757 6.83109 386.724 6.48954C388.82 5.74616 390.916 5.04295 392.995 4.2393C394.697 3.59637 396.309 2.65207 398.047 2.18997C400.305 1.58723 402.544 1.80823 404.372 3.79728C404.551 3.9982 404.837 4.15893 405.07 4.15893C407.543 4.19911 409.406 5.96716 410.822 7.71512C411.735 8.84024 413.473 10.0658 413.097 12.3362C413.007 12.8786 413.599 13.5818 413.921 14.1846C415.569 17.359 417.361 20.433 418.848 23.6878C419.475 25.054 419.493 26.7618 419.816 28.3089C420.102 29.6148 420.461 30.9207 420.747 32.2267C420.855 32.6888 420.98 33.2514 420.855 33.6733C420.317 35.4413 420.478 37.0888 420.837 38.9372C421.177 40.7455 420.64 42.7345 420.604 44.6432C420.532 47.9784 418.866 50.5903 417.54 53.3629C417.003 54.488 416.698 55.7337 416.214 56.899C415.981 57.4616 415.48 57.8835 415.247 58.446C414.261 60.6762 413.455 63.0068 412.362 65.1566C411.717 66.4223 410.714 67.5073 409.764 68.552C407.722 70.8023 405.608 72.9722 403.548 75.2224C402.526 76.3475 401.559 77.5128 400.627 78.7384C400.323 79.1402 400.018 79.8434 400.125 80.2654C401.147 84.2836 401.953 88.4426 403.977 91.9787C404.873 93.5257 405.465 95.1129 406.145 96.7604C406.719 98.1668 407.758 99.3522 408.08 100.96C408.779 104.315 409.137 107.851 410.409 110.905C411.592 113.718 410.535 116.993 412.326 119.484C411.879 121.111 411.699 122.92 410.947 124.346C409.89 126.375 407.597 126.255 405.895 127.179C403.852 128.304 401.828 129.429 399.767 130.514C398.71 131.077 397.617 131.74 396.488 131.92C395.933 132.001 395.216 131.137 394.643 130.594C394.177 130.173 393.837 129.59 393.729 129.027C393.514 127.962 393.353 126.898 393.066 125.853C392.654 124.426 392.135 123.02 391.687 121.593C391.275 120.267 390.881 118.941 390.558 117.595C389.895 114.782 389.411 111.889 388.605 109.137C387.889 106.686 387.011 104.255 385.882 102.024C384.986 100.256 384.001 98.6088 383.571 96.5796C383.463 96.0371 382.854 95.6353 382.245 94.912V95.0527ZM402.365 40.203C402.24 39.6605 402.132 39.1381 401.971 38.6158C401.021 35.7427 399.355 33.0906 396.256 33.6532C394.858 33.8943 393.443 34.4769 392.224 35.2605C391.185 35.9235 390.361 36.9281 390.271 38.6158C390.128 41.1473 389.609 43.6386 389.286 46.1702C388.999 48.5008 388.731 50.8515 388.498 53.2022C388.372 54.488 389.071 55.1711 390.003 54.7291C391.131 54.2067 392.224 53.5839 393.353 53.0213C395.055 52.1775 396.757 51.2734 398.495 50.53C400.502 49.6862 402.114 47.898 401.595 46.1902C401.093 44.5628 401.863 43.3574 401.953 41.971C401.989 41.3683 402.204 40.8057 402.347 40.203H402.365ZM382.765 42.3126C382.854 42.3729 382.962 42.4131 383.051 42.4733C383.266 41.9309 383.517 41.4085 383.66 40.8459C384.897 35.6824 386.133 30.5189 387.315 25.3554C387.387 25.054 387.172 24.6924 387.082 24.3508C386.832 24.5718 386.437 24.7125 386.33 25.0139C385.882 26.1792 385.398 27.3646 385.165 28.5901C384.305 33.1509 383.553 37.7317 382.747 42.3126H382.765ZM372.624 56.5775C372.427 56.5574 372.212 56.5373 372.015 56.5173C371.907 57.2807 371.782 58.0442 371.692 58.8077C371.262 62.2835 370.832 65.7392 370.438 69.2151C370.384 69.7173 370.492 70.2598 370.635 70.742C370.671 70.8626 371.298 70.963 371.334 70.8826C371.531 70.4205 371.71 69.9384 371.746 69.4361C372.015 66.0607 372.266 62.6853 372.498 59.31C372.57 58.4059 372.588 57.5017 372.642 56.5976L372.624 56.5775ZM369.13 78.5576C370.528 76.5685 370.635 74.2379 370.51 71.8671C369.291 73.8964 369.327 76.2672 369.13 78.5576ZM372.266 55.6935C373.932 53.604 372.875 51.0926 373.627 48.8423C373.412 48.8021 373.215 48.782 373 48.7419C372.749 51.0524 372.498 53.383 372.266 55.6935ZM381.636 32.3472C381.492 32.3472 381.349 32.3472 381.224 32.3472C381.08 34.2358 380.149 36.0441 380.955 38.0331C381.188 36.1244 381.421 34.2358 381.654 32.3271L381.636 32.3472ZM387.638 9.8649C386.169 9.46307 385.058 10.7087 385.47 12.3964C386.222 11.5124 386.903 10.7087 387.638 9.8649ZM375.508 36.8075C375.311 36.7674 375.114 36.7272 374.917 36.687C374.756 38.013 374.613 39.3391 374.451 40.6651C374.523 40.6651 374.595 40.6852 374.666 40.7053C374.953 39.3993 375.222 38.1135 375.508 36.8075ZM374.398 43.8998L373.806 43.8195L373.394 47.2752C373.556 47.2953 373.717 47.3355 373.878 47.3556C374.057 46.2103 374.236 45.0651 374.398 43.8998ZM393.532 99.0107C393.658 99.0107 393.783 99.0107 393.909 99.0107C394.016 98.4883 394.267 97.9458 394.195 97.4636C394.159 97.2426 393.514 97.1422 392.726 96.8207C393.102 97.8454 393.317 98.428 393.532 99.0107ZM385.613 58.2853C385.344 57.2405 385.183 56.5574 385.004 55.8542C384.27 56.8186 384.126 57.6022 385.613 58.2853Z" fill="white"/>
<path d="M330.611 11.3517C331.56 13.3005 332.545 13.5215 333.997 12.6174C334.534 12.2759 335.538 12.8786 336.326 13.0795C337.311 13.3407 338.279 13.8832 339.246 13.843C340.877 13.7426 342.31 14.0238 343.689 15.0083C344.245 15.4101 344.926 15.5709 345.553 15.8722C345.875 16.033 346.234 16.1535 346.484 16.4147C348.563 18.665 350.731 20.8549 352.648 23.2659C353.973 24.9335 354.977 26.9426 356.105 28.791C356.733 29.8157 357.342 30.8806 357.969 31.9052C360.387 35.8632 361.928 40.1829 362.448 44.9446C362.681 47.014 363.003 49.1035 362.914 51.1729C362.699 56.5373 362.251 61.8817 361.91 67.226C361.821 68.5922 361.785 69.9584 361.695 71.3046C361.516 73.9165 361.319 76.5082 361.122 79.1201C360.889 82.1539 360.567 85.1877 360.441 88.2216C360.334 90.7933 360.387 93.4052 359.223 95.6956C358.381 97.3431 357.395 98.9102 356.356 100.377C354.78 102.607 353.113 104.757 351.465 106.907C350.946 107.59 350.39 108.273 349.799 108.876C347.004 111.749 344.03 114.441 341.45 117.535C340.088 119.162 338.386 119.946 336.81 120.951C335.34 121.895 333.567 122.377 331.954 123.02C330.431 123.623 328.532 123.02 326.794 122.94C325.898 122.899 325.003 122.94 324.107 122.859C323.193 122.779 322.279 122.538 321.366 122.437C318.947 122.156 316.546 121.915 314.127 121.654C313.948 121.654 313.715 121.734 313.608 121.654C311.78 119.946 309.72 118.439 308.233 116.41C307.086 114.863 306.549 112.673 305.993 110.684C305.366 108.434 305.008 106.103 304.578 103.772C304.453 103.089 304.578 102.366 304.471 101.663C304.381 101.08 304.166 100.518 303.987 99.8947C304.22 98.7093 304.471 97.3833 304.739 96.0773C304.883 95.4143 305.116 94.7714 305.259 94.1084C305.402 93.4855 305.563 92.8426 305.563 92.2198C305.51 89.6079 305.456 86.9759 305.295 84.364C305.187 82.4955 304.829 80.6471 304.775 78.7987C304.757 77.9749 305.331 77.1512 305.456 76.3073C305.85 73.7758 306.083 71.2242 306.513 68.7128C306.979 65.9401 307.588 63.1876 308.108 60.4351C308.502 58.3456 308.788 56.236 309.2 54.1665C309.648 51.8962 310.168 49.646 310.723 47.4158C311.279 45.1455 311.727 42.8149 312.515 40.6249C313.393 38.234 314.593 36.0039 315.65 33.6934C315.758 33.4724 315.901 33.2714 315.991 33.0303C317.603 28.6906 320.058 24.9335 322.512 21.1764C323.534 19.5892 324.394 17.8412 325.576 16.4348C327.045 14.6668 328.765 13.18 330.628 11.3517H330.611ZM325.361 71.6662C325.469 71.7064 325.594 71.7265 325.701 71.7667C325.63 74.2781 326.472 75.8251 328.192 75.805C330.109 75.7849 332.098 75.7046 333.907 75.0817C337.437 73.8763 339.192 70.4607 339.569 66.8041C339.999 62.625 339.551 58.3054 339.246 54.0661C339.085 51.7958 338.404 49.6058 336.648 48.0989C336.075 47.5966 335.376 46.9939 334.731 47.7976C333.334 49.5656 331.811 51.2935 330.79 53.3026C329.536 55.7739 328.586 58.4661 327.798 61.1785C326.812 64.6141 326.149 68.1502 325.343 71.6662H325.361ZM330.485 109.498C329.428 109.539 328.425 108.996 328.12 110.784C327.923 112.01 325.612 112.592 324.824 111.769C323.749 110.624 323.086 110.664 321.885 112.07C323.086 112.311 324.214 112.552 325.343 112.773C326.651 113.035 327.959 113.356 329.285 113.477C329.607 113.497 330.181 112.834 330.27 112.392C330.467 111.528 330.396 110.603 330.449 109.518L330.485 109.498ZM309.971 68.994C309.828 68.994 309.684 68.994 309.541 68.974C309.398 69.416 309.183 69.858 309.129 70.3402C308.932 72.2087 308.788 74.0772 308.627 75.9457C308.502 77.3923 308.358 78.8388 308.287 80.2854C308.287 80.5667 308.502 80.848 308.627 81.1293C308.842 80.8882 309.183 80.6873 309.272 80.3859C309.398 79.964 309.326 79.4818 309.362 79.0398C309.595 76.0461 309.845 73.0525 310.078 70.079C310.096 69.7374 310.007 69.3758 309.971 69.0141V68.994ZM357.682 88.9649C357.557 88.9248 357.431 88.8645 357.324 88.8243C356.643 91.0745 355.944 93.3047 355.263 95.5549C358.524 94.3294 357.252 91.3156 357.682 88.9649ZM352.307 29.3134C352.236 29.4742 352.146 29.655 352.074 29.8157C352.845 30.8203 353.597 31.8449 354.421 32.7892C354.529 32.9098 355.013 32.6084 355.317 32.508C354.851 31.644 354.493 30.6796 353.902 29.9363C353.561 29.5143 352.845 29.4942 352.307 29.3134ZM342.489 72.711C342.614 72.7511 342.758 72.7913 342.883 72.8315C344.818 70.8625 345.32 68.9137 343.689 68.2908C343.277 69.7776 342.883 71.2443 342.489 72.711ZM336.684 19.3481C337.831 19.7901 338.834 20.2321 339.873 20.5536C340.178 20.654 340.572 20.3928 340.912 20.3125C340.751 19.991 340.662 19.5892 340.429 19.3882C339.264 18.3234 338.046 18.3837 336.684 19.3481ZM337.293 77.8142C337.186 77.7137 337.078 77.6334 336.971 77.5329C335.735 78.0352 334.516 78.5375 333.28 79.0599C333.262 79.2005 333.226 79.3411 333.208 79.4818C333.818 79.7028 334.606 80.2854 335.018 80.0443C335.878 79.522 336.559 78.5978 337.311 77.8343L337.293 77.8142ZM332.778 112.03C332.886 112.191 332.993 112.351 333.101 112.492C334.749 111.266 336.38 110.021 338.028 108.795L337.795 108.413C336.129 109.619 334.463 110.824 332.796 112.03H332.778ZM355.156 57.2405L355.711 57.6625C355.837 57.3611 356.105 57.0195 356.07 56.7383C355.962 55.3519 355.783 53.9857 355.64 52.5994C355.55 52.5994 355.46 52.5994 355.371 52.5994C355.299 54.1465 355.228 55.6935 355.174 57.2405H355.156ZM349.799 72.5502C349.942 72.5703 350.086 72.5904 350.211 72.6306C350.587 70.6817 350.981 68.7329 351.358 66.8041C351.214 66.7639 351.089 66.7438 350.946 66.7036C350.569 68.6525 350.175 70.6014 349.799 72.5502ZM313.518 99.1312C313.375 99.1915 313.25 99.2317 313.106 99.2919C313.321 100.216 313.5 101.14 313.769 102.044C313.823 102.225 314.253 102.406 314.414 102.326C314.593 102.245 314.808 101.783 314.737 101.623C314.378 100.759 313.93 99.955 313.518 99.1312ZM312.193 65.5785C312.372 65.5785 312.551 65.6187 312.748 65.6388C313.357 64.3529 313.25 63.047 312.407 61.7008C312.336 62.9867 312.264 64.2926 312.193 65.5785ZM351.214 26.0184C351.035 26.0988 350.838 26.1591 350.659 26.2394C351.035 27.1837 351.411 28.1079 351.77 29.0522C351.985 28.9518 352.182 28.8312 352.397 28.7308C352.003 27.8267 351.608 26.9225 351.214 26.0184ZM334.48 94.8115C334.391 94.691 334.319 94.5704 334.23 94.4499C333.208 95.1933 332.169 95.9568 331.148 96.7001C331.255 96.881 331.381 97.0417 331.488 97.2225C332.474 96.4189 333.477 95.6152 334.463 94.8115H334.48ZM314.629 106.163C314.647 106.485 314.665 106.786 314.701 107.108C315.292 107.027 315.883 106.947 316.457 106.826C316.457 106.826 316.403 106.103 316.385 106.103C315.812 106.103 315.22 106.143 314.647 106.183L314.629 106.163ZM327.063 54.7291C327.171 54.7894 327.296 54.8497 327.403 54.8898C327.816 53.825 328.21 52.7802 328.622 51.7154C327.224 52.278 327.368 53.6241 327.063 54.709V54.7291Z" fill="white"/>
<path d="M234.31 80.5868C234.901 81.7923 235.403 82.7969 235.887 83.7813C236.03 84.0827 236.334 84.4243 236.299 84.7056C236.155 86.1923 237.105 87.0161 237.786 87.9805C239.649 90.6124 240.151 93.8271 240.401 96.9413C240.581 99.292 240.402 101.783 239.38 104.094C238.431 106.244 238.019 108.715 236.962 110.804C235.367 113.979 233.522 116.972 231.551 119.866C229.526 122.839 227.233 125.471 224.832 128.023C223.202 129.751 221.607 131.519 219.887 133.146C219.224 133.769 218.329 134.11 217.487 134.432C215.337 135.256 213.742 137.526 211.252 137.466C211.001 137.466 210.75 137.667 210.499 137.767C208.367 138.651 206.217 139.475 204.139 140.479C202.258 141.363 200.466 142.468 198.639 143.473C196.327 144.739 193.927 145.583 191.4 144.518C190.379 144.096 189.394 143.332 188.623 142.448C186.832 140.399 185.04 138.33 183.535 136.019C182.765 134.834 182.639 133.126 182.191 131.679C181.994 131.016 181.743 130.394 181.51 129.751C181.313 129.188 180.901 128.585 180.955 128.043C181.367 124.467 180.436 121.131 179.737 117.736C179.504 116.651 179.916 115.867 180.758 115.586C181.385 115.385 182.227 115.405 182.8 115.727C183.66 116.189 184.323 117.153 185.183 117.635C186.957 118.6 188.82 117.997 190.612 117.615C192.368 117.234 194.088 116.651 195.79 116.008C196.793 115.626 197.671 114.762 198.674 114.381C202.598 112.894 206.199 110.744 209.496 107.971C211.252 106.505 212.488 104.536 212.345 101.783C212.577 101.743 212.81 101.703 213.402 101.623C213.402 99.9952 213.599 98.2673 213.348 96.6198C213.025 94.5705 212.721 92.3001 211.717 90.6526C210.804 89.1659 210.642 87.1768 209.299 86.0718C208.188 85.1677 207.615 83.922 207.023 82.616C206.844 82.2142 206.307 82.0133 206.002 81.6517C205.429 80.9685 204.891 80.2252 204.336 79.4818C204.139 79.2206 203.996 78.879 203.763 78.658C201.738 76.5283 199.713 74.4187 197.671 72.3091C197.026 71.6461 196.184 71.184 195.682 70.4205C194.016 67.9091 192.189 65.478 190.934 62.7054C189.877 60.3346 189.322 57.5821 188.946 54.93C188.587 52.4588 188.713 49.8871 188.713 47.3756C188.713 46.13 188.964 44.8843 189.071 43.6386C189.107 43.1163 189.071 42.5738 189.071 42.0313C189.071 41.7299 188.874 41.3683 188.982 41.1674C190.451 38.4149 190.487 35.14 191.687 32.2669C192.959 29.2532 194.374 26.3801 196.345 23.8687C196.936 23.1052 197.384 22.2011 197.94 21.4175C200.054 18.4841 202.491 15.9325 205.106 13.5416C206.181 12.5572 207.364 11.9946 208.51 11.3517C212.13 9.34253 215.731 7.21284 219.529 5.74616C222.718 4.52058 226.266 4.13885 229.473 5.74616C231.157 6.59 232.429 8.4786 233.934 9.80464C234.364 10.1864 234.973 10.5078 235.51 10.5078C236.764 10.5078 238.914 12.1955 239.147 13.622C239.362 14.948 239.434 16.3143 239.559 17.6604C239.559 17.8412 239.524 18.1024 239.416 18.223C238.216 19.5892 238.574 21.2969 238.538 22.9444C238.449 26.4805 238.538 30.0367 238.09 33.5125C237.893 34.9591 237.607 36.3655 237.696 37.8322C237.768 38.9171 237.822 39.982 237.965 41.0468C238.09 42.0112 238.449 43.1163 237.499 43.6386C236.764 44.0405 235.707 44.3418 235.009 44.0405C232.124 42.7948 229.15 42.7144 226.158 42.9354C224.904 43.0158 223.686 43.3574 222.431 43.4578C219.905 43.6788 218.544 45.8889 217.289 47.7775C216.447 49.0432 216.286 51.193 216.465 52.8807C216.68 54.9903 217.361 57.12 218.167 59.0488C219.493 62.2634 221.428 65.0159 223.901 67.2863C227.717 70.8023 230.727 75.1018 233.307 79.7831C233.522 80.185 234.077 80.3457 234.328 80.5064L234.31 80.5868ZM229.723 34.3966C229.723 34.3966 229.634 34.3162 229.58 34.276C229.544 33.5326 229.544 32.7692 229.437 32.0459C229.311 31.2221 229.096 30.3984 228.917 29.5545C228.147 30.1372 227.215 30.7198 227.663 31.9856C228.398 34.1555 228.183 34.7984 226.23 35.7025C225.782 35.9034 225.406 36.3053 224.993 36.6267C225.047 36.7875 225.119 36.9482 225.173 37.129C226.767 37.3902 228.362 37.6514 230.171 37.9528C229.974 36.4861 229.849 35.4614 229.705 34.4167L229.723 34.3966ZM236.012 16.6759C234.704 16.0933 234.202 16.5554 234.185 17.7408C234.149 20.0714 234.077 22.4221 234.185 24.7527C234.22 25.6769 234.65 26.5609 234.901 27.4851C235.905 23.8887 235.08 20.2321 236.012 16.696V16.6759ZM222.037 69.2351C222.145 69.0543 222.27 68.8936 222.378 68.7128C222.001 68.1301 221.661 67.5073 221.249 66.9648C219.726 64.9155 218.185 62.8662 216.609 60.857C216.412 60.5958 216.035 60.5155 215.749 60.3547C215.731 60.7566 215.534 61.2789 215.695 61.5602C216.842 63.5292 217.952 65.5584 219.296 67.3465C219.959 68.2105 221.106 68.6123 222.019 69.215L222.037 69.2351ZM199.624 23.7883C199.767 23.9691 199.928 24.1499 200.072 24.3107C202.598 21.7791 205.142 19.2878 207.65 16.7161C207.901 16.4549 207.919 15.8723 208.045 15.4503C205.106 18.1627 201.792 20.2723 199.642 23.7682L199.624 23.7883ZM221.643 119.604C221.786 119.745 221.93 119.886 222.073 120.006C222.861 119.464 223.686 118.982 224.402 118.359C225.083 117.776 225.585 116.892 226.283 116.41C227.52 115.546 228.29 114.441 226.212 113.376C224.707 115.425 223.166 117.535 221.625 119.624L221.643 119.604ZM220.335 30.2175C219.404 31.2824 218.472 32.3272 217.576 33.4322C217.415 33.6331 217.343 34.1555 217.469 34.3765C217.594 34.5975 218.096 34.8185 218.275 34.718C219.654 33.9546 221.016 33.1509 222.324 32.2669C222.557 32.1061 222.736 31.5235 222.664 31.2422C222.611 31.0212 222.127 30.9007 221.804 30.7801C221.356 30.5993 220.891 30.4586 220.317 30.2376L220.335 30.2175ZM205.859 114.883C208.063 115.486 213.527 111.186 213.921 108.092C213.294 108.755 212.864 109.157 212.47 109.619C211.95 110.222 211.574 111.045 210.947 111.407C209.98 111.97 208.869 112.231 207.812 112.633C207.65 112.693 207.489 112.834 207.382 112.974C206.862 113.617 206.36 114.26 205.859 114.883ZM190.325 121.453C188.48 121.352 186.796 121.232 185.112 121.212C184.825 121.212 184.323 121.614 184.27 121.895C184.162 122.457 184.323 123.06 184.377 123.763C186.366 123.201 188.229 122.678 190.092 122.116C190.236 122.076 190.272 121.634 190.343 121.453H190.325ZM214.96 11.3115C218.275 11.0905 220.98 9.98546 223.578 8.41832C220.658 8.77997 217.719 9.08134 214.96 11.3115ZM196.184 121.071C196.954 122.98 197.617 124.627 198.262 126.275C198.585 125.732 198.656 125.23 198.674 124.728C198.674 124.145 198.71 123.542 198.639 122.96C198.531 122.156 198.531 121.071 198.083 120.689C197.743 120.388 196.775 120.93 196.184 121.071ZM193.568 36.1847C193.729 36.2651 193.891 36.3254 194.052 36.4057C195.682 34.1153 197.492 29.2732 196.704 28.0879C195.664 30.7801 194.607 33.4925 193.568 36.1847ZM205.733 129.751C206.45 129.168 207.203 128.826 207.507 128.224C207.848 127.541 206.199 124.828 205.465 124.507C205.465 125.973 205.465 127.46 205.465 128.967C205.465 129.108 205.554 129.248 205.715 129.771L205.733 129.751ZM210.392 32.7491C207.095 33.4724 205.984 35.0797 207.131 37.2094C208.242 35.6824 209.317 34.2157 210.392 32.7491ZM225.907 91.3156C226.588 89.7284 225.155 87.0362 223.883 87.0362C222.951 87.0362 222.843 87.7193 223.256 88.3019C224.026 89.3668 224.976 90.2709 225.907 91.2955V91.3156ZM236.281 106.545C236.8 103.973 237.248 101.703 237.714 99.4125C237.589 99.3723 237.463 99.3321 237.338 99.2919C236.621 101.301 235.905 103.31 235.134 105.48C235.367 105.701 235.725 106.043 236.281 106.545ZM219.206 112.211C219.314 113.999 219.421 115.747 219.547 117.595C221.554 115.867 221.356 113.477 219.206 112.211ZM226.319 27.4047C227.054 25.5362 227.77 23.6677 228.648 21.4376C226.911 22.3417 225.603 25.6568 226.319 27.4047ZM213.527 85.3887C213.366 85.5092 213.205 85.6499 213.043 85.7704C213.527 86.8955 213.993 88.0407 214.53 89.1458C214.692 89.4672 215.139 89.5878 215.444 89.8088C215.534 89.3668 215.838 88.7841 215.695 88.5229C215.05 87.4179 214.262 86.4334 213.527 85.3887ZM191.185 127.48C190.469 127.299 189.501 126.918 189.645 128.204C189.788 129.509 190.469 130.755 190.899 132.021C191.042 131.981 191.203 131.961 191.347 131.92C191.293 130.474 191.239 129.007 191.167 127.5L191.185 127.48ZM213.115 125.069C212.345 123.964 211.771 123.12 211.162 122.216C210.356 123.02 210.768 123.884 211.055 124.667C211.234 125.17 211.628 125.592 211.915 126.054C212.327 125.712 212.721 125.391 213.115 125.069ZM198.226 64.0515C197.044 63.268 195.987 62.5648 194.93 61.8616C194.84 62.0022 194.751 62.1228 194.643 62.2634C195.414 63.3885 196.184 64.5137 196.99 65.7191C197.402 65.1566 197.689 64.7748 198.209 64.0515H198.226ZM198.495 44.2414V37.7117C197.277 40.1628 197.295 43.1765 198.495 44.2414ZM223.166 105.52C222.987 105.661 222.826 105.781 222.646 105.922C222.933 107.027 223.22 108.132 223.524 109.338C224.886 108.534 224.456 107.469 224.277 106.645C224.187 106.203 223.56 105.882 223.166 105.52ZM237.069 98.3677H237.642C237.535 96.6801 237.445 94.9924 237.338 93.2846C237.159 93.2846 236.979 93.3047 236.8 93.3248C236.89 95.0125 236.962 96.7001 237.051 98.3677H237.069ZM227.072 120.75C225.406 121.031 224.098 122.598 224.151 124.326C225.173 123.08 226.015 122.056 227.072 120.75ZM200.502 138.209C200.412 137.988 200.341 137.787 200.251 137.566C199.23 138.068 198.209 138.551 197.187 139.053C197.277 139.294 197.366 139.535 197.456 139.776C198.477 139.254 199.481 138.731 200.502 138.209ZM206.54 119.323C206.934 120.046 207.274 120.689 207.758 121.614C208.098 120.428 208.331 119.584 208.564 118.74C207.901 118.921 207.292 119.102 206.522 119.303L206.54 119.323ZM206.468 64.6744C206.289 64.7949 206.11 64.9155 205.93 65.0159C206.45 65.8799 206.97 66.7237 207.489 67.5876C207.65 67.4671 207.812 67.3465 207.991 67.226C207.489 66.3822 206.988 65.5182 206.486 64.6744H206.468ZM231.049 94.6508C232.321 93.586 232.303 93.3851 231.049 92.1997V94.6508ZM208.009 133.809C207.4 134.251 206.79 134.693 206.181 135.135C206.271 135.276 206.343 135.396 206.432 135.537C207.023 135.055 208.26 135.617 208.009 133.809ZM218.239 19.2476C217.755 20.0714 217.397 20.6942 216.859 21.5983C218.126 20.9956 218.585 20.212 218.239 19.2476Z" fill="white"/>
<path d="M82.0391 19.6093C83.2933 19.9307 84.3145 19.991 85.1745 20.433C86.5719 21.1764 87.5036 20.3526 88.489 19.5691C88.8473 19.2878 89.2056 18.9462 89.4923 18.5846C91.8214 15.7115 95.1001 14.8275 98.1101 13.3809C98.8805 12.9992 99.615 12.517 100.368 12.075C102.285 10.9699 103.413 11.854 103.969 14.1042C105.008 18.3837 105.922 22.6832 106.853 27.0029C107.122 28.2285 107.158 29.4943 107.373 30.7399C107.462 31.3025 107.749 31.8249 107.928 32.3673C108.054 32.3673 108.179 32.3874 108.304 32.4075C108.699 31.3828 109.075 30.3582 109.451 29.3335C109.774 29.1728 110.239 29.0924 110.508 28.791C112.981 25.8979 115.793 23.2458 117.782 19.9709C119.466 17.1782 122.315 15.4302 123.265 12.0549C123.3 11.9142 123.39 11.7535 123.48 11.6731C125.737 9.94527 126.525 7.03201 128.048 4.72149C129.338 2.79271 130.18 2.91326 131.488 4.76167C133.226 7.21283 135.143 9.52335 136.971 11.9142C137.58 12.7179 138.225 13.5215 138.655 14.4458C138.852 14.8677 138.78 15.6914 138.547 16.1133C137.347 18.1627 135.985 20.1115 134.767 22.1609C133.244 24.7125 131.596 27.2038 130.377 29.9363C128.908 33.2313 126.848 35.9637 124.913 38.8569C123.336 41.2076 122.136 43.9199 120.882 46.5318C120.362 47.6167 120.255 48.9026 119.807 50.0478C119.574 50.6305 119.001 51.0323 118.606 51.5547C117.872 52.5592 117.03 53.5236 116.474 54.6488C115.668 56.2762 114.217 57.1602 113.285 58.4862C111.547 60.9977 109.989 63.7502 110.311 67.2662C110.419 68.5119 110.257 69.7977 110.222 71.0836C110.114 75.9055 110.024 80.7475 109.863 85.5695C109.827 86.4937 109.505 87.3978 109.326 88.3019C109.254 88.6837 109.129 89.0855 109.164 89.4672C109.308 92.1997 109.505 94.9321 109.63 97.6646C109.809 101.341 110.024 105.038 110.096 108.715C110.132 110.322 109.863 111.95 109.72 113.577C109.63 114.762 109.559 115.928 109.415 117.113C109.129 119.464 108.645 121.774 108.519 124.125C108.412 125.993 107.695 127.541 106.835 128.967C106.387 129.69 105.277 130.173 104.417 130.293C101.908 130.635 99.3821 130.735 96.8738 130.976C96.2647 131.036 95.6018 131.197 95.0643 131.499C93.0577 132.624 90.8539 132.684 88.7398 133.186C87.8082 133.407 86.9661 134.11 86.0345 134.372C84.9057 134.693 83.562 133.789 83.2574 132.704C83.1678 132.383 83.1858 132.001 83.2574 131.679C83.7412 129.469 84.2966 127.259 84.7266 125.029C85.1386 122.879 85.4074 120.709 85.712 118.56C85.927 116.972 86.0703 115.385 86.2674 113.798C86.7332 110.081 87.2886 106.364 87.629 102.627C88.0053 98.4481 88.3278 94.2691 88.3457 90.0499C88.3457 85.5293 88.6502 80.9886 89.0802 76.4681C89.3311 73.7356 90.0835 71.0635 90.5673 68.3511C91.1585 64.9557 91.7139 61.5602 92.2693 58.1648C92.3231 57.8634 92.3948 57.5218 92.3052 57.2606C91.4452 55.0707 90.4956 52.9209 89.7073 50.7108C89.349 49.7063 89.2773 48.561 89.0086 47.4962C88.3098 44.5628 87.629 41.6094 86.8228 38.7162C86.4107 37.2496 85.6403 35.9235 85.1745 34.4769C84.7086 33.0504 84.4578 31.5235 84.0278 30.0769C83.4187 27.9874 82.5766 25.9782 82.1108 23.8486C81.8241 22.5828 82.057 21.1965 82.057 19.6093H82.0391ZM94.4551 89.2462C94.4551 92.4408 92.8606 95.3741 93.631 98.9504C94.0251 98.3878 94.3476 98.1467 94.4193 97.8253C94.8135 96.1778 94.8493 94.3294 95.566 92.9029C96.4259 91.175 96.2289 90.2106 94.7955 89.3266C94.7597 89.3065 94.706 89.3065 94.4551 89.2462ZM92.2693 81.5311C92.4485 81.4909 92.6277 81.4708 92.8068 81.4306C93.1831 78.1959 93.5593 74.9612 93.9356 71.7265L93.3085 71.6059C92.8248 74.1375 92.2873 76.6489 91.8931 79.2005C91.7856 79.9439 92.126 80.7676 92.2514 81.5311H92.2693ZM102.464 79.3612C102.643 79.6023 102.894 79.9238 103.145 80.2453C103.413 79.9439 103.861 79.7028 103.933 79.3612C104.22 77.9146 104.435 76.4279 104.614 74.9411C104.667 74.5192 104.488 74.0772 104.417 73.6553C104.058 73.9968 103.485 74.2781 103.377 74.7C103.001 76.1265 102.786 77.6334 102.464 79.3612ZM100.153 46.0697C100.457 47.7172 100.726 49.2241 101.03 50.9519C102.302 48.8624 101.962 47.0944 100.153 46.0697ZM107.158 87.4179C106.979 87.3978 106.782 87.3576 106.602 87.3375C106.423 88.6234 106.19 89.9092 106.065 91.1951C106.047 91.4161 106.405 91.6974 106.585 91.9385C106.817 91.6773 107.265 91.4362 107.265 91.175C107.283 89.9293 107.194 88.6636 107.14 87.4179H107.158ZM100.69 17.0777C100.565 16.8768 100.457 16.6558 100.332 16.4549C99.6867 16.6759 99.0238 16.8165 98.4326 17.1581C98.343 17.2184 98.6117 18.0622 98.7909 18.9261C99.5971 18.1426 100.135 17.6202 100.672 17.0777H100.69ZM114.557 51.0926C114.79 51.2332 115.005 51.3939 115.238 51.5346C115.829 50.4095 116.403 49.3044 116.994 48.1793C116.815 48.0588 116.653 47.9583 116.474 47.8377C115.829 48.9227 115.202 50.0076 114.557 51.0926ZM104.022 44.1811C104.166 44.1409 104.291 44.1007 104.435 44.0606C104.417 42.9555 104.632 41.7902 103.772 40.9464L103.306 41.087C103.539 42.1117 103.772 43.1363 104.022 44.161V44.1811ZM129.302 23.3061C130.789 22.2613 131.13 21.5983 130.682 20.1517C130.18 21.2969 129.786 22.2011 129.302 23.3061Z" fill="white"/>
<path d="M446.869 131.699C446.457 132.202 446.045 132.664 445.651 133.146C445.024 133.91 444.451 134.09 443.358 133.97C441.226 133.769 439.04 134.171 436.89 134.552C433.701 135.115 430.548 135.858 427.376 136.521C426.803 136.642 426.14 136.582 425.692 136.903C424.402 137.827 423.381 137.225 422.36 136.421C421.339 135.597 421.5 134.432 421.625 133.247C421.733 132.141 421.733 131.036 421.787 129.931C421.787 129.69 421.715 129.369 421.822 129.208C423.524 126.717 424.169 123.783 424.707 120.79C424.886 119.846 425.424 118.961 425.531 118.017C425.621 117.254 425.316 116.43 425.227 115.948C425.836 113.818 426.481 111.909 426.929 109.92C427.287 108.273 427.394 106.565 427.663 104.877C428.075 102.265 428.613 99.6737 428.917 97.0417C429.025 96.1778 428.595 95.2134 428.344 93.9275C428.649 92.702 429.258 91.0143 429.473 89.2663C429.616 88.101 429.186 86.8353 429.025 85.6298C428.971 85.2078 428.774 84.585 428.953 84.3841C429.795 83.4398 429.58 82.3549 429.634 81.1896C429.759 78.7384 430.243 76.3274 430.566 73.8964C430.637 73.3941 430.619 72.8918 430.727 72.3895C431.139 70.2598 431.569 68.1502 431.999 66.0205C431.999 65.9803 432.053 65.9201 432.035 65.8799C431.408 62.3036 434.077 59.531 433.916 55.9949C433.844 54.5885 434.615 53.162 434.901 51.7154C435.027 51.0926 435.009 50.3492 434.83 49.7263C433.988 46.8734 432.895 44.0806 432.25 41.1875C431.82 39.2386 432.088 37.1089 431.82 35.0998C431.354 31.5235 430.691 27.9874 430.154 24.4312C429.813 22.2211 429.544 19.991 429.258 17.7608C429.007 15.8722 428.917 13.9435 428.523 12.095C428.129 10.3069 427.448 8.57904 426.821 6.61008C427.394 6.0877 427.95 5.42468 428.631 5.00276C428.989 4.78176 429.777 4.76167 429.992 5.04295C430.978 6.30871 432.088 5.80642 433.092 5.3845C434.991 4.60093 436.854 3.71691 438.664 2.69225C440.867 1.44658 442.014 1.88859 442.767 4.52057C443.447 6.93154 443.86 9.48316 444.791 11.7535C446.224 15.2494 446.493 18.9864 447.067 22.6832C447.228 23.7481 447.622 24.7527 447.909 25.7974C448.052 25.8376 448.195 25.8778 448.357 25.8979C449.002 24.9134 449.647 23.9289 450.274 22.9444C450.506 22.5828 450.65 22.0805 450.954 21.8595C453.857 19.9307 455.559 16.6558 457.906 14.1243C460.11 11.7535 462.188 9.24206 464.266 6.73063C465.27 5.50505 466.309 4.25938 466.989 2.8128C467.599 1.52694 468.548 1.32603 469.516 1.12511C469.892 1.04475 470.716 1.60731 470.788 2.00914C471.128 4.09865 472.741 5.08313 473.744 6.5699C475.41 9.06124 476.091 10.7891 474.353 13.8028C473.404 15.4503 472.866 17.4193 473.171 19.5691C473.26 20.2723 472.812 21.1161 472.472 21.8193C471.881 23.0047 471.272 24.1901 470.519 25.2349C468.817 27.6056 466.918 29.8157 465.305 32.2669C463.693 34.7381 462.027 37.2696 460.97 40.0623C459.751 43.2569 457.727 45.6679 455.863 48.2798C455.093 49.3647 454.376 50.5099 453.678 51.6752C453.176 52.499 452.244 52.6999 451.868 53.8853C451.331 55.5729 450.076 56.9392 449.324 58.5666C448.858 59.5511 448.679 60.7365 448.554 61.8817C448.357 63.5693 448.572 65.3575 448.159 66.9447C447.443 69.6972 447.891 72.4498 447.873 75.1822C447.855 77.1713 447.729 79.1402 448.213 81.2096C448.769 83.5403 448.572 86.112 448.607 88.5832C448.643 90.3914 448.41 92.2198 448.5 94.028C448.625 96.6198 449.001 99.1915 449.163 101.783C449.252 103.27 449.037 104.797 449.091 106.284C449.324 112.613 448.554 118.861 447.998 125.109C447.837 126.958 447.138 128.726 446.744 130.554C446.672 130.916 446.816 131.358 446.869 131.679V131.699ZM446.708 48.8222C446.834 48.8222 446.941 48.8021 447.067 48.782C446.117 46.7729 447.21 45.4067 447.962 43.94C448.249 43.3774 448.661 42.8551 448.822 42.2322C448.966 41.7098 448.858 41.087 448.858 40.5044C447.819 41.4888 446.887 42.3327 446.565 43.4176C446.117 44.9245 446.063 46.5921 445.938 48.2195C445.938 48.4003 446.439 48.6213 446.726 48.8222H446.708Z" fill="white"/>
<path d="M306.764 33.7536C305.868 33.7938 305.796 34.4568 305.904 35.5619C305.993 36.4459 305.563 37.3701 305.366 38.2943C304.99 40.0423 304.632 41.7902 304.291 43.4176C303.252 43.4176 302.374 43.5181 301.514 43.4176C298.54 42.9957 295.584 42.4733 292.628 42.0112C292.054 41.9309 291.481 41.971 290.89 41.9509C290.621 41.9509 290.263 42.1117 290.119 41.971C288.453 40.4843 286.572 41.7099 284.816 41.3884C283.849 41.2076 283.616 41.8706 283.616 42.8551C283.616 44.4624 283.437 46.0898 283.455 47.6971C283.455 49.0834 283.723 50.4697 283.741 51.8761C283.777 54.2469 283.652 56.6378 283.687 59.0086C283.687 60.2141 283.992 61.4196 283.992 62.625C283.992 64.1319 283.795 65.6187 283.795 67.1255C283.795 68.331 283.938 69.5566 284.01 70.7621C284.01 70.9027 284.153 71.0434 284.135 71.184C283.813 73.4744 283.455 75.785 283.15 78.0754C283.078 78.658 283.15 79.2608 283.168 79.8635C283.168 80.2051 283.311 80.5667 283.275 80.8882C283.025 82.9375 283.634 85.1074 282.541 87.0362C282.433 87.217 282.63 87.6389 282.738 87.9403C282.971 88.6033 283.472 89.2462 283.472 89.9092C283.472 92.9029 283.329 95.8965 283.204 98.87C283.078 101.944 282.863 104.998 282.792 108.072C282.774 108.876 283.204 109.679 283.258 110.483C283.311 111.005 283.007 111.568 282.989 112.11C282.953 113.075 282.971 114.019 282.989 114.983C283.025 116.45 282.487 117.394 281.161 117.716C280.91 117.776 280.713 118.017 280.552 118.138C279.137 116.972 277.703 116.249 275.948 116.993C275.446 117.193 274.819 117.053 274.263 117.073C271.899 117.173 269.659 118.519 267.204 117.836C266.631 117.676 265.968 118.057 265.341 118.077C264.714 118.077 263.711 118.238 263.496 117.856C263.066 117.113 262.976 116.068 262.887 115.144C262.707 113.155 263.406 111.307 263.603 109.358C263.872 106.766 264.051 104.174 264.284 101.582C264.463 99.6536 264.66 97.7047 264.857 95.7759C265.144 93.0234 265.467 90.291 265.735 87.5385C266.058 84.4645 266.362 81.3905 266.631 78.2964C266.918 74.8005 267.169 71.2845 267.402 67.7685C267.67 63.5693 267.939 59.3702 268.136 55.1711C268.262 52.8003 268.53 50.3894 268.244 48.0788C267.975 45.8487 269.014 43.7592 268.423 41.5692C268.351 41.2879 268.297 41.0067 268.208 40.6852C264.015 41.5893 259.877 42.4733 255.881 43.3373C253.857 41.7701 253.033 39.4797 252.889 36.9281C252.782 34.9591 253.015 32.95 253.104 30.9609C253.158 29.9564 253.23 28.9518 253.319 27.9472C253.588 24.9737 253.911 21.98 254.161 19.0065C254.269 17.7207 254.233 16.5754 252.8 15.9526C251.599 15.4302 251.635 13.3407 252.388 12.1553C253.194 10.9097 254.52 10.7891 255.505 10.0055C255.738 9.82472 256.705 10.2065 256.795 10.5078C257.476 12.8786 259.447 12.9992 260.952 13.0594C264.123 13.18 267.33 12.738 270.519 12.4969C271.988 12.3964 273.457 12.3362 274.891 12.075C277.9 11.5526 280.893 10.6284 283.92 10.3672C286.769 10.1261 289.564 9.10143 292.538 9.78454C294.276 10.1864 296.193 9.54344 298.021 9.56353C300.762 9.56353 303.503 9.6439 306.226 9.8649C307.964 10.0055 309.093 11.8138 309.003 13.7827C308.806 18.243 307.767 22.5024 306.746 26.7819C306.549 27.5856 306.674 28.4696 306.585 29.3134C306.513 30.0769 306.244 30.8203 306.244 31.5838C306.244 32.2267 306.531 32.8696 306.728 33.7135L306.764 33.7536ZM279.782 39.0377C279.603 39.0377 279.423 39.0377 279.244 39.0377C279.531 43.2971 279.818 47.5766 280.14 51.8359C280.14 51.9967 280.498 52.1172 280.749 52.278C281.179 49.1638 280.534 40.4441 279.782 39.0176V39.0377ZM305.617 19.1271C305.707 17.2385 305.868 15.6914 305.778 14.1645C305.778 13.8631 304.829 13.4814 304.291 13.4211C304.04 13.401 303.449 14.1243 303.503 14.3654C303.843 15.7919 304.309 17.1782 304.757 18.5846C304.793 18.685 304.972 18.7252 305.599 19.107L305.617 19.1271ZM271.289 59.3903C270.429 62.8661 270.376 68.552 271.289 69.2351V59.3903ZM281.072 14.2247C281.072 14.2247 281.072 14.4056 281.072 14.506C281.95 14.727 282.845 15.0485 283.741 15.149C284.046 15.1891 284.386 14.6467 284.709 14.3855C284.35 14.1042 283.974 13.5818 283.616 13.6019C282.756 13.6622 281.914 14.0037 281.072 14.2247ZM293.344 22.5426C293.774 23.6878 295.082 23.8686 296.623 22.8239C295.369 22.7234 294.437 22.6431 293.344 22.5426ZM256.437 28.2084C256.598 28.2084 256.759 28.2486 256.938 28.2486C257.53 27.1837 257.565 26.0988 256.67 24.7527C256.58 26.0988 256.526 27.1436 256.455 28.2084H256.437ZM268.584 97.3632C268.584 97.3632 268.423 97.3632 268.333 97.3632C268.1 97.9458 267.778 98.5084 267.67 99.1111C267.617 99.4326 267.921 99.8545 268.064 100.216C268.262 99.9349 268.62 99.6938 268.638 99.3924C268.692 98.7294 268.602 98.0463 268.584 97.3833V97.3632ZM291.607 22.0604C291.445 21.1965 291.338 20.7143 291.194 19.9106C290.603 20.5134 290.245 20.8951 289.689 21.4778C290.406 21.6988 290.854 21.8193 291.607 22.0403V22.0604Z" fill="white"/>
<path d="M481.448 77.6736C481.699 77.1311 482.111 76.6288 482.201 76.0461C482.828 71.7064 483.383 67.3666 483.938 63.0269C484.046 62.1429 484.028 61.2387 484.1 60.3346C484.261 58.446 484.476 56.5574 484.583 54.6688C484.673 53.1419 484.548 51.5948 484.637 50.0679C484.942 45.1254 485.39 40.1829 485.587 35.2404C485.784 30.4386 486.572 25.7572 487.163 21.0358C487.611 17.4595 487.414 13.7827 487.576 10.1462C487.665 8.19731 487.826 6.24844 488.131 4.31966C488.185 3.93793 489.045 3.59637 489.564 3.45573C490.263 3.27491 491.015 3.35527 491.732 3.27491C493.022 3.13427 494.348 3.15436 495.584 2.79271C497.429 2.25024 499.347 1.68768 501.013 0.68311C502.876 -0.462103 504.686 0.0803664 506.531 0.241098C507.445 0.321464 508.072 2.08951 507.964 3.61646C507.767 6.42927 507.588 9.22198 507.337 12.0348C507.033 15.3901 506.621 18.7453 506.334 22.1207C506.083 25.054 506.065 28.0276 505.707 30.9609C505.169 35.4413 504.417 39.9016 503.79 44.382C503.539 46.1702 503.324 47.9784 503.091 49.7665C502.769 52.3583 502.446 54.93 502.106 57.5218C501.694 60.6762 501.335 63.8506 500.798 66.9849C500.583 68.2306 499.902 69.3758 499.49 70.6014C499.311 71.1036 499.167 71.6863 499.203 72.2087C499.4 75.9859 498.63 79.5822 497.609 83.1384C497.429 83.7613 497.609 84.5649 497.304 85.0471C496.731 85.9914 495.889 86.4736 494.742 86.333C493.685 86.2124 492.628 86.3932 491.553 86.4535C491.284 86.4535 490.998 86.6745 490.765 86.6143C488.436 85.911 487.558 87.8197 486.608 89.5275C485.909 90.7933 485.228 90.8937 484.261 89.8892C484.01 89.628 483.634 89.407 483.311 89.407C482.326 89.407 480.875 88.0407 480.964 86.9156C481.09 85.0672 481.43 83.2389 481.538 81.3905C481.609 80.1448 481.448 78.879 481.412 77.6334L481.448 77.6736Z" fill="white"/>
<path d="M475.93 128.806C476.664 126.375 477.345 123.924 478.133 121.513C478.581 120.167 479.101 118.841 479.782 117.635C480.713 116.008 481.806 114.481 482.863 112.954C483.132 112.592 483.58 112.371 483.956 112.13C484.762 111.588 485.658 111.166 486.393 110.543C487.647 109.478 488.847 109.699 489.528 111.367C490.209 113.014 491.087 114.381 492.592 115.164C492.932 115.345 493.273 115.787 493.362 116.169C493.756 117.836 494.312 119.544 494.348 121.232C494.383 123.08 493.667 124.828 492.95 126.576C492.162 128.505 490.979 129.952 489.671 131.237C487.826 133.066 486.178 135.336 483.562 135.939C483.132 136.039 482.738 136.361 482.362 136.622C480.337 137.988 479.262 137.426 477.847 135.477C476.521 133.648 476.055 131.358 475.912 128.846L475.93 128.806Z" fill="white"/>
</g>
<defs>
<clipPath id="clip0_133_325">
<rect width="508" height="145" fill="white"/>
</clipPath>
</defs>
</svg>
