<svg width="508" height="146" viewBox="0 0 508 146" fill="none" xmlns="http://www.w3.org/2000/svg">
<path d="M52.9432 70.9383C50.6499 75.0571 49.6466 79.5777 49.7541 84.4197C49.8437 88.2973 49.0016 88.6791 45.5975 89.9649C44.2 90.4873 42.6772 90.5476 41.3155 91.1101C39.2731 91.954 37.3202 93.0791 35.3315 94.1038C35.1165 94.2243 34.9552 94.5257 34.8119 94.7869C34.2027 95.9723 33.3248 95.9723 32.3753 95.4097C31.5511 94.9074 30.7807 94.3248 30.2074 93.923C29.8311 91.7933 29.4907 89.8243 29.1145 87.8553C29.0607 87.5941 28.7024 87.4133 28.4874 87.1923C28.2903 87.4937 27.932 87.775 27.8962 88.0964C27.5558 90.6681 27.3408 93.2599 26.9824 95.8316C26.6779 98.1221 26.1762 100.372 25.8716 102.663C25.6925 104.069 25.7641 105.516 25.6566 106.962C25.585 107.947 25.4416 108.931 25.3341 109.916C24.9758 113.07 24.4742 116.204 24.3308 119.379C24.2054 122.071 24.5996 124.804 24.5279 127.516C24.4742 129.505 24.0621 131.494 23.7754 133.463C23.65 134.246 23.3633 134.99 23.2379 135.773C22.9513 137.582 22.8796 139.45 22.4317 141.198C22.2525 141.861 21.3567 142.524 20.6759 142.765C19.4755 143.187 18.1497 143.167 16.9314 143.529C14.9964 144.131 13.1152 145.036 11.1623 145.518C10.0694 145.779 8.8511 145.397 7.70445 145.397C5.96657 145.397 4.33618 144.835 2.68788 144.352C0.806662 143.81 0.0900084 142.263 0.842495 140.314C0.91416 140.133 1.00374 139.932 0.985826 139.731C0.896244 137.24 0.806662 134.729 0.681248 132.237C0.609582 130.63 0.502084 129.043 0.394586 127.456C0.251256 125.306 -0.0533223 123.136 0.000426696 120.986C0.0900084 117.309 0.412503 113.633 0.627499 109.936C0.752913 107.706 0.734997 105.455 0.932077 103.245C1.09332 101.457 1.55915 99.6892 1.77414 97.9011C2.15039 94.8472 2.43705 91.7933 2.72371 88.7193C2.77746 88.1567 2.5983 87.554 2.52663 86.9713C2.4908 86.7302 2.32955 86.3887 2.41913 86.2681C3.61953 84.6407 3.06412 82.8124 3.09995 81.0042C3.13579 78.5731 3.52995 76.1219 3.78078 73.6909C3.90619 72.5457 4.08535 71.4004 4.17493 70.2351C4.51535 65.815 4.55118 61.3547 5.24992 57.015C5.98449 52.3939 5.76949 47.7729 6.09198 43.1519C6.30698 39.9975 6.53989 36.8632 6.82655 33.729C6.93405 32.4632 7.32821 31.318 8.79735 31.1372C9.03026 31.6194 9.31693 32.2221 9.60359 32.8249C9.78275 32.6842 9.96191 32.5235 10.1411 32.3828C10.2486 32.0815 10.374 31.7801 10.4815 31.4787C10.7861 30.6952 11.1265 30.434 11.7535 31.2175C12.7927 32.5034 13.5631 32.3226 14.1902 30.7153C14.2977 30.4541 14.4589 30.1326 14.656 30.0321C15.9101 29.4897 17.2001 28.5052 18.4363 28.6056C21.088 28.8066 23.2738 27.1992 25.7462 26.7974C26.7316 26.6367 27.5916 25.5919 28.5232 24.9892C29.5803 24.3061 30.6553 23.6632 31.7124 23.0202C32.859 22.317 33.4323 23.2613 33.8444 24.1253C34.3998 25.2906 34.776 26.5362 36.2094 26.7171C36.3706 26.7371 36.5677 27.4604 36.5677 27.8623C36.5139 29.4093 36.1914 30.9764 36.3169 32.5034C36.4781 34.3719 37.141 36.2002 37.3381 38.0888C37.6247 40.7208 37.6606 43.393 37.8756 46.045C38.0547 48.3154 38.3772 50.5455 38.5743 52.8158C38.6281 53.3784 38.4668 53.9811 38.4489 54.5638C38.4489 54.8652 38.4489 55.2067 38.5743 55.4478C38.9506 56.151 39.3805 56.8341 39.7926 57.5172C40.3301 56.8944 41.0289 56.3921 41.3693 55.6487C42.4801 53.1976 43.5371 50.7062 44.433 48.1546C45.3646 45.4423 46.0454 42.6295 46.9233 39.877C47.5683 37.8678 48.3925 35.9189 49.1091 33.9299C49.4316 33.0459 49.7004 32.1417 50.0229 31.2778C50.7037 29.4294 51.3487 27.5207 52.1728 25.7527C52.4416 25.1901 53.1761 24.7682 53.7853 24.5673C57.5836 23.2613 61.3997 21.9956 65.2338 20.7901C66.273 20.4686 67.3659 20.3882 68.4229 20.1672C69.3188 19.9663 70.2146 19.5444 71.1104 19.5444C71.7912 19.5444 72.705 19.8659 73.0991 20.4284C73.5829 21.1115 73.8158 22.1563 73.8337 23.0604C73.8516 25.3709 73.7083 27.6614 73.6008 29.9719C73.547 31.0367 73.4037 32.0815 73.332 33.1262C73.2066 34.8139 73.0991 36.4815 73.0095 38.1692C72.8483 41.4441 72.7229 44.719 72.5258 47.9738C72.3108 51.7711 71.9883 55.5885 71.7912 59.3857C71.6658 61.6762 71.63 63.9666 71.63 66.257C71.63 67.4022 71.8271 68.5474 71.8987 69.6927C71.9346 70.3959 71.8271 71.0991 71.8629 71.7822C71.9525 73.1082 72.1496 74.4142 72.2212 75.7402C72.3108 77.4279 72.3825 79.1156 72.3108 80.7831C72.1854 84.0179 71.8808 87.2325 71.7554 90.4672C71.6121 94.3851 71.7016 98.3029 71.5046 102.201C71.3433 105.315 70.8417 108.409 70.5371 111.523C70.34 113.532 70.125 115.541 70.0713 117.55C69.9817 121.026 70.0713 124.502 69.9817 127.958C69.9279 130.248 69.8204 132.579 69.4442 134.809C69.3008 135.653 68.4229 136.657 67.6884 136.959C66.1297 137.562 64.3918 137.642 62.7793 138.104C61.2385 138.566 59.8231 138.767 58.1927 138.285C56.9565 137.923 55.5232 138.506 54.1795 138.566C52.6924 138.626 51.2053 138.566 49.7362 138.566C48.8941 138.566 47.9266 137.32 47.9266 135.794C47.9266 133.744 48.1775 131.675 48.2671 129.625C48.3208 128.42 48.2133 127.214 48.2312 126.009C48.2491 124.422 48.285 122.814 48.4104 121.227C48.5 119.921 48.8225 118.656 48.8941 117.35C49.0375 115.039 49.0733 112.729 49.1629 110.398C49.1629 110.137 49.1091 109.855 49.2166 109.655C50.3633 107.304 49.987 104.752 50.0229 102.261C50.0587 99.3276 49.9512 96.3942 49.987 93.4609C49.987 92.8983 50.3812 92.3558 50.4708 91.7732C50.847 89.543 51.4382 87.3129 51.4562 85.0827C51.4562 83.3749 52.5491 82.1494 52.5132 80.4818C52.4774 78.8343 52.6386 77.1466 52.8357 75.4991C52.997 73.9922 53.3015 72.5256 53.5524 71.0388C53.3911 70.9986 53.212 70.9785 53.0507 70.9383H52.9432ZM12.094 103.386C13.3839 97.3787 13.4735 95.2892 12.309 93.722C12.4881 97.1577 11.3236 100.232 12.094 103.386ZM27.8066 45.0605C27.6633 45.0605 27.5199 45.0605 27.3945 45.0405C26.1583 46.8286 26.015 50.5254 27.3945 51.8916C27.5378 49.4606 27.6812 47.2706 27.8245 45.0605H27.8066ZM52.8536 33.3472C53.7495 33.4276 54.1257 33.086 54.269 32.1417C54.3765 31.4787 54.6453 30.8157 54.9678 30.2531C55.344 29.57 55.8636 28.9673 56.3294 28.3445C56.2219 28.1636 56.0965 28.0029 55.989 27.8221C55.3798 28.244 54.5019 28.5052 54.2153 29.1079C53.624 30.3536 53.3374 31.8002 52.8536 33.3472ZM70.0175 75.2781C69.8383 72.2443 69.6771 69.4717 69.5338 66.6789C69.3367 66.6789 69.1575 66.699 68.9604 66.7191C68.9604 67.4022 68.8171 68.1255 68.9963 68.7484C69.3546 70.0342 69.3367 71.2196 68.9604 72.5256C68.6917 73.4498 68.8529 74.5146 70.0354 75.2781H70.0175ZM31.9632 48.9784C31.8019 48.9784 31.6228 48.9784 31.4615 48.9784C31.3003 50.3647 31.0853 51.751 31.0315 53.1373C31.0315 53.4186 31.6049 53.7401 31.9094 54.0414C32.1244 53.7601 32.5365 53.4387 32.5007 53.1775C32.3753 51.7711 32.1603 50.3647 31.9632 48.9583V48.9784ZM60.0919 41.6249C58.2465 43.413 57.9956 45.4423 59.5902 46.688C59.7514 44.9601 59.9127 43.3729 60.0919 41.6249ZM37.5531 66.0561C38.1085 65.5538 38.5027 65.3328 38.6818 64.9913C38.8789 64.5693 39.1118 63.8461 38.9326 63.5849C38.6639 63.183 38.0547 63.0625 37.5889 62.8415C37.4814 63.3237 37.3023 63.8059 37.2843 64.3082C37.2843 64.7703 37.4277 65.2525 37.5531 66.0762V66.0561ZM10.5173 51.5702C11.4311 49.4405 9.03026 49.0186 9.11985 47.4313C8.47486 49.2396 9.15568 50.4852 10.5173 51.5702ZM28.3441 64.5292C26.9466 65.8753 27.5737 66.699 28.8637 68.5073L29.2399 68.4068C28.9532 67.2013 28.6845 65.9757 28.3441 64.5292ZM58.8377 35.9189C60.1098 36.2806 60.3964 35.2358 60.7906 34.4924C60.916 34.2513 60.701 33.7692 60.6473 33.3874C60.3068 33.508 59.8052 33.5281 59.6619 33.7892C59.3214 34.4121 59.1244 35.1354 58.8556 35.9189H58.8377ZM3.90619 124.603C3.97786 125.567 4.06744 126.491 4.15702 127.717C4.99909 126.993 5.48283 126.551 6.02032 126.089C5.28575 125.567 4.67659 125.125 3.90619 124.583V124.603ZM7.8657 140.917C8.8511 142.183 10.4994 142.122 11.4131 140.917H7.8657ZM58.8735 52.3939C58.999 52.3939 59.1244 52.3939 59.2498 52.3939V48.2551C59.1244 48.2551 58.999 48.2551 58.8735 48.2551V52.3939ZM60.9339 85.2434C61.0235 85.0626 61.1131 84.8818 61.2027 84.701C60.7727 84.2791 60.3427 83.8772 59.6798 83.2544C59.5006 84.1183 59.3752 84.701 59.2139 85.5046C59.9485 85.4042 60.4323 85.3238 60.9339 85.2434ZM18.293 124.462C18.938 124.804 19.5651 125.165 20.443 125.647C20.1026 124.02 19.8876 123.919 18.293 124.462ZM51.7787 35.9993C51.9757 36.0395 52.1549 36.0998 52.352 36.1399C52.6028 35.6176 52.8895 35.1153 53.0866 34.5728C53.1403 34.4121 53.0149 34.0504 52.8716 33.9299C52.7461 33.8294 52.352 33.9098 52.3162 34.0102C52.1012 34.6532 51.9578 35.3363 51.7787 35.9993ZM55.7203 64.268L55.989 63.9465C55.4157 63.2433 54.8424 62.5602 54.1078 61.6762C54.0003 62.3593 53.9286 62.7611 53.8749 63.0826C54.5557 63.5246 55.129 63.9063 55.7023 64.268H55.7203ZM4.38993 105.496C4.56909 105.516 4.74826 105.536 4.92742 105.556C5.03492 104.23 5.14242 102.904 5.24992 101.578C5.14242 101.578 5.017 101.538 4.9095 101.518C4.74826 102.844 4.56909 104.149 4.40785 105.476L4.38993 105.496ZM26.1225 80.1603C25.9254 80.6626 25.6925 81.185 25.5133 81.7274C25.4237 82.0288 25.3879 82.3905 25.4237 82.7119C25.4237 82.7722 25.9075 82.9329 25.9791 82.8325C26.212 82.5713 26.4987 82.1895 26.4808 81.8681C26.4629 81.2854 26.2479 80.7028 26.1225 80.1402V80.1603ZM8.99443 45.7838C9.13776 45.8039 9.28109 45.824 9.42442 45.8441C9.56775 45.2816 9.74692 44.6989 9.78275 44.1162C9.78275 43.9756 9.24526 43.8149 8.72569 43.5336C8.83318 44.5382 8.90485 45.161 8.97652 45.7637L8.99443 45.7838Z" fill="white"/>
<path d="M382.245 96.0527C382.138 96.8362 382.084 97.2782 382.013 97.7001C381.439 101.417 380.848 105.114 380.328 108.831C380.221 109.594 380.525 110.418 380.454 111.202C380.149 114.316 379.755 117.41 379.433 120.504C379.307 121.75 379.271 122.995 379.182 124.241C378.985 126.772 378.967 129.344 377.318 131.454C376.369 132.679 375.276 132.78 374.147 132.278C371.764 131.233 369.471 130.972 367.142 132.358C366.891 132.499 366.515 132.499 366.228 132.458C365.01 132.217 364.007 132.78 362.878 133.182C361.301 133.764 359.545 133.784 357.879 133.925C357.646 133.925 357.145 133.222 357.163 132.88C357.27 130.69 357.485 128.5 357.664 126.31C357.825 124.281 357.915 122.232 358.166 120.203C358.381 118.414 358.775 116.646 359.133 114.898C359.528 112.97 360.226 111.182 360.226 109.112C360.226 107.284 360.764 105.455 361.122 103.647C361.642 101.035 362.251 98.4636 362.77 95.8517C363.182 93.8024 363.433 91.733 363.863 89.6837C364.472 86.7704 365.171 83.8571 365.834 80.964C365.87 80.7831 366.067 80.6023 366.049 80.4215C365.655 75.5594 367.536 71.0388 367.644 66.257C367.697 64.0068 368.611 61.7967 368.593 59.6469C368.593 57.9793 369.238 56.4926 369.059 54.8853C369.023 54.5035 369.113 54.1017 369.167 53.72C369.399 52.1528 369.579 50.5656 369.901 49.0186C370.421 46.5674 370.815 44.056 371.693 41.7655C372.391 39.9372 372.248 38.2897 372.033 36.5016C372.141 36.5217 372.266 36.5418 372.374 36.5619C372.553 35.5573 372.678 34.5326 372.911 33.5481C373.162 32.5034 373.646 31.5189 373.843 30.4541C374.362 27.8221 374.792 25.17 375.222 22.5179C375.366 21.6339 375.509 20.7298 375.563 19.8458C375.67 17.4951 375.688 15.1243 375.831 12.7535C375.885 11.9297 376.064 11.0256 376.441 10.3224C376.978 9.33794 377.766 8.89593 378.608 10.0612C379.146 10.8046 379.63 10.7042 380.149 10.021C381.099 8.77538 382.156 8.09227 383.804 8.39364C384.718 8.55437 385.757 7.83108 386.725 7.48952C388.821 6.74614 390.917 6.04294 392.995 5.23928C394.697 4.59635 396.31 3.65206 398.048 3.18995C400.305 2.58721 402.545 2.80822 404.372 4.79727C404.551 4.99818 404.838 5.15892 405.071 5.15892C407.543 5.1991 409.407 6.96715 410.822 8.7151C411.736 9.84022 413.474 11.0658 413.097 13.3361C413.008 13.8786 413.599 14.5818 413.922 15.1846C415.57 18.359 417.361 21.433 418.849 24.6878C419.476 26.054 419.494 27.7618 419.816 29.3088C420.103 30.6148 420.461 31.9207 420.748 33.2267C420.855 33.6888 420.981 34.2513 420.855 34.6733C420.318 36.4413 420.479 38.0888 420.837 39.9372C421.178 41.7454 420.64 43.7345 420.604 45.6432C420.533 48.9784 418.866 51.5903 417.541 54.3629C417.003 55.488 416.699 56.7337 416.215 57.899C415.982 58.4615 415.48 58.8835 415.247 59.446C414.262 61.6762 413.456 64.0068 412.363 66.1566C411.718 67.4223 410.715 68.5073 409.765 69.552C407.722 71.8023 405.608 73.9721 403.548 76.2224C402.527 77.3475 401.559 78.5128 400.628 79.7384C400.323 80.1402 400.018 80.8434 400.126 81.2653C401.147 85.2836 401.953 89.4426 403.978 92.9787C404.874 94.5257 405.465 96.1129 406.146 97.7604C406.719 99.1668 407.758 100.352 408.081 101.96C408.78 105.315 409.138 108.851 410.41 111.905C411.592 114.718 410.535 117.993 412.327 120.484C411.879 122.111 411.7 123.919 410.947 125.346C409.89 127.375 407.597 127.255 405.895 128.179C403.853 129.304 401.828 130.429 399.768 131.514C398.711 132.077 397.618 132.74 396.489 132.92C395.934 133.001 395.217 132.137 394.644 131.594C394.178 131.173 393.837 130.59 393.73 130.027C393.515 128.962 393.354 127.898 393.067 126.853C392.655 125.426 392.135 124.02 391.687 122.593C391.275 121.267 390.881 119.941 390.559 118.595C389.896 115.782 389.412 112.889 388.606 110.137C387.889 107.686 387.011 105.255 385.882 103.024C384.987 101.256 384.001 99.6088 383.571 97.5796C383.464 97.0371 382.855 96.6353 382.245 95.912V96.0527ZM402.366 41.203C402.24 40.6605 402.133 40.1381 401.971 39.6158C401.022 36.7427 399.356 34.0906 396.256 34.6532C394.859 34.8943 393.443 35.4769 392.225 36.2605C391.186 36.9235 390.362 37.9281 390.272 39.6158C390.129 42.1473 389.609 44.6386 389.287 47.1701C389 49.5007 388.731 51.8514 388.498 54.2021C388.373 55.488 389.072 56.1711 390.003 55.7291C391.132 55.2067 392.225 54.5839 393.354 54.0213C395.056 53.1775 396.758 52.2734 398.496 51.53C400.502 50.6861 402.115 48.898 401.595 47.1902C401.093 45.5628 401.864 44.3573 401.953 42.971C401.989 42.3683 402.204 41.8057 402.348 41.203H402.366ZM382.765 43.3126C382.855 43.3729 382.962 43.413 383.052 43.4733C383.267 42.9308 383.518 42.4085 383.661 41.8459C384.897 36.6824 386.133 31.5189 387.316 26.3554C387.387 26.054 387.172 25.6924 387.083 25.3508C386.832 25.5718 386.438 25.7125 386.33 26.0138C385.882 27.1791 385.399 28.3645 385.166 29.5901C384.306 34.1509 383.553 38.7317 382.747 43.3126H382.765ZM372.624 57.5775C372.427 57.5574 372.212 57.5373 372.015 57.5172C371.908 58.2807 371.782 59.0442 371.693 59.8077C371.263 63.2835 370.833 66.7392 370.439 70.215C370.385 70.7173 370.492 71.2598 370.636 71.742C370.671 71.8625 371.299 71.963 371.334 71.8826C371.531 71.4205 371.711 70.9383 371.746 70.4361C372.015 67.0607 372.266 63.6853 372.499 60.31C372.571 59.4058 372.589 58.5017 372.642 57.5976L372.624 57.5775ZM369.131 79.5576C370.528 77.5685 370.636 75.2379 370.51 72.8671C369.292 74.8964 369.328 77.2671 369.131 79.5576ZM372.266 56.6935C373.932 54.604 372.875 52.0925 373.628 49.8423C373.413 49.8021 373.216 49.782 373.001 49.7418C372.75 52.0524 372.499 54.383 372.266 56.6935ZM381.636 33.3472C381.493 33.3472 381.35 33.3472 381.224 33.3472C381.081 35.2358 380.149 37.0441 380.955 39.0331C381.188 37.1244 381.421 35.2358 381.654 33.3271L381.636 33.3472ZM387.638 10.8649C386.169 10.4631 385.058 11.7087 385.47 13.3964C386.223 12.5124 386.904 11.7087 387.638 10.8649ZM375.509 37.8075C375.312 37.7673 375.115 37.7272 374.918 37.687C374.756 39.013 374.613 40.339 374.452 41.6651C374.524 41.6651 374.595 41.6852 374.667 41.7053C374.953 40.3993 375.222 39.1135 375.509 37.8075ZM374.398 44.8998L373.807 44.8194L373.395 48.2752C373.556 48.2953 373.717 48.3354 373.879 48.3555C374.058 47.2103 374.237 46.0651 374.398 44.8998ZM393.533 100.011C393.658 100.011 393.784 100.011 393.909 100.011C394.016 99.4883 394.267 98.9458 394.196 98.4636C394.16 98.2426 393.515 98.1422 392.727 97.8207C393.103 98.8454 393.318 99.428 393.533 100.011ZM385.614 59.2853C385.345 58.2405 385.184 57.5574 385.005 56.8542C384.27 57.8186 384.127 58.6022 385.614 59.2853Z" fill="white"/>
<path d="M330.61 12.3517C331.56 14.3006 332.545 14.5216 333.996 13.6174C334.534 13.2759 335.537 13.8786 336.325 14.0795C337.311 14.3407 338.278 14.8832 339.246 14.843C340.876 14.7426 342.309 15.0238 343.689 16.0083C344.244 16.4102 344.925 16.5709 345.552 16.8723C345.875 17.033 346.233 17.1535 346.484 17.4147C348.562 19.665 350.73 21.8549 352.647 24.2659C353.973 25.9335 354.976 27.9427 356.105 29.7911C356.732 30.8157 357.341 31.8806 357.968 32.9052C360.387 36.8633 361.928 41.1829 362.447 45.9446C362.68 48.014 363.003 50.1035 362.913 52.1729C362.698 57.5374 362.25 62.8817 361.91 68.226C361.82 69.5922 361.784 70.9585 361.695 72.3046C361.516 74.9165 361.319 77.5083 361.122 80.1201C360.889 83.154 360.566 86.1878 360.441 89.2216C360.333 91.7933 360.387 94.4052 359.222 96.6956C358.38 98.3431 357.395 99.9102 356.356 101.377C354.779 103.607 353.113 105.757 351.465 107.907C350.945 108.59 350.39 109.273 349.798 109.876C347.003 112.749 344.029 115.441 341.449 118.535C340.088 120.162 338.386 120.946 336.809 121.951C335.34 122.895 333.566 123.377 331.954 124.02C330.431 124.623 328.532 124.02 326.794 123.94C325.898 123.899 325.002 123.94 324.106 123.859C323.193 123.779 322.279 123.538 321.365 123.437C318.946 123.156 316.546 122.915 314.127 122.654C313.948 122.654 313.715 122.734 313.607 122.654C311.78 120.946 309.72 119.439 308.232 117.41C307.086 115.863 306.548 113.673 305.993 111.684C305.366 109.434 305.008 107.103 304.578 104.772C304.452 104.089 304.578 103.366 304.47 102.663C304.38 102.08 304.165 101.518 303.986 100.895C304.219 99.7093 304.47 98.3833 304.739 97.0773C304.882 96.4143 305.115 95.7714 305.258 95.1084C305.402 94.4855 305.563 93.8426 305.563 93.2198C305.509 90.6079 305.455 87.9759 305.294 85.364C305.187 83.4955 304.828 81.6471 304.775 79.7987C304.757 78.9749 305.33 78.1512 305.455 77.3073C305.85 74.7758 306.083 72.2242 306.513 69.7128C306.978 66.9402 307.588 64.1876 308.107 61.4351C308.501 59.3456 308.788 57.236 309.2 55.1666C309.648 52.8962 310.167 50.646 310.723 48.4158C311.278 46.1455 311.726 43.8149 312.514 41.6249C313.392 39.234 314.593 37.0039 315.65 34.6934C315.757 34.4724 315.901 34.2715 315.99 34.0304C317.603 29.6906 320.057 25.9335 322.512 22.1764C323.533 20.5892 324.393 18.8412 325.576 17.4348C327.045 15.6668 328.765 14.18 330.628 12.3517H330.61ZM325.361 72.6662C325.468 72.7064 325.593 72.7265 325.701 72.7667C325.629 75.2781 326.471 76.8251 328.191 76.8051C330.108 76.785 332.097 76.7046 333.907 76.0818C337.436 74.8763 339.192 71.4607 339.568 67.8041C339.998 63.6251 339.55 59.3054 339.246 55.0661C339.084 52.7958 338.404 50.6058 336.648 49.0989C336.074 48.5967 335.376 47.9939 334.731 48.7976C333.333 50.5656 331.81 52.2935 330.789 54.3026C329.535 56.7739 328.585 59.4661 327.797 62.1785C326.812 65.6141 326.149 69.1502 325.343 72.6662H325.361ZM330.485 110.498C329.428 110.539 328.424 109.996 328.12 111.784C327.923 113.01 325.611 113.592 324.823 112.769C323.748 111.624 323.085 111.664 321.885 113.07C323.085 113.311 324.214 113.552 325.343 113.773C326.65 114.035 327.958 114.356 329.284 114.477C329.607 114.497 330.18 113.834 330.27 113.392C330.467 112.528 330.395 111.603 330.449 110.519L330.485 110.498ZM309.97 69.9941C309.827 69.9941 309.684 69.9941 309.54 69.974C309.397 70.416 309.182 70.858 309.128 71.3402C308.931 73.2087 308.788 75.0772 308.627 76.9457C308.501 78.3923 308.358 79.8389 308.286 81.2854C308.286 81.5667 308.501 81.848 308.627 82.1293C308.842 81.8882 309.182 81.6873 309.272 81.3859C309.397 80.964 309.325 80.4818 309.361 80.0398C309.594 77.0462 309.845 74.0525 310.078 71.079C310.096 70.7374 310.006 70.3758 309.97 70.0141V69.9941ZM357.682 89.965C357.556 89.9248 357.431 89.8645 357.323 89.8243C356.642 92.0746 355.944 94.3047 355.263 96.555C358.524 95.3294 357.252 92.3157 357.682 89.965ZM352.307 30.3134C352.235 30.4742 352.145 30.655 352.074 30.8157C352.844 31.8203 353.597 32.845 354.421 33.7893C354.528 33.9098 355.012 33.6084 355.317 33.508C354.851 32.6441 354.493 31.6797 353.901 30.9363C353.561 30.5144 352.844 30.4943 352.307 30.3134ZM342.489 73.711C342.614 73.7512 342.757 73.7913 342.883 73.8315C344.818 71.8626 345.319 69.9137 343.689 69.2909C343.277 70.7776 342.883 72.2443 342.489 73.711ZM336.684 20.3481C337.83 20.7901 338.834 21.2321 339.873 21.5536C340.177 21.654 340.572 21.3928 340.912 21.3125C340.751 20.991 340.661 20.5892 340.428 20.3883C339.264 19.3234 338.045 19.3837 336.684 20.3481ZM337.293 78.8142C337.185 78.7137 337.078 78.6334 336.97 78.5329C335.734 79.0352 334.516 79.5375 333.28 80.0599C333.262 80.2005 333.226 80.3411 333.208 80.4818C333.817 80.7028 334.605 81.2854 335.017 81.0443C335.877 80.522 336.558 79.5978 337.311 78.8343L337.293 78.8142ZM332.778 113.03C332.885 113.191 332.993 113.351 333.1 113.492C334.749 112.266 336.379 111.021 338.027 109.795L337.794 109.413C336.128 110.619 334.462 111.824 332.796 113.03H332.778ZM355.155 58.2406L355.711 58.6625C355.836 58.3611 356.105 58.0196 356.069 57.7383C355.962 56.352 355.782 54.9857 355.639 53.5994C355.55 53.5994 355.46 53.5994 355.37 53.5994C355.299 55.1465 355.227 56.6935 355.173 58.2406H355.155ZM349.798 73.5502C349.942 73.5703 350.085 73.5904 350.21 73.6306C350.587 71.6817 350.981 69.7329 351.357 67.8041C351.214 67.7639 351.088 67.7438 350.945 67.7036C350.569 69.6525 350.175 71.6014 349.798 73.5502ZM313.518 100.131C313.375 100.192 313.249 100.232 313.106 100.292C313.321 101.216 313.5 102.14 313.769 103.044C313.822 103.225 314.252 103.406 314.414 103.326C314.593 103.245 314.808 102.783 314.736 102.623C314.378 101.759 313.93 100.955 313.518 100.131ZM312.192 66.5785C312.371 66.5785 312.55 66.6187 312.747 66.6388C313.357 65.3529 313.249 64.047 312.407 62.7009C312.335 63.9867 312.264 65.2927 312.192 66.5785ZM351.214 27.0184C351.035 27.0988 350.838 27.1591 350.658 27.2394C351.035 28.1837 351.411 29.108 351.769 30.0523C351.984 29.9518 352.181 29.8312 352.396 29.7308C352.002 28.8267 351.608 27.9226 351.214 27.0184ZM334.48 95.8116C334.39 95.691 334.319 95.5705 334.229 95.4499C333.208 96.1933 332.169 96.9568 331.148 97.7002C331.255 97.881 331.38 98.0417 331.488 98.2225C332.473 97.4189 333.477 96.6152 334.462 95.8116H334.48ZM314.629 107.163C314.647 107.485 314.664 107.786 314.7 108.108C315.292 108.027 315.883 107.947 316.456 107.826C316.456 107.826 316.402 107.103 316.384 107.103C315.811 107.103 315.22 107.143 314.647 107.183L314.629 107.163ZM327.063 55.7291C327.17 55.7894 327.296 55.8497 327.403 55.8899C327.815 54.825 328.209 53.7803 328.621 52.7154C327.224 53.278 327.367 54.6241 327.063 55.709V55.7291Z" fill="white"/>
<path d="M234.309 81.5868C234.901 82.7923 235.402 83.7969 235.886 84.7813C236.029 85.0827 236.334 85.4243 236.298 85.7056C236.155 87.1923 237.104 88.0161 237.785 88.9805C239.649 91.6124 240.15 94.8271 240.401 97.9413C240.58 100.292 240.401 102.783 239.38 105.094C238.43 107.244 238.018 109.715 236.961 111.804C235.367 114.979 233.521 117.972 231.55 120.866C229.526 123.839 227.233 126.471 224.832 129.023C223.201 130.751 221.607 132.519 219.887 134.146C219.224 134.769 218.328 135.11 217.486 135.432C215.336 136.256 213.742 138.526 211.251 138.466C211 138.466 210.749 138.667 210.499 138.767C208.367 139.651 206.217 140.475 204.138 141.479C202.257 142.363 200.465 143.468 198.638 144.473C196.327 145.739 193.926 146.583 191.4 145.518C190.379 145.096 189.393 144.332 188.623 143.448C186.831 141.399 185.04 139.33 183.535 137.019C182.764 135.834 182.639 134.126 182.191 132.679C181.994 132.016 181.743 131.394 181.51 130.751C181.313 130.188 180.901 129.585 180.955 129.043C181.367 125.467 180.435 122.131 179.736 118.736C179.503 117.651 179.915 116.867 180.758 116.586C181.385 116.385 182.227 116.405 182.8 116.727C183.66 117.189 184.323 118.153 185.183 118.635C186.957 119.6 188.82 118.997 190.612 118.615C192.367 118.234 194.087 117.651 195.789 117.008C196.793 116.626 197.671 115.762 198.674 115.381C202.598 113.894 206.199 111.744 209.495 108.971C211.251 107.505 212.487 105.536 212.344 102.783C212.577 102.743 212.81 102.703 213.401 102.623C213.401 100.995 213.598 99.2673 213.347 97.6198C213.025 95.5705 212.72 93.3001 211.717 91.6526C210.803 90.1659 210.642 88.1768 209.298 87.0718C208.187 86.1677 207.614 84.922 207.023 83.616C206.844 83.2142 206.306 83.0133 206.002 82.6517C205.428 81.9685 204.891 81.2252 204.335 80.4818C204.138 80.2206 203.995 79.879 203.762 79.658C201.738 77.5283 199.713 75.4187 197.671 73.3091C197.026 72.6461 196.183 72.184 195.682 71.4205C194.016 68.9091 192.188 66.478 190.934 63.7054C189.877 61.3346 189.322 58.5821 188.945 55.93C188.587 53.4588 188.712 50.8871 188.712 48.3756C188.712 47.13 188.963 45.8843 189.071 44.6386C189.107 44.1163 189.071 43.5738 189.071 43.0313C189.071 42.7299 188.874 42.3683 188.981 42.1674C190.45 39.4149 190.486 36.14 191.686 33.2669C192.959 30.2532 194.374 27.3801 196.345 24.8687C196.936 24.1052 197.384 23.2011 197.939 22.4175C200.053 19.4841 202.49 16.9325 205.106 14.5416C206.181 13.5572 207.363 12.9946 208.51 12.3517C212.129 10.3425 215.73 8.21284 219.528 6.74616C222.718 5.52058 226.265 5.13885 229.472 6.74616C231.156 7.59 232.428 9.4786 233.933 10.8046C234.363 11.1864 234.972 11.5078 235.51 11.5078C236.764 11.5078 238.914 13.1955 239.147 14.622C239.362 15.948 239.434 17.3143 239.559 18.6604C239.559 18.8412 239.523 19.1024 239.416 19.223C238.215 20.5892 238.574 22.2969 238.538 23.9444C238.448 27.4805 238.538 31.0367 238.09 34.5125C237.893 35.9591 237.606 37.3655 237.696 38.8322C237.767 39.9171 237.821 40.982 237.964 42.0468C238.09 43.0112 238.448 44.1163 237.499 44.6386C236.764 45.0405 235.707 45.3418 235.008 45.0405C232.124 43.7948 229.15 43.7144 226.158 43.9354C224.903 44.0158 223.685 44.3574 222.431 44.4578C219.905 44.6788 218.543 46.8889 217.289 48.7775C216.447 50.0432 216.286 52.193 216.465 53.8807C216.68 55.9903 217.361 58.12 218.167 60.0488C219.493 63.2634 221.428 66.0159 223.9 68.2863C227.716 71.8023 230.726 76.1018 233.306 80.7831C233.521 81.185 234.077 81.3457 234.327 81.5064L234.309 81.5868ZM229.723 35.3966C229.723 35.3966 229.633 35.3162 229.58 35.276C229.544 34.5326 229.544 33.7692 229.436 33.0459C229.311 32.2221 229.096 31.3984 228.917 30.5545C228.146 31.1372 227.215 31.7198 227.662 32.9856C228.397 35.1555 228.182 35.7984 226.229 36.7025C225.781 36.9034 225.405 37.3053 224.993 37.6267C225.047 37.7875 225.118 37.9482 225.172 38.129C226.767 38.3902 228.361 38.6514 230.171 38.9528C229.974 37.4861 229.848 36.4614 229.705 35.4167L229.723 35.3966ZM236.012 17.6759C234.704 17.0933 234.202 17.5554 234.184 18.7408C234.148 21.0714 234.077 23.4221 234.184 25.7527C234.22 26.6769 234.65 27.5609 234.901 28.4851C235.904 24.8887 235.08 21.2321 236.012 17.696V17.6759ZM222.037 70.2351C222.144 70.0543 222.27 69.8936 222.377 69.7128C222.001 69.1301 221.661 68.5073 221.248 67.9648C219.726 65.9155 218.185 63.8662 216.608 61.857C216.411 61.5958 216.035 61.5155 215.748 61.3547C215.73 61.7566 215.533 62.2789 215.694 62.5602C216.841 64.5292 217.952 66.5584 219.296 68.3465C219.958 69.2105 221.105 69.6123 222.019 70.215L222.037 70.2351ZM199.623 24.7883C199.767 24.9691 199.928 25.1499 200.071 25.3107C202.598 22.7791 205.142 20.2878 207.65 17.7161C207.901 17.4549 207.919 16.8723 208.044 16.4503C205.106 19.1627 201.791 21.2723 199.641 24.7682L199.623 24.7883ZM221.643 120.604C221.786 120.745 221.929 120.886 222.073 121.006C222.861 120.464 223.685 119.982 224.402 119.359C225.083 118.776 225.584 117.892 226.283 117.41C227.519 116.546 228.29 115.441 226.211 114.376C224.706 116.425 223.165 118.535 221.625 120.624L221.643 120.604ZM220.335 31.2175C219.403 32.2824 218.471 33.3272 217.576 34.4322C217.414 34.6331 217.343 35.1555 217.468 35.3765C217.594 35.5975 218.095 35.8185 218.274 35.718C219.654 34.9546 221.016 34.1509 222.323 33.2669C222.556 33.1061 222.736 32.5235 222.664 32.2422C222.61 32.0212 222.126 31.9007 221.804 31.7801C221.356 31.5993 220.89 31.4586 220.317 31.2376L220.335 31.2175ZM205.858 115.883C208.062 116.486 213.527 112.186 213.921 109.092C213.294 109.755 212.864 110.157 212.469 110.619C211.95 111.222 211.574 112.045 210.947 112.407C209.979 112.97 208.868 113.231 207.811 113.633C207.65 113.693 207.489 113.834 207.381 113.974C206.862 114.617 206.36 115.26 205.858 115.883ZM190.325 122.453C188.479 122.352 186.795 122.232 185.111 122.212C184.825 122.212 184.323 122.614 184.269 122.895C184.162 123.457 184.323 124.06 184.377 124.763C186.365 124.201 188.229 123.678 190.092 123.116C190.235 123.076 190.271 122.634 190.343 122.453H190.325ZM214.96 12.3115C218.274 12.0905 220.98 10.9855 223.578 9.41832C220.657 9.77997 217.719 10.0813 214.96 12.3115ZM196.183 122.071C196.954 123.98 197.617 125.627 198.262 127.275C198.584 126.732 198.656 126.23 198.674 125.728C198.674 125.145 198.71 124.542 198.638 123.96C198.531 123.156 198.531 122.071 198.083 121.689C197.742 121.388 196.775 121.93 196.183 122.071ZM193.568 37.1847C193.729 37.2651 193.89 37.3254 194.051 37.4057C195.682 35.1153 197.491 30.2732 196.703 29.0879C195.664 31.7801 194.607 34.4925 193.568 37.1847ZM205.733 130.751C206.45 130.168 207.202 129.826 207.507 129.224C207.847 128.541 206.199 125.828 205.464 125.507C205.464 126.973 205.464 128.46 205.464 129.967C205.464 130.108 205.554 130.248 205.715 130.771L205.733 130.751ZM210.391 33.7491C207.095 34.4724 205.984 36.0797 207.13 38.2094C208.241 36.6824 209.316 35.2157 210.391 33.7491ZM225.907 92.3156C226.588 90.7284 225.154 88.0362 223.882 88.0362C222.951 88.0362 222.843 88.7193 223.255 89.3019C224.025 90.3668 224.975 91.2709 225.907 92.2955V92.3156ZM236.28 107.545C236.8 104.973 237.248 102.703 237.714 100.412C237.588 100.372 237.463 100.332 237.337 100.292C236.621 102.301 235.904 104.31 235.134 106.48C235.367 106.701 235.725 107.043 236.28 107.545ZM219.206 113.211C219.313 114.999 219.421 116.747 219.546 118.595C221.553 116.867 221.356 114.477 219.206 113.211ZM226.319 28.4047C227.053 26.5362 227.77 24.6677 228.648 22.4376C226.91 23.3417 225.602 26.6568 226.319 28.4047ZM213.527 86.3887C213.365 86.5092 213.204 86.6499 213.043 86.7704C213.527 87.8955 213.992 89.0407 214.53 90.1458C214.691 90.4672 215.139 90.5878 215.444 90.8088C215.533 90.3668 215.838 89.7841 215.694 89.5229C215.049 88.4179 214.261 87.4334 213.527 86.3887ZM191.185 128.48C190.468 128.299 189.501 127.918 189.644 129.204C189.787 130.509 190.468 131.755 190.898 133.021C191.042 132.981 191.203 132.961 191.346 132.92C191.292 131.474 191.239 130.007 191.167 128.5L191.185 128.48ZM213.114 126.069C212.344 124.964 211.771 124.12 211.162 123.216C210.355 124.02 210.767 124.884 211.054 125.667C211.233 126.17 211.627 126.592 211.914 127.054C212.326 126.712 212.72 126.391 213.114 126.069ZM198.226 65.0515C197.043 64.268 195.986 63.5648 194.929 62.8616C194.84 63.0022 194.75 63.1228 194.643 63.2634C195.413 64.3885 196.183 65.5137 196.99 66.7191C197.402 66.1566 197.688 65.7748 198.208 65.0515H198.226ZM198.495 45.2414V38.7117C197.276 41.1628 197.294 44.1765 198.495 45.2414ZM223.165 106.52C222.986 106.661 222.825 106.781 222.646 106.922C222.933 108.027 223.219 109.132 223.524 110.338C224.885 109.534 224.455 108.469 224.276 107.645C224.187 107.203 223.56 106.882 223.165 106.52ZM237.069 99.3677H237.642C237.534 97.6801 237.445 95.9924 237.337 94.2846C237.158 94.2846 236.979 94.3047 236.8 94.3248C236.889 96.0125 236.961 97.7001 237.051 99.3677H237.069ZM227.071 121.75C225.405 122.031 224.097 123.598 224.151 125.326C225.172 124.08 226.014 123.056 227.071 121.75ZM200.501 139.209C200.412 138.988 200.34 138.787 200.25 138.566C199.229 139.068 198.208 139.551 197.187 140.053C197.276 140.294 197.366 140.535 197.456 140.776C198.477 140.254 199.48 139.731 200.501 139.209ZM206.539 120.323C206.933 121.046 207.274 121.689 207.757 122.614C208.098 121.428 208.331 120.584 208.564 119.74C207.901 119.921 207.292 120.102 206.521 120.303L206.539 120.323ZM206.467 65.6744C206.288 65.7949 206.109 65.9155 205.93 66.0159C206.45 66.8799 206.969 67.7237 207.489 68.5876C207.65 68.4671 207.811 68.3465 207.99 68.226C207.489 67.3822 206.987 66.5182 206.485 65.6744H206.467ZM231.049 95.6508C232.321 94.586 232.303 94.3851 231.049 93.1997V95.6508ZM208.008 134.809C207.399 135.251 206.79 135.693 206.181 136.135C206.27 136.276 206.342 136.396 206.432 136.537C207.023 136.055 208.259 136.617 208.008 134.809ZM218.238 20.2476C217.755 21.0714 217.396 21.6942 216.859 22.5983C218.125 21.9956 218.585 21.212 218.238 20.2476Z" fill="white"/>
<path d="M82.0391 20.6093C83.2933 20.9307 84.3145 20.991 85.1745 21.433C86.5719 22.1764 87.5036 21.3526 88.489 20.5691C88.8473 20.2878 89.2056 19.9462 89.4923 19.5846C91.8214 16.7115 95.1001 15.8275 98.1101 14.3809C98.8805 13.9992 99.615 13.517 100.368 13.075C102.285 11.9699 103.413 12.854 103.969 15.1042C105.008 19.3837 105.922 23.6832 106.853 28.0029C107.122 29.2285 107.158 30.4943 107.373 31.7399C107.462 32.3025 107.749 32.8249 107.928 33.3673C108.054 33.3673 108.179 33.3874 108.304 33.4075C108.699 32.3828 109.075 31.3582 109.451 30.3335C109.774 30.1728 110.239 30.0924 110.508 29.791C112.981 26.8979 115.793 24.2458 117.782 20.9709C119.466 18.1782 122.315 16.4302 123.265 13.0549C123.3 12.9142 123.39 12.7535 123.48 12.6731C125.737 10.9453 126.525 8.03201 128.048 5.72149C129.338 3.79271 130.18 3.91326 131.488 5.76167C133.226 8.21283 135.143 10.5233 136.971 12.9142C137.58 13.7179 138.225 14.5215 138.655 15.4458C138.852 15.8677 138.78 16.6914 138.547 17.1133C137.347 19.1627 135.985 21.1115 134.767 23.1609C133.244 25.7125 131.596 28.2038 130.377 30.9363C128.908 34.2313 126.848 36.9637 124.913 39.8569C123.336 42.2076 122.136 44.9199 120.882 47.5318C120.362 48.6167 120.255 49.9026 119.807 51.0478C119.574 51.6305 119.001 52.0323 118.606 52.5547C117.872 53.5592 117.03 54.5236 116.474 55.6488C115.668 57.2762 114.217 58.1602 113.285 59.4862C111.547 61.9977 109.989 64.7502 110.311 68.2662C110.419 69.5119 110.257 70.7977 110.222 72.0836C110.114 76.9055 110.024 81.7475 109.863 86.5695C109.827 87.4937 109.505 88.3978 109.326 89.3019C109.254 89.6837 109.129 90.0855 109.164 90.4672C109.308 93.1997 109.505 95.9321 109.63 98.6646C109.809 102.341 110.024 106.038 110.096 109.715C110.132 111.322 109.863 112.95 109.72 114.577C109.63 115.762 109.559 116.928 109.415 118.113C109.129 120.464 108.645 122.774 108.519 125.125C108.412 126.993 107.695 128.541 106.835 129.967C106.387 130.69 105.277 131.173 104.417 131.293C101.908 131.635 99.3821 131.735 96.8738 131.976C96.2647 132.036 95.6018 132.197 95.0643 132.499C93.0577 133.624 90.8539 133.684 88.7398 134.186C87.8082 134.407 86.9661 135.11 86.0345 135.372C84.9057 135.693 83.562 134.789 83.2574 133.704C83.1678 133.383 83.1858 133.001 83.2574 132.679C83.7412 130.469 84.2966 128.259 84.7266 126.029C85.1386 123.879 85.4074 121.709 85.712 119.56C85.927 117.972 86.0703 116.385 86.2674 114.798C86.7332 111.081 87.2886 107.364 87.629 103.627C88.0053 99.4481 88.3278 95.2691 88.3457 91.0499C88.3457 86.5293 88.6502 81.9886 89.0802 77.4681C89.3311 74.7356 90.0835 72.0635 90.5673 69.3511C91.1585 65.9557 91.7139 62.5602 92.2693 59.1648C92.3231 58.8634 92.3948 58.5218 92.3052 58.2606C91.4452 56.0707 90.4956 53.9209 89.7073 51.7108C89.349 50.7063 89.2773 49.561 89.0086 48.4962C88.3098 45.5628 87.629 42.6094 86.8228 39.7162C86.4107 38.2496 85.6403 36.9235 85.1745 35.4769C84.7086 34.0504 84.4578 32.5235 84.0278 31.0769C83.4187 28.9874 82.5766 26.9782 82.1108 24.8486C81.8241 23.5828 82.057 22.1965 82.057 20.6093H82.0391ZM94.4551 90.2462C94.4551 93.4408 92.8606 96.3741 93.631 99.9504C94.0251 99.3878 94.3476 99.1467 94.4193 98.8253C94.8135 97.1778 94.8493 95.3294 95.566 93.9029C96.4259 92.175 96.2289 91.2106 94.7955 90.3266C94.7597 90.3065 94.706 90.3065 94.4551 90.2462ZM92.2693 82.5311C92.4485 82.4909 92.6277 82.4708 92.8068 82.4306C93.1831 79.1959 93.5593 75.9612 93.9356 72.7265L93.3085 72.6059C92.8248 75.1375 92.2873 77.6489 91.8931 80.2005C91.7856 80.9439 92.126 81.7676 92.2514 82.5311H92.2693ZM102.464 80.3612C102.643 80.6023 102.894 80.9238 103.145 81.2453C103.413 80.9439 103.861 80.7028 103.933 80.3612C104.22 78.9146 104.435 77.4279 104.614 75.9411C104.667 75.5192 104.488 75.0772 104.417 74.6553C104.058 74.9968 103.485 75.2781 103.377 75.7C103.001 77.1265 102.786 78.6334 102.464 80.3612ZM100.153 47.0697C100.457 48.7172 100.726 50.2241 101.03 51.9519C102.302 49.8624 101.962 48.0944 100.153 47.0697ZM107.158 88.4179C106.979 88.3978 106.782 88.3576 106.602 88.3375C106.423 89.6234 106.19 90.9092 106.065 92.1951C106.047 92.4161 106.405 92.6974 106.585 92.9385C106.817 92.6773 107.265 92.4362 107.265 92.175C107.283 90.9293 107.194 89.6636 107.14 88.4179H107.158ZM100.69 18.0777C100.565 17.8768 100.457 17.6558 100.332 17.4549C99.6867 17.6759 99.0238 17.8165 98.4326 18.1581C98.343 18.2184 98.6117 19.0622 98.7909 19.9261C99.5971 19.1426 100.135 18.6202 100.672 18.0777H100.69ZM114.557 52.0926C114.79 52.2332 115.005 52.3939 115.238 52.5346C115.829 51.4095 116.403 50.3044 116.994 49.1793C116.815 49.0588 116.653 48.9583 116.474 48.8377C115.829 49.9227 115.202 51.0076 114.557 52.0926ZM104.022 45.1811C104.166 45.1409 104.291 45.1007 104.435 45.0606C104.417 43.9555 104.632 42.7902 103.772 41.9464L103.306 42.087C103.539 43.1117 103.772 44.1363 104.022 45.161V45.1811ZM129.302 24.3061C130.789 23.2613 131.13 22.5983 130.682 21.1517C130.18 22.2969 129.786 23.2011 129.302 24.3061Z" fill="white"/>
<path d="M446.87 132.699C446.458 133.202 446.046 133.664 445.652 134.146C445.025 134.91 444.451 135.09 443.358 134.97C441.226 134.769 439.041 135.171 436.891 135.552C433.701 136.115 430.548 136.858 427.377 137.521C426.804 137.642 426.141 137.582 425.693 137.903C424.403 138.827 423.382 138.225 422.36 137.421C421.339 136.597 421.5 135.432 421.626 134.247C421.733 133.141 421.733 132.036 421.787 130.931C421.787 130.69 421.715 130.369 421.823 130.208C423.525 127.717 424.17 124.783 424.707 121.79C424.887 120.846 425.424 119.961 425.532 119.017C425.621 118.254 425.317 117.43 425.227 116.948C425.836 114.818 426.481 112.909 426.929 110.92C427.287 109.273 427.395 107.565 427.664 105.877C428.076 103.265 428.613 100.674 428.918 98.0417C429.025 97.1778 428.595 96.2134 428.344 94.9275C428.649 93.702 429.258 92.0143 429.473 90.2663C429.617 89.101 429.187 87.8353 429.025 86.6298C428.972 86.2078 428.774 85.585 428.954 85.3841C429.796 84.4398 429.581 83.3549 429.634 82.1896C429.76 79.7384 430.244 77.3274 430.566 74.8964C430.638 74.3941 430.62 73.8918 430.727 73.3895C431.139 71.2598 431.569 69.1502 431.999 67.0205C431.999 66.9803 432.053 66.9201 432.035 66.8799C431.408 63.3036 434.078 60.531 433.916 56.9949C433.845 55.5885 434.615 54.162 434.902 52.7154C435.027 52.0926 435.009 51.3492 434.83 50.7263C433.988 47.8734 432.895 45.0806 432.25 42.1875C431.82 40.2386 432.089 38.1089 431.82 36.0998C431.354 32.5235 430.691 28.9874 430.154 25.4312C429.814 23.2211 429.545 20.991 429.258 18.7608C429.007 16.8722 428.918 14.9435 428.524 13.095C428.129 11.3069 427.449 9.57904 426.822 7.61008C427.395 7.0877 427.95 6.42468 428.631 6.00276C428.989 5.78176 429.778 5.76167 429.993 6.04295C430.978 7.30871 432.089 6.80642 433.092 6.3845C434.991 5.60093 436.855 4.71691 438.664 3.69225C440.868 2.44658 442.015 2.88859 442.767 5.52057C443.448 7.93154 443.86 10.4832 444.792 12.7535C446.225 16.2494 446.494 19.9864 447.067 23.6832C447.228 24.7481 447.622 25.7527 447.909 26.7974C448.052 26.8376 448.196 26.8778 448.357 26.8979C449.002 25.9134 449.647 24.9289 450.274 23.9444C450.507 23.5828 450.65 23.0805 450.955 22.8595C453.857 20.9307 455.559 17.6558 457.906 15.1243C460.11 12.7535 462.188 10.2421 464.267 7.73063C465.27 6.50505 466.309 5.25938 466.99 3.8128C467.599 2.52694 468.549 2.32603 469.516 2.12511C469.892 2.04475 470.717 2.60731 470.788 3.00914C471.129 5.09865 472.741 6.08313 473.744 7.5699C475.411 10.0612 476.092 11.7891 474.354 14.8028C473.404 16.4503 472.867 18.4193 473.171 20.5691C473.261 21.2723 472.813 22.1161 472.472 22.8193C471.881 24.0047 471.272 25.1901 470.52 26.2349C468.817 28.6056 466.918 30.8157 465.306 33.2669C463.693 35.7381 462.027 38.2696 460.97 41.0623C459.752 44.2569 457.727 46.6679 455.864 49.2798C455.094 50.3647 454.377 51.5099 453.678 52.6752C453.177 53.499 452.245 53.6999 451.869 54.8853C451.331 56.5729 450.077 57.9392 449.324 59.5666C448.859 60.5511 448.679 61.7365 448.554 62.8817C448.357 64.5693 448.572 66.3575 448.16 67.9447C447.443 70.6972 447.891 73.4498 447.873 76.1822C447.855 78.1713 447.73 80.1402 448.214 82.2096C448.769 84.5403 448.572 87.112 448.608 89.5832C448.644 91.3914 448.411 93.2198 448.5 95.028C448.626 97.6198 449.002 100.191 449.163 102.783C449.253 104.27 449.038 105.797 449.092 107.284C449.324 113.613 448.554 119.861 447.999 126.109C447.837 127.958 447.139 129.726 446.745 131.554C446.673 131.916 446.816 132.358 446.87 132.679V132.699ZM446.709 49.8222C446.834 49.8222 446.942 49.8021 447.067 49.782C446.117 47.7729 447.21 46.4067 447.963 44.94C448.25 44.3774 448.662 43.8551 448.823 43.2322C448.966 42.7098 448.859 42.087 448.859 41.5044C447.82 42.4888 446.888 43.3327 446.565 44.4176C446.117 45.9245 446.064 47.5921 445.938 49.2195C445.938 49.4003 446.44 49.6213 446.727 49.8222H446.709Z" fill="white"/>
<path d="M306.764 34.7536C305.868 34.7938 305.796 35.4568 305.904 36.5619C305.993 37.4459 305.563 38.3701 305.366 39.2943C304.99 41.0422 304.632 42.7902 304.291 44.4176C303.252 44.4176 302.374 44.5181 301.514 44.4176C298.54 43.9957 295.584 43.4733 292.628 43.0112C292.054 42.9308 291.481 42.971 290.89 42.9509C290.621 42.9509 290.263 43.1117 290.119 42.971C288.453 41.4843 286.572 42.7098 284.816 42.3884C283.849 42.2076 283.616 42.8706 283.616 43.855C283.616 45.4624 283.437 47.0898 283.455 48.6971C283.455 50.0834 283.723 51.4697 283.741 52.8761C283.777 55.2469 283.652 57.6378 283.687 60.0086C283.687 61.2141 283.992 62.4195 283.992 63.625C283.992 65.1319 283.795 66.6187 283.795 68.1255C283.795 69.331 283.938 70.5566 284.01 71.7621C284.01 71.9027 284.153 72.0434 284.135 72.184C283.813 74.4744 283.455 76.7849 283.15 79.0754C283.078 79.658 283.15 80.2608 283.168 80.8635C283.168 81.2051 283.311 81.5667 283.275 81.8882C283.025 83.9375 283.634 86.1074 282.541 88.0361C282.433 88.217 282.63 88.6389 282.738 88.9403C282.971 89.6033 283.472 90.2462 283.472 90.9092C283.472 93.9029 283.329 96.8965 283.204 99.87C283.078 102.944 282.863 105.998 282.792 109.072C282.774 109.876 283.204 110.679 283.258 111.483C283.311 112.005 283.007 112.568 282.989 113.11C282.953 114.075 282.971 115.019 282.989 115.983C283.025 117.45 282.487 118.394 281.161 118.716C280.91 118.776 280.713 119.017 280.552 119.138C279.137 117.972 277.703 117.249 275.948 117.993C275.446 118.193 274.819 118.053 274.263 118.073C271.899 118.173 269.659 119.519 267.204 118.836C266.631 118.676 265.968 119.057 265.341 119.077C264.714 119.077 263.711 119.238 263.496 118.856C263.066 118.113 262.976 117.068 262.887 116.144C262.707 114.155 263.406 112.307 263.603 110.358C263.872 107.766 264.051 105.174 264.284 102.582C264.463 100.654 264.66 98.7047 264.857 96.7759C265.144 94.0234 265.467 91.291 265.735 88.5384C266.058 85.4644 266.362 82.3905 266.631 79.2964C266.918 75.8005 267.169 72.2845 267.402 68.7684C267.67 64.5693 267.939 60.3702 268.136 56.1711C268.262 53.8003 268.53 51.3893 268.244 49.0788C267.975 46.8487 269.014 44.7592 268.423 42.5692C268.351 42.2879 268.297 42.0066 268.208 41.6852C264.015 42.5893 259.877 43.4733 255.881 44.3372C253.857 42.7701 253.033 40.4797 252.889 37.9281C252.782 35.9591 253.015 33.95 253.104 31.9609C253.158 30.9563 253.23 29.9518 253.319 28.9472C253.588 25.9737 253.911 22.98 254.161 20.0065C254.269 18.7206 254.233 17.5754 252.8 16.9526C251.599 16.4302 251.635 14.3407 252.388 13.1553C253.194 11.9096 254.52 11.7891 255.505 11.0055C255.738 10.8247 256.705 11.2064 256.795 11.5078C257.476 13.8786 259.447 13.9992 260.952 14.0594C264.123 14.18 267.33 13.738 270.519 13.4969C271.988 13.3964 273.457 13.3361 274.891 13.0749C277.9 12.5526 280.893 11.6284 283.92 11.3672C286.769 11.1261 289.564 10.1014 292.538 10.7845C294.276 11.1864 296.193 10.5434 298.021 10.5635C300.762 10.5635 303.503 10.6439 306.226 10.8649C307.964 11.0055 309.093 12.8138 309.003 14.7827C308.806 19.243 307.767 23.5024 306.746 27.7819C306.549 28.5855 306.674 29.4696 306.585 30.3134C306.513 31.0769 306.244 31.8203 306.244 32.5837C306.244 33.2267 306.531 33.8696 306.728 34.7134L306.764 34.7536ZM279.782 40.0377C279.603 40.0377 279.423 40.0377 279.244 40.0377C279.531 44.2971 279.818 48.5765 280.14 52.8359C280.14 52.9967 280.498 53.1172 280.749 53.2779C281.179 50.1638 280.534 41.4441 279.782 40.0176V40.0377ZM305.617 20.127C305.707 18.2385 305.868 16.6914 305.778 15.1645C305.778 14.8631 304.829 14.4813 304.291 14.4211C304.04 14.401 303.449 15.1243 303.503 15.3654C303.843 16.7919 304.309 18.1782 304.757 19.5846C304.793 19.685 304.972 19.7252 305.599 20.107L305.617 20.127ZM271.289 60.3903C270.429 63.8661 270.376 69.552 271.289 70.2351V60.3903ZM281.072 15.2247C281.072 15.2247 281.072 15.4056 281.072 15.506C281.95 15.727 282.845 16.0485 283.741 16.1489C284.046 16.1891 284.386 15.6467 284.709 15.3855C284.35 15.1042 283.974 14.5818 283.616 14.6019C282.756 14.6622 281.914 15.0037 281.072 15.2247ZM293.344 23.5426C293.774 24.6878 295.082 24.8686 296.623 23.8239C295.369 23.7234 294.437 23.6431 293.344 23.5426ZM256.437 29.2084C256.598 29.2084 256.759 29.2486 256.938 29.2486C257.53 28.1837 257.565 27.0988 256.67 25.7527C256.58 27.0988 256.526 28.1435 256.455 29.2084H256.437ZM268.584 98.3632C268.584 98.3632 268.423 98.3632 268.333 98.3632C268.1 98.9458 267.778 99.5084 267.67 100.111C267.617 100.433 267.921 100.854 268.064 101.216C268.262 100.935 268.62 100.694 268.638 100.392C268.692 99.7294 268.602 99.0463 268.584 98.3832V98.3632ZM291.607 23.0604C291.445 22.1965 291.338 21.7143 291.194 20.9106C290.603 21.5134 290.245 21.8951 289.689 22.4777C290.406 22.6988 290.854 22.8193 291.607 23.0403V23.0604Z" fill="white"/>
<path d="M481.448 78.6735C481.698 78.1311 482.111 77.6288 482.2 77.0461C482.827 72.7064 483.383 68.3666 483.938 64.0269C484.045 63.1428 484.028 62.2387 484.099 61.3346C484.261 59.446 484.476 57.5574 484.583 55.6688C484.673 54.1419 484.547 52.5948 484.637 51.0679C484.941 46.1254 485.389 41.1829 485.586 36.2404C485.783 31.4385 486.572 26.7572 487.163 22.0357C487.611 18.4595 487.414 14.7827 487.575 11.1462C487.665 9.1973 487.826 7.24843 488.13 5.31965C488.184 4.93791 489.044 4.59636 489.564 4.45572C490.262 4.27489 491.015 4.35526 491.732 4.27489C493.022 4.13425 494.347 4.15434 495.584 3.7927C497.429 3.25023 499.346 2.68767 501.012 1.68309C502.876 0.537882 504.685 1.08035 506.531 1.24108C507.444 1.32145 508.071 3.0895 507.964 4.61645C507.767 7.42925 507.588 10.222 507.337 13.0348C507.032 16.39 506.62 19.7453 506.333 23.1207C506.083 26.054 506.065 29.0276 505.706 31.9609C505.169 36.4413 504.416 40.9016 503.789 45.382C503.538 47.1701 503.323 48.9784 503.091 50.7665C502.768 53.3583 502.446 55.93 502.105 58.5218C501.693 61.6762 501.335 64.8506 500.797 67.9849C500.582 69.2306 499.901 70.3758 499.489 71.6013C499.31 72.1036 499.167 72.6863 499.203 73.2087C499.4 76.9859 498.629 80.5822 497.608 84.1384C497.429 84.7613 497.608 85.5649 497.304 86.0471C496.73 86.9914 495.888 87.4736 494.742 87.333C493.685 87.2124 492.627 87.3932 491.552 87.4535C491.284 87.4535 490.997 87.6745 490.764 87.6142C488.435 86.911 487.557 88.8197 486.608 90.5275C485.909 91.7933 485.228 91.8937 484.261 90.8891C484.01 90.628 483.633 90.4069 483.311 90.4069C482.326 90.4069 480.874 89.0407 480.964 87.9156C481.089 86.0672 481.43 84.2389 481.537 82.3905C481.609 81.1448 481.448 79.879 481.412 78.6334L481.448 78.6735Z" fill="white"/>
</svg>
