<svg width="438" height="129" viewBox="0 0 438 129" fill="none" xmlns="http://www.w3.org/2000/svg">
<g clip-path="url(#clip0_407_41)">
<path d="M25.2093 52.704C24.8488 54.027 24.9583 55.35 25.0613 56.673C25.0999 57.1498 25.1063 57.5997 25.0033 58.0698C24.8038 58.963 24.7523 59.8629 24.8875 60.7829C25.0806 62.0656 24.8488 63.3348 24.8102 64.6175C24.7201 67.8276 25.2158 71.0108 25.2544 74.2141C25.293 77.3772 25.8402 80.4999 25.5891 83.6898C25.4346 85.6844 25.9947 87.6923 25.9947 89.7204C26.0011 92.9909 25.7887 96.2883 26.3488 99.5118C27.0698 103.696 26.4131 107.853 26.4003 112.016C26.4003 114.098 26.2715 116.18 26.1685 118.255C26.1106 119.43 26.6642 120.411 27.102 121.398C27.4625 122.211 27.5075 123.023 27.4431 123.863C27.3981 124.474 27.1406 124.924 26.4325 124.977C25.3317 125.065 24.3725 125.676 23.2974 125.944C19.5057 126.891 15.6561 127.549 11.8451 128.422C10.7765 128.664 9.61131 128.906 8.47188 128.987C8.00838 129.02 7.55776 128.96 7.14576 128.758C6.41832 128.402 6.12863 127.603 6.55351 126.918C6.90757 126.341 7.01701 125.75 6.96551 125.092C6.82388 123.265 7.44188 121.499 7.35819 119.659C7.17151 115.596 7.32601 111.526 7.48051 107.463C7.50626 106.825 7.53844 106.194 7.66719 105.563C8.11782 103.387 7.83457 101.204 7.60925 99.0283C7.57707 98.6925 7.46119 98.3567 7.49338 98.0276C7.84744 94.5893 7.36463 91.1643 7.37751 87.7326C7.39038 84.7375 7.635 81.7356 7.75088 78.7404C7.87963 75.5035 7.43544 72.28 7.44832 69.0431C7.44832 68.4723 7.42901 67.9015 7.45476 67.3306C7.49982 66.5449 7.45476 65.7793 7.13288 65.054C6.72088 64.1273 7.01701 63.1065 6.78526 62.1596C5.6587 57.5124 5.73595 52.6973 4.91195 48.0098C4.35832 44.8737 4.75101 41.6502 4.04933 38.5677C3.41201 35.774 3.1867 32.9333 2.74895 30.1128C2.65883 29.5218 2.67814 28.9039 2.67814 28.2995C2.68458 25.9357 2.40777 23.6053 2.17602 21.2616C1.92496 18.7365 1.68033 16.1645 1.88633 13.5991C1.98289 12.4239 2.04083 11.2688 0.746896 10.5704C0.354209 10.3622 -0.205852 9.82492 0.0387728 9.15336C0.270522 8.5221 0.849896 8.37435 1.46146 8.30048C3.64376 8.03186 5.72951 7.26628 7.88607 6.83648C9.23794 6.56786 10.5705 6.48727 11.9352 6.53428C14.1691 6.60815 16.3964 6.49399 18.598 6.03061C19.8598 5.76198 21.1602 5.99032 22.4412 5.61424C24.0763 5.13743 25.7565 4.8218 27.4753 4.70764C29.2006 4.59347 29.6576 4.85538 29.7993 6.62158C29.9087 7.99156 30.0954 9.36826 29.9023 10.7584C29.7928 11.5374 29.8894 12.2896 30.1855 13.035C30.9966 15.0967 31.2348 17.333 31.8721 19.4282C32.6318 21.9197 32.4451 24.6933 33.9128 26.9564C34.769 28.2794 35.0844 29.9717 35.9406 31.1537C37.756 33.6653 37.3891 36.5866 38.0135 39.3131C38.1036 39.7094 38.1551 40.213 38.5736 40.2869C38.9856 40.3608 38.9276 39.8101 39.0821 39.5482C40.1121 37.8223 39.9512 35.8613 40.022 33.9608C40.0992 31.7446 39.8224 29.4681 40.2216 27.3191C40.7237 24.6261 40.6915 21.8257 41.6957 19.2335C41.8116 18.9313 41.8438 18.5686 41.8374 18.2396C41.8052 16.4532 42.2172 14.7743 42.8287 13.129C43.0347 12.585 42.9897 12.0008 43.0025 11.43C43.0412 9.71748 43.8137 8.88474 45.4295 8.94518C49.0988 9.07278 52.7103 8.44823 56.341 8.05201C56.9719 7.98485 57.6092 7.74309 58.1821 7.4476C60.1069 6.45369 61.903 7.12525 63.6862 7.85725C64.1626 8.05201 64.4265 8.49524 64.4136 9.07278C64.3943 9.87865 64.5231 10.7315 64.3235 11.4904C63.8278 13.4312 64.2334 15.4593 63.6862 17.3867C63.5317 17.9239 63.6411 18.5082 63.7634 19.0857C64.1239 20.7579 64.4265 22.4503 64.7291 24.1426C64.7934 24.5052 64.8385 24.9015 64.7548 25.2507C64.1432 27.7287 65.2891 30.0322 65.3664 32.4162C65.4436 34.8002 65.9844 37.1037 66.4736 39.3601C66.9307 41.4621 66.8406 43.638 67.5101 45.693C67.8126 46.6197 67.6967 47.627 67.9027 48.5874C68.5143 51.4012 69.01 54.2352 69.628 57.049C69.8404 58.0228 69.8018 58.9966 69.879 59.9636C70.1494 63.4557 70.8382 66.8672 71.6107 70.2721C71.8425 71.2861 71.8682 72.3472 71.9133 73.3747C71.997 75.4296 72.718 77.3839 72.6407 79.4523C72.6214 79.956 72.866 80.4932 73.0785 80.9767C73.5613 82.0982 73.2845 83.3608 73.7029 84.4957C73.7737 84.6905 73.5806 84.9994 73.5098 85.2546C73.3167 85.9194 73.2652 86.6648 73.6192 87.2021C74.16 88.0415 74.3273 88.9414 74.308 89.8682C74.263 92.4268 74.617 94.9653 75.0483 97.4434C75.6985 101.164 75.3252 104.925 75.8852 108.652C76.3487 111.754 76.2843 114.944 76.4903 118.094C76.5354 118.819 76.2071 119.283 75.6728 119.571C73.5677 120.706 71.4176 121.74 68.9778 121.693C67.2011 121.653 65.4243 121.834 63.6476 121.814C62.3601 121.801 61.1562 122.439 59.9975 123.037C59.6177 123.231 59.2379 123.379 58.8001 123.413C57.5255 123.493 57.0041 122.976 57.2423 121.667C57.5062 120.203 57.2938 118.725 57.4161 117.281C57.5641 115.569 57.2616 113.944 57.1521 112.271C57.0169 110.237 56.4505 108.242 56.65 106.18C56.6693 105.979 56.5985 105.771 56.6243 105.576C56.8045 103.749 56.3281 101.983 56.2251 100.197C56.0706 97.4501 55.5492 94.7639 55.4269 92.0105C55.266 88.2497 55.3947 84.4621 54.854 80.7215C54.7316 79.8888 54.4548 79.0896 54.3325 78.2569C53.869 75.1812 53.1673 72.1323 53.148 68.9894C53.148 68.1164 52.8068 67.3373 52.5493 66.5516C52.0601 65.0876 52.2275 63.5497 51.97 62.0723C51.8863 61.5955 52.0343 60.7493 51.3326 60.8299C50.6567 60.9038 51.0751 61.6694 51.0301 62.126C50.8885 63.6303 50.7855 65.1413 50.6631 66.6524C50.4636 69.1707 50.3606 71.6958 50.7662 74.2007C50.8949 74.9931 51.3005 75.6915 51.1524 76.5982C51.0237 77.3772 50.6825 77.8271 50.0709 77.948C48.4036 78.2905 46.7234 78.5188 45.0432 78.7874C43.3437 79.0628 41.6442 79.318 39.9512 79.6202C38.9598 79.7948 38.1744 80.3455 37.5242 81.1648C36.5651 82.3669 36.0243 82.2325 34.9879 81.111C33.2111 79.1904 32.9408 76.5914 31.9429 74.3216C30.7198 71.548 30.6039 68.5327 30.0439 65.6114C29.9859 65.3159 29.9023 65.0205 29.7735 64.7518C28.6405 62.4752 27.8036 60.0845 27.0698 57.64C26.5676 55.9745 25.6921 54.4501 25.1836 52.7376L25.2093 52.704ZM42.8738 29.5285C43.2472 29.4076 43.2085 29.1726 43.2794 28.998C43.7686 27.7556 43.4789 26.3722 43.8845 25.1298C44.1999 24.1493 44.245 23.1487 44.3029 22.1413C44.3158 21.8929 44.348 21.5302 43.9746 21.5302C43.7042 21.5302 43.6592 21.8123 43.6077 22.0473C43.3952 23.1285 43.1442 24.2165 42.9446 25.291C42.6935 26.6408 42.5326 28.0712 42.8738 29.5285ZM33.9257 32.4229C33.9257 33.8802 33.8806 35.0756 33.945 36.271C33.9708 36.7343 34.3313 37.1507 34.7304 37.3589C35.0909 37.5469 35.5673 37.6007 35.4449 36.9022C35.1874 35.4315 35.2132 33.8668 33.9257 32.4229ZM54.1587 21.3489C53.9978 20.7781 53.9656 19.764 53.4313 19.7372C52.9678 19.7103 53.4313 20.6236 53.3605 21.1139C53.3476 21.2146 53.354 21.3153 53.3605 21.4161C53.3862 21.7115 53.1351 22.1749 53.6437 22.2085C54.1394 22.2421 54.1136 21.772 54.1587 21.3556V21.3489ZM64.3106 41.7845C64.3106 41.3144 64.2913 40.9517 64.3106 40.5958C64.3364 40.2667 64.3299 39.9645 63.9372 39.931C63.6347 39.9041 63.2484 39.7631 63.0489 40.0787C62.8557 40.3876 63.1712 40.6227 63.3579 40.8376C63.6218 41.1532 63.7634 41.5964 64.3042 41.7845H64.3106ZM16.6089 26.1237C16.4865 25.8954 16.6797 25.4454 16.2805 25.4186C15.9587 25.3984 15.9394 25.7476 15.9394 26.0095C15.9394 26.305 15.9394 26.6945 16.2741 26.7281C16.5831 26.7617 16.5831 26.3923 16.6089 26.1237ZM49.6203 14.7139C49.601 14.4788 49.646 14.1565 49.3499 14.1565C48.983 14.1565 48.9315 14.5258 48.9057 14.8213C48.88 15.0631 48.925 15.3317 49.2405 15.3116C49.5817 15.2847 49.5817 14.9691 49.6267 14.7139H49.6203Z" fill="white"/>
<path d="M54.8155 51.8646C55.3305 52.5764 55.8713 52.7175 56.4249 52.0593C56.7661 51.6497 56.9978 51.2065 57.0171 50.6088C57.0493 49.6417 57.2489 48.6747 57.2811 47.7009C57.294 47.1838 57.4999 46.9085 57.9119 46.8548C58.4076 46.7809 58.9613 46.3847 59.4054 47.0562C59.8239 47.6942 59.9655 48.4128 60.1007 49.1381C60.1908 49.6081 60.3518 50.0447 60.5706 50.4543C60.8732 51.0251 61.3109 51.4751 61.9804 51.2132C62.6306 50.9647 63.1521 50.5752 63.0941 49.6686C62.9783 47.8755 63.5641 47.3047 65.1863 47.4524C65.4953 47.486 65.6434 47.5733 65.6756 47.9225C65.8751 50.1857 66.2549 52.4153 66.7249 54.6381C67.3042 57.3848 67.6519 60.1987 67.5682 63.0326C67.5296 64.2012 68.1926 65.1145 68.3793 66.2091C68.8299 68.7946 69.0681 71.4137 69.5574 73.9925C70.008 76.3631 70.0788 78.7807 70.7097 81.1379C71.3727 83.6025 71.2054 86.2216 71.5594 88.7601C71.6946 89.7272 71.9328 90.6741 72.1839 91.5874C72.4607 92.5544 72.5894 93.4946 72.5379 94.4617C72.4092 97.0002 73.0915 99.4513 73.1881 101.97C73.2847 104.454 72.8405 106.966 73.4907 109.411C74.0057 111.351 73.8061 113.339 74.0057 115.3C74.1923 117.093 73.7675 117.906 72.1903 118.638C70.5101 119.417 68.7527 119.551 66.963 119.41C65.1091 119.269 63.2873 119.471 61.4654 119.773C60.2101 119.988 60.0041 119.847 59.9398 118.463C59.8496 116.442 60.1844 114.394 59.7724 112.406C59.0321 108.86 59.399 105.24 58.9484 101.688C58.6201 99.0887 58.3561 96.4763 58.0729 93.8707C57.8089 91.4396 57.4806 88.9817 57.5901 86.5171C57.751 82.9847 57.2811 79.5329 56.6309 76.0811C56.1352 73.415 55.9035 70.6884 55.4721 68.0089C55.1052 65.7256 54.5773 63.4624 54.4615 61.1456C54.3327 58.6809 53.8113 56.2835 53.4894 53.8591C53.3285 52.6772 53.528 51.4415 53.7598 50.1588C54.5966 50.4879 54.4421 51.3408 54.8155 51.8646Z" fill="#E8C8FB"/>
<path d="M36.8998 47.2778C37.8655 48.5605 39.1851 49.2858 40.6658 49.7693C42.0691 50.226 43.6978 49.2186 44.2386 48.077C44.4188 47.6875 44.554 47.2577 45.0175 46.9958C45.3973 48.124 44.966 49.2858 44.0004 50.0245C43.7364 50.226 43.2472 50.2999 43.3695 50.7968C43.4789 51.2535 43.8845 51.1998 44.2514 51.2065C44.8952 51.2266 45.3136 51.8915 46.0411 51.8377C46.8393 51.7706 47.4187 51.6027 47.4637 50.6625C47.4959 49.9171 47.9272 49.2589 47.8822 48.4934C47.85 48.0098 47.8564 47.4659 48.5066 47.4726C49.0924 47.4793 49.5752 47.7076 49.6782 48.4329C49.8521 49.6753 49.9679 50.9311 49.7684 52.1601C49.2598 55.2761 49.0281 58.4392 48.4487 61.5485C48.1654 63.0931 48.3135 64.7183 48.1075 66.283C47.747 68.9491 47.953 71.5883 48.2105 74.2343C48.3071 75.2416 47.6311 75.5505 46.923 75.6983C45.5647 75.987 44.1871 76.1885 42.8159 76.4101C41.2838 76.6519 39.7516 76.9071 38.1938 76.8668C37.7045 76.8534 37.3826 77.2429 36.9964 77.4779C36.4363 77.807 36.005 77.8271 35.7926 77.1018C35.0909 74.7379 34.106 72.4748 33.4944 70.0639C32.7798 67.2098 32.2906 64.3019 31.2413 61.5082C29.8057 57.6669 28.1706 53.8726 27.3852 49.7962C27.2436 49.0843 27.1985 48.3591 27.2694 47.6002C28.7049 48.5135 29.619 49.8499 30.6104 51.1125C30.8357 51.4012 31.061 51.6766 31.4795 51.6631C31.782 51.6631 31.988 51.7907 31.943 52.1467C31.8915 52.563 32.0331 52.7981 32.4515 52.8316C32.9086 52.8652 33.3142 52.7712 33.4687 52.2675C33.6103 51.8377 33.7905 51.5557 34.2862 51.5825C35.8827 51.6631 36.4685 50.0917 35.9471 48.7889C35.8505 48.5404 35.6767 48.3255 35.5673 48.0837C35.3999 47.7211 35.1746 47.298 35.696 47.0562C36.1145 46.8615 36.52 46.7742 36.8998 47.2778Z" fill="#E8C8FB"/>
<path d="M18.3663 47.8352C18.3212 48.9097 18.45 49.9909 18.2826 51.0654C18.186 51.6497 18.4049 52.187 18.6109 52.7242C18.8491 53.3555 19.2611 53.6107 19.8984 53.4965C20.5486 53.3823 20.9091 53.0734 20.9863 52.3145C21.1473 50.6961 21.0893 49.0843 20.8962 47.4726C20.8061 46.66 20.9863 45.9414 21.3855 45.2564C21.5013 45.055 21.6043 44.7998 21.894 44.9005C22.1129 44.9744 22.1644 45.243 22.1 45.4109C21.2567 47.7009 22.8661 49.9104 22.261 52.2272C21.5657 54.9135 22.3897 57.6333 22.306 60.3531C22.1644 65.0272 22.4734 69.6945 22.8918 74.3686C23.1622 77.3302 23.336 80.3388 23.1429 83.3406C22.9948 85.5904 23.439 87.8334 23.5871 90.0764C23.7223 92.1582 23.6257 94.2602 23.7158 96.3487C23.7673 97.712 23.7931 99.082 24.1343 100.439C24.3403 101.278 24.0828 102.238 24.0699 103.145C24.0184 107.013 24.2115 110.888 24.0184 114.763C23.9411 116.408 23.748 118.054 23.8446 119.712C23.8832 120.283 23.8896 120.854 24.057 121.411C24.424 122.6 24.0699 123.251 22.879 123.366C22.3962 123.406 22.0163 123.581 21.6172 123.795C20.9477 124.151 20.2718 124.44 19.4864 124.319C19.274 124.286 19.0165 124.299 18.8169 124.386C16.6153 125.427 14.1884 125.179 11.9031 125.736C11.5554 125.824 11.2142 125.877 10.8731 126.012C9.93962 126.394 9.09631 125.736 9.16068 124.682C9.25081 123.339 9.37956 121.996 9.46968 120.659C9.77868 116.052 9.52118 111.425 9.86881 106.825C10.0426 104.508 10.3774 102.198 10.1842 99.861C9.87524 96.0868 10.0748 92.2858 9.75293 88.4982C9.57268 86.4029 9.83662 84.2674 9.93318 82.1453C10.0555 79.4187 10.1263 76.6989 9.95893 73.9724C9.81731 71.6555 9.86237 69.3252 9.81731 67.0016C9.79799 65.8196 9.72718 64.6645 9.28299 63.5363C8.94181 62.67 9.30231 61.6828 9.06412 60.7493C8.37531 58.0295 8.19506 55.2425 8.12425 52.4421C8.11781 52.2205 8.15644 51.9922 8.18219 51.7639C8.85812 52.6638 8.81306 53.7315 9.08343 54.7053C9.56624 56.4379 9.34737 58.3116 10.1199 59.9838C10.4353 60.662 10.6864 61.3135 11.5683 61.1321C12.3794 60.971 12.6369 60.3598 12.6047 59.5607C12.579 58.7548 12.579 57.9422 12.521 57.1363C12.4824 56.6394 12.521 56.4379 13.1069 56.4312C14.3686 56.4178 14.8064 55.9611 14.4845 54.6919C13.9824 52.7108 14.9866 51.4482 16.2033 50.3536C17.0209 49.6216 17.2719 48.809 17.2783 47.8017C17.2848 47.1368 17.2783 46.472 17.2783 45.6325C18.141 46.2705 18.4049 46.9756 18.3663 47.8352Z" fill="#E8C8FB"/>
<path d="M241.869 94.0722C241.547 96.0063 240.71 97.4233 240.472 99.1022C240.279 100.425 239.474 101.62 238.76 102.776C238.27 103.568 237.768 104.394 237.62 105.321C237.292 107.349 236.635 109.29 236.21 111.291C235.901 112.755 234.961 113.957 234.736 115.448C234.427 117.489 233.674 119.464 233.848 121.579C233.906 122.331 233.481 122.694 232.882 122.902C231.736 123.305 230.526 123.52 229.348 123.446C226.908 123.292 224.803 124.346 222.653 125.246C221.114 125.891 220.123 125.555 219.66 123.93C219.196 122.284 218.72 120.659 218.07 119.068C217.072 116.643 216.827 113.984 216.209 111.439C216.029 110.687 215.784 109.961 215.514 109.236C214.786 107.309 214.722 105.24 214.407 103.219C214.342 102.789 214.477 102.285 214.31 101.916C213.57 100.298 213.57 98.5179 213.177 96.839C212.701 94.8042 211.999 92.7962 211.169 90.8823C210.422 89.1698 210.126 87.3566 209.585 85.5971C209.469 85.2143 209.366 84.8181 209.199 84.4621C208.561 83.1392 208.227 81.7557 208.368 80.2649C208.394 79.9694 208.4 79.6403 208.304 79.365C207.654 77.451 207.66 75.3826 207.1 73.4687C206.675 72.0316 206.302 70.5676 205.813 69.1438C205.388 67.9082 205.001 66.6591 204.873 65.3361C204.84 64.9735 204.692 64.6242 204.577 64.275C204.177 63.1065 203.868 61.938 203.688 60.6822C203.173 57.1498 203.276 53.5502 202.684 50.0514C202.105 46.6063 201.744 43.1343 201.19 39.6959C200.63 36.2172 199.961 32.7386 198.912 29.3942C197.933 26.2849 197.302 23.1285 196.916 19.9051C196.755 18.5686 195.925 17.5076 195.68 16.2048C195.506 15.278 195.281 14.3647 195.21 13.4245C195.126 12.3366 194.965 11.3091 194.244 10.4159C193.762 9.81822 193.987 9.2541 194.727 9.05264C195.622 8.80416 196.485 8.38108 197.457 8.52882C199.079 8.7773 200.424 7.66251 201.963 7.50805C204.667 7.23942 207.029 5.60753 209.778 5.43964C210.486 5.39935 211.22 5.27847 211.941 5.19117C212.887 5.077 213.293 5.61425 213.505 6.33282C213.962 7.91098 214.4 9.49587 214.059 11.1949C213.917 11.8933 213.995 12.6253 214.278 13.2835C214.548 13.9013 214.902 14.4721 214.452 15.1706C214.387 15.2646 214.452 15.5198 214.529 15.6339C215.507 17.0375 215.385 18.7164 215.578 20.3013C215.926 23.0614 216.248 25.8013 216.904 28.5212C217.419 30.65 218.192 32.7386 218.301 34.9749C218.327 35.4852 218.565 35.9419 218.829 36.3717C219.035 36.7142 219.286 37.0433 219.293 37.4663C219.312 38.9438 220.084 40.2265 220.316 41.6166C220.645 43.5708 221.591 45.3706 221.578 47.392C221.578 47.9964 221.964 48.4531 222.17 48.9836C222.614 50.1387 222.215 51.5221 223.065 52.5765C223.149 52.6839 223.142 52.9189 223.097 53.0667C222.267 55.6455 223.87 57.6333 224.578 59.836C225.099 61.4612 225.692 63.0662 225.144 64.8257C224.893 65.6383 225.086 66.4442 225.305 67.2098C225.878 69.2043 226.631 71.1518 226.367 73.3008C226.322 73.65 226.483 73.9589 226.612 74.2678C226.915 74.973 226.915 75.6983 226.773 76.4437C226.561 77.5719 226.503 78.6733 226.915 79.8149C227.185 80.5738 227.327 81.4535 226.818 82.246C226.516 82.7228 226.619 83.2197 226.87 83.6831C227.468 84.8181 227.983 85.9664 227.842 87.323C227.809 87.6655 227.919 88.0818 228.312 88.0684C228.64 88.0617 228.749 87.6252 228.698 87.3498C228.254 85.174 229.245 83.2802 229.786 81.3125C230.294 79.4657 230.507 77.5518 230.944 75.705C231.356 73.9858 231.659 72.2465 232.052 70.5273C232.213 69.8356 232.631 69.4259 233.313 69.1371C235.534 68.1902 237.858 68.1298 240.176 68.2037C241.805 68.2574 243.311 67.841 244.843 67.4314C246.246 67.0486 247.643 66.6255 249.092 66.4375C250.798 66.2226 251.396 66.921 251.429 68.4723C251.474 71.0242 252.401 73.4687 252.047 76.0609C251.931 76.9272 252.336 77.9077 252.613 78.7942C252.967 79.909 253.637 80.8961 253.798 82.0915C253.83 82.34 253.939 82.6825 254.242 82.6825C254.667 82.6825 254.589 82.2728 254.622 81.9908C254.834 80.1306 255.169 78.2905 255.323 76.4168C255.452 74.8588 255.722 73.2874 255.948 71.7294C256.115 70.5541 256.121 69.3856 256.224 68.2171C256.437 65.8465 256.81 63.4826 256.997 61.1187C257.28 57.6467 258.143 54.2621 258.194 50.7431C258.233 48.1374 258.548 45.4579 259.276 42.9731C259.92 40.757 260.583 38.5341 261.053 36.2844C261.497 34.1556 262.398 32.1342 262.437 29.9046C262.45 28.951 262.919 28.0981 263.28 27.2385C264.046 25.4051 264.11 23.3569 264.844 21.5302C265.707 19.3947 266.009 17.1315 266.479 14.9019C266.782 13.4514 268.211 12.2358 269.666 12.0814C271.076 11.9336 272.582 12.1754 273.85 11.4434C274.739 10.933 275.357 10.8927 276.374 11.2285C277.797 11.6986 279.251 12.1687 280.738 12.4843C282.174 12.7932 282.56 13.8744 281.929 15.775C281.408 17.3397 280.777 18.8708 280.352 20.4624C280.204 21.0198 280.352 21.6981 280.32 22.3294C280.256 23.7934 280.062 25.2305 279.541 26.5736C278.884 28.2727 279.329 30.0725 278.904 31.8051C278.344 34.0683 277.99 36.3919 277.61 38.702C277.41 39.9243 277.327 41.1465 276.966 42.3553C276.766 43.0269 277.108 43.826 277.03 44.6185C276.857 46.378 276.94 48.171 276.869 49.9439C276.818 51.3206 276.805 52.7108 276.573 54.0539C276.161 56.4648 276.509 58.9026 276.187 61.3135C276.046 62.3812 275.93 63.449 275.511 64.4496C275.073 65.4973 275.048 66.5382 275.241 67.6866C275.479 69.07 275.26 70.5138 275.131 71.904C274.925 74.2477 274.951 76.5982 274.81 78.9352C274.668 81.3058 275.363 83.6831 274.726 86.0134C274.076 88.3908 273.87 90.842 273.561 93.2596C273.232 95.7981 272.82 98.303 272.357 100.808C272.318 101.03 272.312 101.318 272.415 101.493C272.814 102.185 272.647 102.87 272.441 103.541C272.112 104.616 272.112 105.724 271.99 106.825C271.797 108.625 271.43 110.398 271.14 112.184C270.921 113.581 270.773 114.978 270.773 116.402C270.773 117.839 270.496 119.276 270.799 120.72C270.896 121.183 270.445 121.331 270.123 121.452C268.713 121.989 267.226 122.117 265.752 122.258C264.4 122.385 263.035 122.352 261.696 122.627C260.718 122.828 259.913 123.56 258.87 123.641C258.452 123.675 258.033 123.742 257.621 123.675C257.222 123.607 256.707 123.366 256.733 123.003C256.862 121.076 255.407 120.001 254.602 118.618C252.999 115.871 251.235 113.218 250.012 110.257C248.21 105.885 245.963 101.762 243.826 97.571C243.259 96.4562 242.789 95.2877 241.869 94.0184V94.0722ZM260.364 49.4C260.538 49.447 260.718 49.494 260.892 49.541C261.986 46.0892 262.334 42.4292 263.409 38.9706C263.756 37.8559 263.106 36.6941 263.486 35.5591C261.4 39.9578 261.902 44.9005 260.364 49.4ZM198.693 16.8092C198.776 15.1907 198.892 13.626 199.382 12.0948C199.588 11.4434 199.079 11.0136 198.39 11.1479C197.869 11.2419 196.987 11.121 197.199 12.0411C197.566 13.6528 197.843 15.3049 198.693 16.8092ZM276.786 29.4278C276.818 28.6219 276.496 28.1249 276 28.1451C275.428 28.172 275.479 28.6823 275.363 29.0987C275.041 30.2336 275.299 31.3552 275.382 32.4767C275.402 32.7453 275.395 33.0609 275.743 33.0878C276.078 33.1079 276.194 32.7453 276.206 32.5371C276.29 31.429 276.889 30.415 276.792 29.4278H276.786ZM268.971 27.0504C268.868 27.0236 268.771 26.9967 268.668 26.9631C268.385 27.5541 268.018 28.1182 267.844 28.7428C267.258 30.7843 266.737 32.8527 266.203 34.9077C266.151 35.1092 265.926 35.3979 266.228 35.5188C266.524 35.633 266.698 35.3509 266.756 35.0756C266.93 34.2899 267.091 33.4974 267.252 32.705C267.374 32.0872 267.574 31.5566 267.954 30.9992C268.733 29.8441 268.739 28.3936 268.977 27.0437L268.971 27.0504ZM209.45 11.5307C210.036 11.8799 210.538 12.1754 211.033 12.4776C211.568 12.8067 211.851 12.7059 211.915 12.0075C211.98 11.2755 211.729 10.6644 211.4 10.0465C211.317 9.8988 211.426 9.62346 211.13 9.65704C210.898 9.6839 210.557 9.84508 210.602 10.013C210.898 11.0472 209.875 10.98 209.456 11.5307H209.45ZM269.196 47.0629C269.692 45.1691 270.194 43.2753 270.677 41.3815C270.735 41.1599 270.735 40.8779 270.445 40.804C270.091 40.7033 270.001 40.9853 269.949 41.2607C269.724 42.4426 269.505 43.6246 269.293 44.8065C269.164 45.5519 268.842 46.2705 269.196 47.0697V47.0629ZM263.995 32.9266C264.831 31.8723 265.868 27.6884 265.443 26.8221C265.218 29.0584 263.892 30.791 263.995 32.9266ZM278.028 15.5668C277.526 15.2041 276.927 15.3384 276.445 15.0832C276.361 15.043 276.258 15.0295 276.168 15.0228C275.897 14.9959 275.653 15.043 275.518 15.3317C275.421 15.5399 275.325 15.7682 275.466 15.9966C275.775 16.4935 276.689 16.6211 277.172 16.2518C277.449 16.0369 277.719 15.8152 278.028 15.5735V15.5668ZM209.707 48.3456C209.984 47.6271 209.817 47.0831 209.733 46.5458C209.694 46.2906 209.54 46.069 209.289 46.1295C208.973 46.2101 208.96 46.5391 209.051 46.7943C209.218 47.2711 209.443 47.7278 209.714 48.3523L209.707 48.3456ZM269.988 35.8009C270.02 36.0897 269.975 36.5463 270.278 36.4389C270.754 36.271 270.49 35.6196 270.735 35.2368C270.857 35.042 270.722 34.7935 270.503 34.8204C269.898 34.8943 270.142 35.4852 269.988 35.8009Z" fill="white"/>
<path d="M100.154 118.49C100.154 116.408 100.276 114.313 100.122 112.238C99.9031 109.31 100.289 106.348 99.8645 103.461C99.549 101.305 99.6263 99.129 99.137 96.9666C98.68 94.9519 98.989 92.7492 99.0083 90.627C99.0211 89.1026 98.783 87.6117 98.622 86.1075C98.4868 84.8113 98.4547 83.4884 98.5062 82.1788C98.5641 80.8088 98.3195 79.4926 98.1521 78.1562C97.8173 75.4968 97.5341 72.8374 97.341 70.1646C97.2959 69.5199 97.2895 68.8819 97.4504 68.2507C97.856 66.6725 97.5727 65.1078 97.3989 63.5363C97.2508 62.2201 97.2959 60.9105 97.7208 59.6345C97.7852 59.4465 97.8688 59.2115 97.8173 59.0436C97.1865 56.9953 97.9332 55.0276 98.2873 53.0868C98.828 50.1051 98.1971 47.4793 96.6843 45.008C95.532 43.1276 94.8303 41.0055 93.7553 39.1251C92.1202 36.271 90.6846 33.2892 88.8499 30.556C87.3629 28.3398 86.3457 25.8484 85.2771 23.3972C84.9681 22.692 84.6205 22.007 84.2922 21.3153C83.3137 19.2671 82.2257 17.2927 81.8202 14.9825C81.5498 13.4513 80.1786 12.5044 79.6508 11.0807C79.6314 11.0203 79.5671 10.9599 79.5156 10.9397C77.8161 10.4428 78.5371 9.01905 78.4984 7.93112C78.4791 7.37373 78.9233 7.09167 79.4512 7.20584C82.1163 7.79681 84.4531 6.52756 86.8994 5.82914C88.2191 5.45307 89.513 4.98969 90.8327 4.62033C92.9442 4.02264 95.1072 3.59284 97.1478 2.73996C98.107 2.33703 99.0855 2.21615 100.096 2.27659C100.837 2.3236 101.274 2.72653 101.313 3.55927C101.409 5.84257 102.369 7.70951 103.785 9.42199C104.532 10.3219 105.079 11.4367 105.562 12.5246C106.405 14.4453 107.396 16.292 108.04 18.3067C108.323 19.1865 108.954 19.9319 108.8 20.9728C108.748 21.3355 109.07 21.6511 109.45 21.7518C109.913 21.8727 109.946 21.4496 110.164 21.1676C111.857 19.032 112.263 16.2719 113.48 13.9214C113.982 12.9477 114.6 12.0276 115.231 11.1546C116.75 9.05263 117.992 6.76932 119.447 4.62705C120.297 3.37123 121.198 2.14899 122.132 0.960328C122.949 -0.0805904 123.696 -0.194756 124.861 0.20818C126.471 0.765575 127.958 1.57816 129.464 2.35717C130.301 2.79369 131.118 2.97501 132.071 2.63251C132.709 2.39747 133.442 2.44448 133.867 3.18991C134.157 3.70701 134.614 3.62642 135.065 3.63314C136.616 3.64657 137.395 4.92925 136.655 6.3731C136.204 7.25285 135.992 8.15945 135.779 9.11978C135.271 11.4635 134.138 13.5454 132.902 15.5668C132.174 16.7621 131.183 17.8299 130.97 19.3208C130.906 19.7506 130.565 19.9991 130.372 20.3483C129.232 22.4234 128.028 24.4582 127.552 26.8557C127.114 29.0181 125.968 30.8582 124.848 32.6983C123.966 34.1421 123.67 35.8076 123.226 37.4193C123.117 37.8156 123.046 38.2454 122.756 38.514C120.593 40.5555 119.769 43.4231 118.63 46.0556C117.864 47.8352 116.859 49.4201 115.804 50.9848C114.96 52.2407 114.593 53.7382 113.737 54.9739C113.628 55.1351 113.608 55.4642 113.692 55.6522C114.426 57.2975 114.104 59.0369 114.072 60.7292C114.027 63.0528 113.84 65.3831 114.014 67.7067C114.162 69.7147 114.548 71.7159 114.632 73.7239C114.709 75.6714 114.947 77.5988 115.179 79.5127C115.405 81.3528 115.501 83.2466 116.216 85.0262C116.544 85.8523 116.615 86.7924 116.756 87.6856C117.381 91.5605 118.063 95.422 118.887 99.27C119.183 100.647 119.499 102.252 118.778 103.702C118.733 103.79 118.694 103.911 118.72 103.998C119.544 106.489 118.552 109.014 118.861 111.486C119.042 112.943 119.016 114.427 119.312 115.864C119.776 118.148 119.158 118.806 116.911 118.967C114.722 119.121 112.598 119.766 110.518 120.525C108.336 121.324 106.199 122.278 103.869 122.587C103.347 122.654 102.897 122.943 102.433 123.184C101.12 123.849 100.264 123.298 100.283 121.821C100.289 121.25 100.244 120.673 100.238 120.102C100.231 119.565 100.238 119.021 100.238 118.483C100.212 118.483 100.18 118.483 100.154 118.483V118.49ZM101.216 46.9622C101.551 46.2369 100.811 45.6795 100.869 44.9811C100.933 44.2021 100.598 43.638 100.058 43.1343C99.7293 42.8254 99.4525 42.4292 99.2207 42.033C97.7143 39.4609 96.2208 36.8754 94.7273 34.2899C94.457 33.8265 94.1608 33.437 93.5107 33.3631C96.1629 37.923 98.21 42.7247 101.216 46.9689V46.9622ZM91.1352 22.8129C91.103 22.7457 91.0773 22.6047 90.9936 22.5107C90.0537 21.4429 89.2555 20.2744 88.6954 18.9313C88.5023 18.4612 88.1482 18.5888 87.807 18.797C87.395 19.0522 87.2405 19.4349 87.5174 19.8043C88.3735 20.9392 89.2748 22.0339 90.176 23.1218C90.3434 23.3233 90.646 23.33 90.9099 23.2696C91.103 23.2226 91.1224 23.0479 91.1288 22.8062L91.1352 22.8129ZM112.887 47.486C113.46 46.5055 113.583 45.3102 114.606 44.652C114.741 44.5647 114.716 44.2961 114.529 44.2424C114.059 44.1081 113.557 44.1551 113.113 44.3163C112.727 44.4573 112.604 44.9207 112.63 45.3303C112.681 46.0489 112.797 46.7675 112.887 47.486ZM85.3737 11.8799C85.6827 11.3561 86.8221 12.3164 86.9315 11.1009C86.983 10.5435 86.526 10.4562 86.1269 10.5435C85.5539 10.6711 84.775 10.5435 84.6656 11.4501C84.6205 11.806 84.8844 11.9806 85.3737 11.8799ZM114.072 48.715C114.587 47.9561 115.108 47.204 115.617 46.4451C115.752 46.2504 115.862 46.0355 115.707 45.7937C115.604 45.6258 115.43 45.6057 115.276 45.6459C115.038 45.7064 114.877 45.8944 114.851 46.1429C114.819 46.4854 114.78 46.8212 114.484 47.0361C113.943 47.439 113.905 48.0233 114.066 48.715H114.072ZM103.186 38.8498C103.206 38.5274 103.231 38.2655 103.244 38.0036C103.257 37.688 103.212 37.3925 102.832 37.3522C102.613 37.332 102.349 37.2649 102.214 37.4731C102.027 37.7551 102.279 37.97 102.433 38.1648C102.626 38.4065 102.691 38.7893 103.193 38.8565L103.186 38.8498ZM102.15 11.5978C102.504 12.5246 102.961 13.0753 103.579 13.4782C103.328 12.7529 103.07 12.0411 102.15 11.5978ZM114.053 20.0125C114.053 19.7842 113.943 19.6767 113.757 19.6767C113.377 19.6767 113.28 19.9521 113.248 20.2744C113.229 20.4624 113.312 20.6236 113.512 20.6102C113.866 20.5833 113.95 20.2677 114.053 20.0125Z" fill="white"/>
<path d="M385.753 117.745C386.024 114.87 385.502 112.05 385.322 109.202C385.097 105.623 384.942 102.037 385.908 98.491C386.243 97.2688 386.011 95.8854 386.043 94.5758C386.159 90.0294 386.082 85.4762 386.436 80.9432C386.674 77.8943 386.938 74.8588 386.931 71.7831C386.931 68.6335 387.202 65.4704 387.556 62.3275C387.717 60.9307 387.974 59.5271 387.698 58.1034C387.627 57.7475 387.601 57.3512 387.659 56.9953C388.135 53.98 387.794 50.9513 387.833 47.9293C387.858 46.0757 388.122 44.2357 388.335 42.3956C388.38 41.9927 388.47 41.583 388.431 41.1935C388.328 40.0116 388.534 38.8363 388.496 37.6812C388.393 34.5854 388.406 31.476 388.464 28.3936C388.515 25.7879 388.258 23.1353 388.888 20.5497C389.127 19.576 389.172 18.6962 388.077 18.1926C387.64 17.9911 387.356 17.568 387.524 17.0308C387.749 16.3055 388.303 15.6944 388.946 15.6675C389.918 15.6272 390.768 15.2511 391.669 15.0161C394.219 14.3512 396.768 13.6797 399.336 13.082C400.83 12.7395 402.24 11.9739 403.791 11.7725C403.984 11.7456 404.165 11.6583 404.358 11.6381C406.186 11.4434 406.682 11.9269 406.424 13.8006C406.27 14.9288 406.276 16.0906 405.941 17.1919C405.903 17.3195 405.871 17.474 405.909 17.5882C406.592 19.5223 405.909 21.3556 405.671 23.2628C405.381 25.5596 405.098 27.8966 405.053 30.2135C405.034 31.288 404.989 32.2349 404.461 33.1616C404.326 33.4034 404.313 33.7459 404.326 34.0414C404.39 35.5927 404.268 37.1373 404.087 38.6752C403.997 39.4004 404.094 40.0048 404.448 40.6764C404.802 41.348 405.053 41.301 405.42 40.8376C406.386 39.6153 407.435 38.4737 408.355 37.2112C410.016 34.9278 411.877 32.846 414.149 31.1671C415.398 30.2404 416.447 29.0047 417.548 27.8698C418.881 26.4998 420.194 25.1029 421.514 23.7329C423.689 21.4765 425.608 18.8843 428.35 17.2658C429.676 16.4868 430.784 16.8562 431.472 18.2597C432.161 19.67 432.914 21.0467 433.642 22.4368C433.687 22.5241 433.719 22.645 433.796 22.692C435.296 23.5919 435.921 25.3715 437.26 26.4259C437.948 26.9631 438.277 28.0578 437.685 28.5883C436.552 29.6024 436.416 31.3014 435.296 32.1812C434.163 33.0676 433.384 34.1287 432.844 35.4449C432.786 35.586 432.644 35.727 432.509 35.8009C430.796 36.7142 430.095 38.5341 429.026 40.0183C427.861 41.6233 426.728 43.2485 425.582 44.8737C425.376 45.1691 425.131 45.4646 425.009 45.8004C424.32 47.7412 423.232 49.5209 422.009 51.0386C420.155 53.3286 419.106 56.2432 416.821 58.1638C416.769 58.2041 416.724 58.2578 416.698 58.3183C415.662 60.5814 413.834 62.3476 413.035 64.772C412.701 65.7928 413.023 66.6255 413.48 67.4515C414.143 68.6536 414.632 69.9027 414.619 71.313C414.619 71.5816 414.722 71.7629 414.819 71.9644C415.449 73.2538 415.829 74.5969 416.125 76.0273C416.383 77.2697 416.956 78.4718 417.258 79.7478C417.381 80.2514 417.336 80.7484 417.432 81.2386C417.664 82.4676 417.973 83.6361 418.823 84.6166C419.389 85.2747 419.447 86.2149 419.647 87.0678C419.653 87.1014 419.634 87.1417 419.647 87.1685C420.509 88.693 420.49 90.627 421.72 91.9903C422.215 92.541 422.518 93.2394 422.672 93.958C422.975 95.3616 423.323 96.7181 424.159 97.9068C424.468 98.3433 424.507 98.9275 424.423 99.4715C424.269 100.479 424.578 101.305 425.215 102.05C425.724 102.641 425.827 103.38 425.743 104.139C425.659 104.898 425.685 105.596 426.213 106.221C426.49 106.543 426.683 106.993 426.657 107.429C426.541 109.108 427.649 110.19 428.35 111.492C428.93 112.567 429.857 113.507 429.844 114.897C429.844 115.569 429.586 115.965 428.988 116.187C425.93 117.301 422.814 118.101 419.544 118.013C418.829 117.993 417.992 117.026 418.082 116.214C418.121 115.884 418.082 115.602 417.941 115.347C417.027 113.675 416.531 111.815 415.218 110.31C413.576 108.43 412.92 105.885 411.767 103.669C411.085 102.352 410.924 100.862 410.486 99.4648C409.759 97.1412 409.263 94.7169 408.072 92.5611C407.242 91.0569 407.049 89.3175 406.553 87.6923C405.748 85.0665 404.873 82.4945 403.701 80.0097C402.903 78.3106 402.71 76.3497 401.841 74.6439C401.525 74.0261 401.364 73.3209 401.107 72.6628C400.888 72.1189 400.592 72.092 400.289 72.6024C399.929 73.2068 399.897 73.8582 399.967 74.5499C400.167 76.4504 399.929 78.3442 399.716 80.2246C399.51 82.0579 399.266 83.8846 399.163 85.7314C399.015 88.2632 398.757 90.7949 398.654 93.3267C398.596 94.7571 398.744 96.1943 398.815 97.6247C398.912 99.5722 399.047 101.52 399.13 103.474C399.169 104.347 399.176 105.22 398.821 106.06C398.558 106.697 398.815 107.356 399.06 107.893C399.922 109.793 399.639 111.801 399.613 113.762C399.588 115.757 399.182 115.985 397.244 116.422C395.043 116.919 392.757 117.181 390.794 118.497C390.092 118.967 389.352 119.41 388.734 119.988C387.968 120.706 387.247 120.384 386.539 120.028C385.85 119.679 385.637 119.021 385.753 118.242C385.779 118.074 385.753 117.906 385.753 117.738V117.745ZM401.628 46.754C402.594 44.9005 402.298 42.8657 402.343 40.8913C402.349 40.5622 401.995 40.4682 401.821 40.8241C401.499 41.4823 401.107 42.2076 401.442 42.9261C401.725 43.544 401.686 44.1349 401.545 44.6856C401.364 45.4042 401.525 46.0623 401.628 46.754ZM390.009 49.2791C390.543 46.6667 391.103 44.0611 390.446 41.3815C390.298 44.0141 390.15 46.6466 390.009 49.2791ZM420.632 39.1855C418.945 39.9914 418.308 41.4688 417.509 42.7918C417.471 42.8523 417.497 43.0067 417.548 43.0537C417.703 43.1948 417.876 43.1209 417.96 42.9731C418.668 41.6703 420.014 40.8712 420.638 39.1855H420.632ZM424.192 25.8282C424.037 25.4454 424.391 24.7403 423.651 24.5858C423.277 24.5119 422.376 25.5126 422.408 25.9625C422.46 26.7012 423.123 26.5065 423.516 26.5938C423.921 26.6878 424.262 26.4326 424.185 25.8215L424.192 25.8282ZM418.43 37.144C417.033 37.6342 416.441 38.7087 415.585 39.4407C415.456 39.5482 415.417 39.7362 415.514 39.8974C415.598 40.0451 415.765 40.025 415.855 39.9511C416.743 39.1721 417.793 38.5476 418.43 37.144ZM396.91 22.1749C397.457 21.5705 397.817 21.1206 398.062 20.5833C398.146 20.402 398.21 20.1602 398.017 20.0326C397.83 19.9118 397.656 20.0797 397.515 20.214C397.019 20.6841 396.974 21.3019 396.91 22.1749ZM390.781 32.6647C390.253 33.4303 390.24 34.0212 390.562 34.8943C390.903 34.1018 390.936 33.5176 390.781 32.6647ZM391.026 29.6897C390.684 30.4821 390.8 31.0462 390.968 31.7447C391.47 31.0529 391.412 30.4754 391.026 29.6897Z" fill="white"/>
<path d="M344.811 81.3931C344.933 82.4407 345.12 83.166 345.519 83.7704C346.278 84.9121 346.484 86.3492 347.386 87.417C347.811 87.9207 347.849 88.6392 347.849 89.3377C347.849 90.4726 347.798 91.5941 348.152 92.729C348.358 93.4073 348.126 94.2401 348.055 94.9989C347.901 96.6039 347.74 98.2157 347.592 99.814C347.463 101.191 347.54 102.641 347.727 104.058C347.836 104.911 347.836 105.831 347.675 106.671C347.495 107.584 347.489 108.47 347.579 109.377C347.592 109.478 347.624 109.592 347.592 109.679C346.903 111.331 346.948 113.144 346.594 114.87C346.176 116.912 345.557 118.967 345.725 121.116C345.809 122.217 345.815 122.875 344.251 123.003C342.262 123.164 340.285 123.386 338.296 123.527C337.684 123.574 337.189 123.849 336.642 124.051C335.663 124.407 334.646 124.668 333.674 124.037C332.477 123.265 332.2 122.472 332.534 121.042C332.798 119.907 332.663 118.759 332.612 117.624C332.522 115.77 332.554 113.87 332.122 112.097C331.292 108.699 331.942 105.18 331.144 101.809C330.693 99.908 330.758 97.9202 330.758 96.0264C330.758 94.4617 330.668 92.7425 331.183 91.1643C331.356 90.6338 330.957 90.2174 330.996 89.7003C331.15 87.7461 330.964 85.7717 330.764 83.8577C330.558 81.8632 330.642 79.7679 329.799 77.8607C329.67 77.5652 329.625 77.1958 329.65 76.8668C330.005 72.5285 329.148 68.1969 329.631 63.8519C330.03 60.2792 330.294 56.6864 330.687 53.107C330.957 50.6424 331.427 48.1845 331.324 45.6862C331.279 44.5647 331.356 43.4634 331.756 42.409C332.026 41.7039 331.73 41.0055 331.704 40.3138C331.659 39.1855 331.73 38.0976 332.084 37.0298C332.103 36.9694 332.155 36.8955 332.148 36.8418C331.762 34.4712 333.017 32.2618 332.734 29.8576C332.56 28.3936 333.011 26.8557 333.082 25.3514C333.191 23.0009 333.217 20.6438 333.275 18.2933C333.294 17.6553 333.198 16.8427 333.957 16.7017C334.71 16.5607 335.65 16.2518 336.056 17.474C336.249 18.065 336.828 18.0717 337.375 18.0986C338.245 18.1388 338.985 17.4606 339.822 17.5613C341.476 17.7628 343.085 17.2792 344.721 17.3464C345.139 17.3666 345.583 17.3867 345.976 17.2591C348.557 16.3995 351.081 16.4197 353.624 17.4807C355.066 18.0851 356.688 17.8165 358.188 18.253C359.398 18.6089 360.66 18.7432 361.774 19.4215C362.095 19.6163 362.469 19.9185 362.855 19.7506C363.653 19.4081 364.001 19.7909 364.194 20.5162C364.349 21.1004 364.735 21.6041 365.192 21.8257C367.084 22.7592 368.089 24.5254 369.189 26.211C371.172 29.2397 370.902 32.5035 370.02 35.8076C369.859 36.4187 369.556 37.003 369.949 37.641C370.026 37.7618 370.026 37.9835 369.981 38.1312C369.318 40.0854 369.865 42.1471 369.441 44.1685C368.99 46.3242 368.623 48.5068 367.76 50.5148C366.756 52.8518 365.99 55.2291 365.642 57.7676C365.559 58.3653 365.224 58.8891 364.896 59.3995C363.595 61.4008 361.793 62.9991 360.628 65.1212C360.312 65.6987 359.804 66.1353 359.269 66.5449C358.246 67.3239 357.757 68.6066 356.83 69.5065C356.044 70.2586 355.388 71.1518 354.345 71.5615C353.688 71.8234 353.604 72.327 353.804 72.9583C354.222 74.2746 355.066 75.3692 355.619 76.6116C355.754 76.9138 355.96 77.1824 356.109 77.4846C357.177 79.647 358.664 81.4603 360.396 83.072C360.66 83.3138 360.93 83.5891 361.078 83.9115C361.387 84.583 361.793 85.0531 362.488 85.3083C363.003 85.4963 363.151 86.1007 363.421 86.5574C364.548 88.4445 365.926 90.1234 367.22 91.8829C369.26 94.6497 372.086 96.8188 373.322 100.19C374.005 102.044 374.88 103.81 375.614 105.636C376.084 106.812 376.528 107.879 376.393 109.149C376.38 109.276 376.393 109.444 376.464 109.538C377.455 110.995 377.687 112.728 377.938 114.414C378.176 116.005 378.614 117.557 378.756 119.155C378.82 119.873 378.183 120.189 377.687 120.236C375.801 120.431 374.127 121.378 372.299 121.787C371.559 121.955 370.902 122.587 370.232 123.057C368.964 123.936 367.419 123.54 367.136 122.043C366.814 120.33 365.81 118.994 365.211 117.442C364.265 114.978 363.119 112.594 362.044 110.183C361.683 109.377 361.027 108.793 360.544 108.081C359.836 107.027 359.398 105.791 359.057 104.589C358.458 102.467 357.39 100.553 356.43 98.6656C355.645 97.1143 354.995 95.4421 354.061 94.005C353.167 92.6283 352.523 91.0569 351.364 89.8615C351.274 89.7675 351.197 89.6466 351.158 89.5257C350.527 87.511 349.085 86.0672 347.766 84.5964C346.871 83.5958 345.847 82.6825 344.817 81.3998L344.811 81.3931ZM343.839 51.3542C344.012 51.9385 344.083 53.107 344.431 54.2285C344.611 54.8128 344.869 54.7993 345.268 54.5911C345.963 54.2285 346.671 53.8994 347.334 53.4898C349.311 52.2743 350.804 50.3805 352.819 49.2119C352.928 49.1515 353.006 49.0239 353.083 48.9164C354.918 46.2974 356.463 43.5104 357.57 40.4749C357.705 40.0989 357.827 39.6221 357.596 39.293C356.282 37.4663 356.128 34.7331 353.656 33.7996C353.456 33.7258 353.295 33.5109 353.147 33.343C352.31 32.3961 351.28 31.8051 350.064 31.6305C348.86 31.4559 347.643 30.8851 346.452 31.3551C345.744 31.6372 345.126 31.7581 344.412 31.5432C343.807 31.3619 343.459 31.5902 343.536 32.3088C343.581 32.7117 343.536 33.1549 343.684 33.4974C344.058 34.3302 344.019 35.1696 343.987 36.0561C343.922 37.7014 343.433 39.3333 343.568 40.945C343.691 42.3687 343.678 43.7454 343.465 45.1356C343.427 45.3975 343.394 45.6795 343.44 45.9414C343.723 47.5532 343.774 49.1784 343.839 51.3676V51.3542ZM341.553 44.7192C341.631 43.5171 341.85 42.4963 341.721 41.5226C341.392 38.9236 342.049 36.3583 341.817 33.7728C341.792 33.484 341.933 33.1818 341.978 32.8863C342.036 32.517 342.326 32.0401 341.747 31.8857C341.148 31.7312 340.974 32.1812 340.903 32.705C340.356 36.6739 340.382 40.616 341.553 44.7192ZM350.978 21.7921C350.63 22.6383 351.428 22.9539 352.156 23.2763C352.851 23.5852 353.199 23.3233 353.025 22.5846C352.858 21.8794 353.122 21.3758 353.334 20.7311C353.72 19.5693 352.349 19.8916 351.86 19.4014C351.602 19.1462 351.1 19.0992 350.913 19.623C350.83 19.858 350.894 20.1602 350.939 20.4222C351.004 20.7848 351.094 21.1474 350.971 21.7921H350.978ZM366.544 34.8338C366.434 35.2838 366.602 35.5793 367.142 35.68C367.471 35.7404 367.638 35.68 367.69 35.3375C367.844 34.2496 368.005 33.1616 368.147 32.0737C368.179 31.8185 368.063 31.6103 367.78 31.5768C367.554 31.5499 367.381 31.6842 367.335 31.879C367.117 32.8527 366.537 33.719 366.544 34.8338ZM334.305 36.1501C334.363 36.4993 334.041 37.097 334.659 37.1977C335.18 37.285 335.56 36.9291 335.708 36.365C335.785 36.0762 335.869 35.7807 335.998 35.5121C336.262 34.948 335.979 34.76 335.521 34.5585C335.039 34.3503 334.736 34.404 334.511 34.9211C334.343 35.3039 334.331 35.7001 334.298 36.1434L334.305 36.1501Z" fill="white"/>
<path d="M306.122 115.871C302.729 115.508 299.246 115.73 295.957 114.676C293.421 113.863 291.187 112.298 289.571 110.102C288.657 108.853 288.399 107.127 287.582 105.744C286.577 104.045 286.539 102.124 286.384 100.23C286.371 100.062 286.384 99.8744 286.32 99.7334C285.444 97.8665 285.573 95.7913 285.181 93.8304C285.148 93.6692 285.116 93.4946 285.116 93.3334C285.135 91.9567 285.013 90.6069 284.82 89.2369C284.62 87.7998 284.691 86.2888 284.672 84.8046C284.653 83.2533 284.672 81.7087 284.318 80.1776C284.157 79.4926 284.176 78.7874 284.421 78.089C284.987 76.437 284.62 74.7379 284.479 73.0792C284.215 69.99 284.865 66.9881 285.11 63.946C285.251 62.1798 285.824 60.4538 285.515 58.6473C285.399 57.9825 285.515 57.3177 285.715 56.6528C285.882 56.0753 286.05 55.444 285.985 54.8665C285.676 52.1198 286.745 49.635 287.35 47.0831C287.775 45.2967 288.592 43.591 288.869 41.771C289.371 38.5073 291.528 35.9285 292.107 32.7251C292.5 30.5493 293.794 28.8972 295.056 27.2452C295.629 26.493 295.989 25.6334 296.42 24.8141C297.18 23.3904 297.985 22.0205 299.176 20.9325C300.528 19.6901 301.3 17.8098 302.987 16.9569C304.609 16.1376 306.231 14.9959 308.182 16.0301C308.523 16.2115 308.774 16.0234 309.051 15.8085C310.171 14.9355 310.602 14.9959 311.413 16.1443C311.812 16.7084 312.405 17.0039 312.945 17.3665C314.214 18.2194 315.282 19.3476 316.583 20.1737C317.51 20.7646 317.909 21.9667 318.398 22.9808C318.778 23.7665 319.183 24.4985 319.801 25.1365C321.018 26.3923 321.578 28.0511 321.881 29.7367C322.267 31.8588 322.994 33.8869 323.387 35.9889C323.722 37.7618 324.404 39.4743 324.314 41.3345C324.205 43.591 324.385 45.8474 324.797 48.0434C325.247 50.4342 325.73 52.8786 325.35 55.2291C325.009 57.3378 325.853 59.5271 324.739 61.5619C324.314 62.3342 324.945 63.2878 324.771 64.1474C324.121 67.3709 324.224 70.6616 323.838 73.9052C323.677 75.2282 323.393 76.5377 323.097 77.8338C322.969 78.3845 323.11 78.9016 323.059 79.4389C322.814 81.9841 322.396 84.5158 322.479 87.0879C322.512 88.0214 322.125 88.8273 321.829 89.6869C321.559 90.4793 321.276 91.3053 321.398 92.2321C321.617 93.9311 321.115 95.5764 320.741 97.2016C320.342 98.9275 320.014 100.667 319.608 102.393C319.125 104.468 318.572 106.516 317.831 108.504C317.555 109.243 316.853 109.639 316.441 110.297C314.947 112.654 312.701 114.125 310.312 115.206C309.064 115.77 307.577 115.985 306.122 115.871ZM312.282 48.8291C312.308 47.9091 312.205 47.0092 311.903 46.1429C311.31 44.4573 311.246 42.5769 310.171 41.0659C309.92 40.7167 309.727 40.2533 309.276 40.2063C307.551 40.0451 305.845 39.7295 304.139 40.5555C303.321 40.9517 302.877 41.4688 302.806 42.3352C302.703 43.5037 302.343 44.5849 301.847 45.6057C301.178 46.9891 300.875 48.4195 300.779 49.9641C300.676 51.6027 300.508 53.2547 300.013 54.8396C299.787 55.5582 299.832 56.2902 299.903 57.0423C300.058 58.7481 300.219 60.4606 299.337 62.0656C299.124 62.4484 299.118 62.9722 299.066 63.4423C298.828 65.7659 299.201 68.1365 298.558 70.4265C298.48 70.7019 298.525 71.0376 298.603 71.3197C299.053 72.9516 298.976 74.6641 299.478 76.3295C299.884 77.6659 299.884 79.1971 300.328 80.5671C300.618 81.4737 300.328 82.4945 300.849 83.2936C302.034 85.0867 302.974 87.0611 304.544 88.5586C305.201 89.1832 305.845 89.2235 306.231 88.4109C306.785 87.2424 307.544 86.1948 307.937 84.9121C308.561 82.8437 308.787 80.7081 309.192 78.6061C309.81 75.3692 310.312 72.0987 310.544 68.8215C310.84 64.5839 311.606 60.4203 311.909 56.1827C312.083 53.7248 311.96 51.2669 312.282 48.8291ZM298.513 40.71C298.834 40.6092 298.957 40.3272 299.098 40.0653C299.562 39.1922 299.935 38.2655 300.901 37.8021C301.152 37.6812 301.551 37.3656 301.422 37.0365C301.049 36.0964 299.935 36.6135 299.356 35.9956C299.163 35.7942 298.944 35.9553 298.802 36.1769C298.448 36.7142 298.12 37.2783 298.345 37.9431C298.577 38.6349 298.686 39.2728 298.307 39.9578C298.191 40.166 298.146 40.5555 298.525 40.7033L298.513 40.71ZM307.403 37.4529C308.162 37.5536 308.928 37.6611 309.688 37.7484C310.087 37.7887 310.3 37.4932 310.332 37.1507C310.377 36.6806 310.016 36.7343 309.727 36.7813C309.385 36.8351 309.057 36.7679 308.806 36.5732C307.493 35.5524 306.373 36.4724 305.214 36.9358C304.969 37.0365 304.815 37.2917 304.924 37.6007C305.034 37.9096 305.298 37.8156 305.504 37.7753C306.135 37.6678 306.746 37.4328 307.403 37.4529ZM298.873 47.4524C299.961 45.9011 300.553 44.1282 301.017 42.3016C301.068 42.0934 301.229 41.7912 300.94 41.6837C300.624 41.5561 300.502 41.8852 300.392 42.1203C299.607 43.8126 299.189 45.6124 298.873 47.4592V47.4524ZM297.438 27.2385C296.82 28.642 295.358 29.5755 295.3 31.3686C296.485 30.2001 298.332 29.4949 297.438 27.2385ZM320.967 49.4671C320.793 49.5007 320.606 49.6686 320.69 49.8566C320.992 50.5685 321.044 51.3206 321.153 52.0661C321.179 52.2675 321.385 52.3884 321.597 52.3683C321.739 52.3548 321.842 52.2407 321.823 52.0996C321.726 51.3744 321.636 50.6491 321.494 49.9305C321.456 49.7223 321.256 49.5343 320.967 49.4604V49.4671ZM306.456 28.1719C306.437 27.8832 306.392 27.6213 306.057 27.5877C305.838 27.5675 304.905 28.7159 304.924 28.9711C304.944 29.1793 305.053 29.2666 305.246 29.1927C305.761 28.9913 306.437 28.998 306.456 28.1719ZM301.905 28.8905C301.596 29.4815 301.126 29.6964 300.804 30.0657C300.489 30.4284 299.955 30.6164 299.781 31.382C300.74 30.65 302.04 30.5694 301.905 28.8905ZM309.373 23.6926C308.806 24.4515 308.162 24.8679 308.098 25.7745C309.276 25.5663 309.527 24.9014 309.373 23.6926Z" fill="white"/>
<path d="M406.753 54.7993C405.787 54.4568 406.366 53.7852 406.411 53.2279C406.418 53.107 406.598 53.0062 406.72 53.0801C406.804 53.1338 406.843 53.2883 406.881 53.4025C407.19 54.3628 408.677 54.7859 409.212 53.9263C409.862 52.8786 410.853 52.9122 411.748 52.6369C412.186 52.5026 412.508 52.3347 412.772 51.9653C413.609 50.7834 414.458 49.6149 415.366 48.4866C415.218 49.2791 414.619 49.7895 414.278 50.4543C413.892 51.193 413.473 51.9116 413.055 52.6369C412.74 53.1876 412.624 53.7181 413.267 54.0807C413.808 54.3896 414.516 54.6583 414.935 54.0673C415.765 52.9122 416.885 51.9922 417.458 50.6423C417.69 50.0984 418.012 49.6216 418.591 49.4671C419.357 49.2656 419.75 48.6881 420.143 48.0501C421.005 46.66 421.887 45.29 422.769 43.9267C422.962 43.6245 423.136 43.2753 423.773 43.1679C423.117 44.4438 422.621 45.6325 421.984 46.7742C420.452 49.5141 418.166 51.7034 416.821 54.571C416.769 54.6851 416.692 54.806 416.602 54.9C414.445 56.9953 413.126 59.7286 411.439 62.1865C411.053 62.7506 410.512 63.214 410.029 63.7109C409.444 64.322 409.386 65.1212 409.862 65.8129C411.22 67.7873 411.903 70.0773 412.611 72.3472C412.946 73.4284 413.184 74.523 413.763 75.5371C414.426 76.7056 414.574 78.1024 414.645 79.4187C414.754 81.5207 415.617 83.3138 416.39 85.1538C417.188 87.0611 418.353 88.8474 418.887 90.8218C419.525 93.1924 420.928 95.2474 421.301 97.6986C421.366 98.1216 421.617 98.5112 421.797 98.9007C422.267 99.9013 422.557 100.929 422.769 102.037C423.117 103.857 424.018 105.542 423.966 107.483C423.954 107.967 424.359 108.464 424.597 108.94C424.829 109.397 425.067 109.881 424.951 110.384C424.687 111.486 425.164 112.352 425.634 113.238C426.097 114.111 426.026 114.266 425.112 114.521C424.211 114.77 423.265 114.796 422.376 115.152C421.803 115.387 420.58 114.575 420.316 113.883C419.434 111.539 418.134 109.484 416.576 107.55C415.945 106.771 415.314 105.918 415.096 104.804C414.845 103.555 414.027 102.52 413.628 101.291C412.978 99.2633 412.572 97.1613 411.774 95.1668C411.059 93.3737 410.615 91.4799 409.566 89.8212C408.877 88.7198 408.877 87.3297 408.542 86.0806C408.008 84.0793 407.557 82.0579 406.566 80.1708C405.826 78.7606 405.027 77.2764 404.879 75.5774C404.847 75.2147 404.712 74.8588 404.583 74.5163C403.676 72.186 402.742 69.8691 401.841 67.5321C401.532 66.7262 401.448 65.8398 401.068 65.054C400.579 64.0467 400.064 63.9124 398.719 64.5033C397.747 64.9264 397.566 65.3697 397.908 66.3971C398.493 68.1566 398.094 69.9497 397.985 71.7092C397.888 73.2874 397.811 74.8924 397.573 76.4235C397.122 79.2911 397.038 82.1855 396.897 85.0531C396.71 88.8743 396.247 92.6686 396.44 96.5368C396.607 99.9214 396.929 103.32 396.781 106.724C396.71 108.208 397.328 109.619 397.225 111.13C397.174 111.922 397.038 112.654 396.775 113.38C396.659 113.695 396.466 113.87 396.15 113.937C393.845 114.434 391.567 115.032 389.442 116.133C389.243 116.24 389.011 116.281 388.811 116.388C388.316 116.637 388.116 116.529 388.116 115.918C388.123 114.911 388.052 113.903 388.032 112.903C388.013 112.191 388.026 111.472 387.588 110.868C387.402 110.599 387.537 110.378 387.601 110.116C387.736 109.552 387.781 108.927 387.492 108.437C386.726 107.141 387.138 105.871 387.356 104.555C387.601 103.071 387.91 101.526 387.749 100.062C387.582 98.5515 388.09 97.2352 388.271 95.8316C388.425 94.596 388.567 93.3737 387.981 92.1985C387.923 92.0843 387.839 91.9366 387.865 91.8291C388.509 89.425 387.82 86.9469 388.354 84.4823C388.599 83.354 388.869 82.0042 388.599 80.7282C388.541 80.4663 388.605 80.1977 388.721 79.9425C389.075 79.1635 389.217 78.3039 389.095 77.4779C388.689 74.6842 389.178 71.9174 389.301 69.1438C389.455 65.6517 389.68 62.1663 389.687 58.6675C389.687 56.9684 389.938 55.2694 389.796 53.5636C390.498 54.5844 391.167 54.8127 392.21 54.3494C392.326 54.2956 392.455 54.1815 392.552 54.2083C393.942 54.5844 393.466 53.1808 393.865 52.6436C394.071 52.375 393.575 52.2541 393.285 52.2071C393.067 52.1668 392.7 52.3683 392.738 51.8914C392.764 51.6094 392.996 51.4885 393.24 51.5221C393.968 51.6363 394.38 51.2938 394.689 50.6289C394.914 50.1454 395.197 50.2931 395.339 50.7229C395.493 51.1997 395.622 51.6833 395.635 52.2004C395.68 54.121 396.626 54.7389 398.274 53.9196C398.667 54.5643 398.48 55.256 398.3 55.8738C398.068 56.6931 398.674 57.0087 399.002 57.5057C399.523 57.1095 400.483 57.8818 400.759 56.767C400.895 56.2364 401.274 55.9611 401.847 55.941C402.356 55.9208 402.729 55.6119 403.038 55.1754C403.785 54.1345 404.242 54.1546 404.931 55.2157C405.542 56.1626 406.019 56.2432 406.804 55.538C407.126 55.256 407.216 54.9672 406.753 54.7993Z" fill="#E8C8FB"/>
<path d="M332.335 58.56C332.361 57.1027 332.657 55.7126 332.773 54.2889C332.85 53.2883 332.87 52.2877 333.314 51.1191C333.314 52.9458 333.359 54.5777 333.301 56.2096C333.243 57.9489 332.863 59.6748 333.082 61.4343C333.172 62.1327 333.288 62.7506 334.086 62.7774C334.833 62.7976 335.618 62.7841 335.683 61.6626C335.728 60.8568 335.844 60.0576 335.882 59.245C335.908 58.654 336.275 58.3989 336.732 58.3116C337.273 58.2041 337.324 58.7145 337.414 59.0906C337.556 59.6681 337.659 60.2524 338.431 60.1651C339.127 60.0912 339.397 59.5942 339.526 58.9562C339.835 57.4184 339.719 55.8671 339.655 54.3225C339.61 53.2413 339.616 53.3621 340.582 53.5703C342.075 53.8927 342.075 55.1082 342.217 56.176C342.455 58.0093 343.324 58.5533 344.953 57.7676C347.186 56.6864 349.214 55.256 351.229 53.7987C351.564 53.5569 352.04 53.0935 352.317 53.4024C352.658 53.7785 352.04 54.1143 351.834 54.4434C351.596 54.8329 351.178 55.0948 350.901 55.4574C350.611 55.8469 350.315 56.2566 350.379 56.8274C350.47 57.6803 349.749 58.1101 349.369 58.7078C349.066 59.1846 348.545 59.6681 349.105 60.1919C349.646 60.6956 350.341 60.7695 350.972 60.2456C351.879 59.4801 352.729 58.6406 353.682 57.9691C354.931 57.0826 356.006 55.9879 357.171 54.8732C357.429 55.3164 357.261 55.6052 357.158 55.9074C357.036 56.2499 356.888 56.5991 356.83 56.955C356.514 58.7346 356.727 58.8555 358.439 58.8219C359.579 58.7951 360.235 58.2914 360.731 57.3311C361.156 56.5118 362.051 56.5924 362.739 56.3707C363.254 56.2096 363.126 56.7938 363.036 57.0692C362.675 58.1504 362.282 59.2652 361.516 60.0778C359.559 62.1394 357.905 64.4698 355.987 66.5583C355.021 67.6127 354.042 68.5663 352.723 69.1841C351.931 69.5467 351.229 70.2519 350.521 70.8294C349.948 71.3062 350.167 72.0248 350.489 72.5822C351.306 73.9925 352.208 75.349 352.929 76.8332C353.276 77.545 354.126 77.901 354.422 78.6598C355.607 81.6953 357.931 83.8443 359.855 86.3022C360.248 86.8058 360.712 87.2088 361.272 87.511C361.523 87.6453 361.787 87.8266 361.954 88.0549C362.913 89.4048 363.905 90.7278 364.774 92.138C365.739 93.6826 366.756 95.0862 368.218 96.2211C369.505 97.2083 370.381 98.7193 371.063 100.237C371.913 102.117 372.409 104.146 373.014 106.127C373.123 106.469 373.329 106.785 373.516 107.1C374.095 108.054 374.546 109.034 374.475 110.216C374.449 110.613 374.475 111.083 374.675 111.398C375.75 113.131 375.054 115.173 375.595 117.006C375.769 117.61 375.344 117.96 374.675 118.262C373.387 118.833 372.022 119.101 370.735 119.625C369.904 119.967 369.319 119.867 368.81 118.967C367.761 117.1 367.162 115.018 366.196 113.124C365.533 111.821 365.263 110.317 364.259 109.196C364.046 108.961 363.918 108.632 363.769 108.336C363.609 108.007 363.551 107.55 363.299 107.349C361.6 105.972 361.581 103.783 360.84 101.95C360.383 100.815 360.106 99.5655 359.083 98.7932C358.639 98.4641 358.549 97.9202 358.42 97.5105C357.853 95.7309 356.727 94.2467 356.122 92.5007C355.858 91.7284 355.42 91.0635 354.731 90.6069C353.476 89.7876 353.354 88.2363 352.691 87.0409C351.487 84.8785 350.128 82.8638 348.371 81.158C347.167 79.9761 346.408 78.4046 345.139 77.2764C344.65 76.8399 344.219 76.3497 343.607 76.0743C342.745 75.6848 342.088 76.1012 341.515 76.6922C341 77.2227 341.187 77.8607 341.444 78.4651C342.262 80.3454 342.481 82.4071 343.034 84.3681C343.118 84.6636 343.163 84.9725 343.343 85.1941C344.36 86.4499 344.843 88.0012 345.571 89.4182C345.996 90.2577 345.79 91.2046 345.809 92.0977C345.88 95.9659 345.184 99.8207 345.41 103.696C345.609 107.161 345.017 110.539 344.566 113.937C344.335 115.656 343.749 117.315 343.401 119.027C343.137 120.317 342.674 120.505 341.386 120.552C339.841 120.612 338.296 120.652 336.803 121.196C336.391 121.344 335.908 121.29 335.457 121.324C334.814 121.364 334.595 120.982 334.601 120.384C334.621 119.175 334.653 117.973 334.653 116.771C334.653 116.066 334.685 115.347 334.279 114.716C334.196 114.588 334.138 114.387 334.17 114.246C334.588 112.446 334.048 110.713 333.797 108.967C333.706 108.289 333.661 107.644 333.713 106.973C333.816 105.589 333.861 104.193 333.494 102.849C332.953 100.828 333.127 98.7663 333.03 96.7181C332.998 96.0801 333.03 95.4287 332.689 94.8579C332.554 94.6362 332.56 94.4146 332.644 94.1796C333.365 92.0776 333.056 89.942 332.882 87.8065C332.818 87.0073 332.49 86.1947 332.876 85.3687C332.992 85.127 332.934 84.7576 332.876 84.4688C332.232 81.4804 332.715 78.3509 331.782 75.396C331.614 74.8588 331.82 74.1939 331.852 73.5895C331.936 72.1054 331.827 70.6347 331.659 69.164C331.44 67.1963 332.033 65.2756 331.936 63.3348C331.859 61.7029 332.297 60.1382 332.335 58.56Z" fill="#E8C8FB"/>
<path d="M298.744 51.1997C298.358 52.281 298.326 53.3756 298.326 54.4837C298.339 56.2163 298.088 57.8952 297.779 59.5875C297.515 61.0045 297.334 62.4484 297.302 63.8855C297.283 64.9734 297.141 66.0412 296.967 67.0956C296.601 69.3453 297.025 71.6017 296.813 73.8515C296.8 74.0126 296.794 74.194 296.826 74.3551C297.714 78.1226 297.94 82.0579 299.517 85.6709C299.832 86.4029 300.354 86.9469 300.791 87.4909C302.085 89.0892 302.896 91.1979 304.937 92.0642C305.645 92.3597 306.192 92.3261 306.862 91.7351C309.057 89.8077 309.405 87.0342 310.158 84.4353C310.28 84.0189 310.39 83.5958 310.499 83.1794C311.272 80.2716 311.993 77.3369 312.224 74.3216C312.43 71.595 313.08 68.9289 313.119 66.189C313.158 63.0864 313.975 60.0979 314.304 57.0356C314.374 56.3708 314.284 55.6925 314.336 55.0276C314.426 54.027 314.709 53.8994 315.501 54.4165C315.668 54.524 315.816 54.7254 315.99 54.7456C317.291 54.8732 317.278 55.7731 317.291 56.8341C317.316 58.5802 317.445 60.333 317.233 62.079C317.175 62.576 317.4 62.952 317.838 62.9185C318.379 62.8715 319.093 63.449 319.447 62.5625C319.866 61.4948 320.175 60.4135 320.059 59.2316C319.975 58.372 320.072 57.6467 321.127 57.4184C321.61 57.3109 321.913 56.7535 322.157 56.27C322.267 56.0551 322.383 55.8134 322.647 55.8469C322.949 55.8872 323.046 56.176 323.11 56.4312C323.149 56.5924 323.162 56.7737 323.136 56.9349C322.705 59.3122 323.02 61.7835 322.293 64.134C321.835 65.5913 321.874 67.1292 321.835 68.6267C321.758 71.5413 321.359 74.3887 320.812 77.2361C320.612 78.2838 320.522 79.3784 320.535 80.4462C320.561 82.1721 320.142 83.8577 320.265 85.5836C320.303 86.094 320.233 86.5842 320.104 87.0812C319.672 88.7064 319.363 90.3517 319.241 92.044C319.048 94.643 318.102 97.1009 317.748 99.6595C317.426 102.05 316.486 104.24 315.997 106.57C315.849 107.295 315.192 107.92 314.735 108.531C313.492 110.223 311.993 111.667 310.1 112.574C308.182 113.494 306.115 113.406 304.126 113.158C302.33 112.936 300.521 112.943 298.731 112.681C294.521 112.057 291.611 109.719 290.086 105.583C289.803 104.824 289.307 104.193 289.075 103.42C288.818 102.581 288.631 101.735 288.599 100.841C288.579 100.345 288.599 99.767 288.373 99.364C287.614 98.0478 287.704 96.5233 287.633 95.1534C287.517 92.7895 286.989 90.4927 286.873 88.1356C286.828 87.2692 286.893 86.3828 286.468 85.4963C286.281 85.1135 286.783 84.2204 286.661 83.5085C286.552 82.9175 286.474 82.3198 286.404 81.7222C286.288 80.8558 286.391 80.0164 286.59 79.1568C286.803 78.2435 286.886 77.3033 286.481 76.3765C286.333 76.034 286.346 75.5707 286.391 75.1812C286.783 72.0181 286.629 68.8081 287.157 65.6517C287.356 64.4631 287.343 63.2341 287.363 62.0186C287.382 60.3733 287.588 58.7548 287.961 57.1565C288 56.9886 287.987 56.8073 288.187 56.7804C289.564 56.5991 289.481 55.2895 289.944 54.2889C291.116 55.2291 291.65 55.2694 292.77 54.524C293.266 54.2016 294.508 55.0814 294.47 55.8805C294.418 56.8408 294.907 57.2035 295.628 57.2572C296.452 57.3177 297.032 56.6998 297.051 55.9141C297.07 55.0075 297.418 54.2218 297.585 53.3756C297.888 51.8713 298.21 50.3737 298.525 48.8694C298.545 48.7821 298.603 48.7015 298.725 48.4531C299.066 49.5276 299.034 50.4073 298.744 51.1997Z" fill="#E8C8FB"/>
<path d="M210.531 54.5038C210.609 53.6576 210.647 52.8182 210.267 52.0258C210.036 51.5422 210.126 51.1527 210.628 50.9714C211.169 50.7834 211.188 51.3206 211.304 51.6161C211.523 52.1802 211.651 52.7712 211.857 53.342C212.289 54.5441 212.958 54.947 214.117 54.5844C214.606 54.4299 215.05 54.4299 215.533 54.4837C216.299 54.5575 216.872 54.3896 216.744 53.3487C216.692 52.8921 216.814 52.4153 216.834 51.9452C216.847 51.5758 216.776 51.1863 217.278 51.0856C217.696 50.9983 218.057 51.1527 218.153 51.5288C218.443 52.6167 219.048 53.0398 220.136 52.9391C220.651 52.8921 220.748 53.5032 220.818 53.9061C221.127 55.6992 221.424 57.4855 221.649 59.2853C221.784 60.3598 222.048 61.3806 222.376 62.4014C223.072 64.5504 222.994 66.8605 223.542 69.0431C224.198 71.6689 224.108 74.3954 224.623 77.0347C224.7 77.4577 224.668 77.9144 224.649 78.3509C224.533 81.0909 225.009 83.7435 225.499 86.4231C225.82 88.1691 226.22 89.9017 226.516 91.6478C226.889 93.8169 227.501 94.5087 229.219 94.2938C229.67 94.2333 229.96 93.9983 230.037 93.5685C230.179 92.8096 230.288 92.044 230.34 91.2717C230.378 90.7681 230.378 90.2845 230.591 89.8077C230.835 89.2705 230.816 88.6862 230.558 88.1355C230.217 87.417 230.23 86.7186 230.642 86.0268C231.061 85.3217 231.26 84.5561 231.164 83.71C231.112 83.2399 231.209 82.7563 231.408 82.3265C232.457 80.0097 232.638 77.4846 233.088 75.02C233.365 73.5224 233.384 71.7898 234.955 70.8966C235.959 70.3258 237.067 70.3191 238.167 70.272C239.809 70.1982 241.47 70.4869 243.099 70.0639C244.373 69.7281 245.648 69.3722 246.903 68.9491C248.416 68.4454 249.201 68.8483 249.465 70.4869C249.723 72.0785 249.806 73.697 249.916 75.3087C250.07 77.5786 250.592 79.7545 251.892 81.6483C252.195 82.0915 252.53 82.5414 252.626 83.0653C252.974 84.8852 254.126 86.1343 255.298 87.4035C255.755 87.9005 256.218 87.8333 256.707 87.6654C257.216 87.4908 257.467 87.1013 257.448 86.5037C257.428 85.6373 257.267 84.677 256.971 84.0054C256.302 82.4743 256.843 81.1849 257.152 79.8015C257.19 79.6403 257.325 79.459 257.287 79.3314C256.592 76.9876 258.265 75.0133 258.214 72.777C258.175 71.2391 258.285 69.6676 258.426 68.1902C258.581 66.6456 257.943 64.9734 258.845 63.5094C258.858 63.4826 258.87 63.4356 258.864 63.4087C258.265 61.347 259.707 59.5942 259.675 57.6333C259.662 56.7737 259.392 55.9342 259.662 55.0478C259.849 54.4635 260.216 54.4702 260.641 54.4702C261.104 54.4702 261.233 54.759 261.252 55.1955C261.291 55.9812 261.561 56.6931 261.928 57.3781C262.083 57.6669 262.257 58.0161 262.237 58.3183C262.192 58.9025 262.295 59.3726 262.868 59.5002C263.396 59.6211 263.956 59.8964 264.452 59.2652C264.754 58.8824 265.173 58.7481 265.746 58.9764C266.937 59.4532 267.458 59.151 267.941 57.9355C268.398 56.7871 268.746 55.6119 268.958 54.3896C268.99 54.215 269.016 54.0136 269.196 54.0136C269.46 54.027 269.447 54.2822 269.441 54.477C269.441 54.8799 269.376 55.2828 269.389 55.6858C269.46 57.3579 271.52 58.513 272.898 57.6199C273.471 57.2505 273.451 56.4648 273.838 55.6052C273.889 58.3183 273.863 60.7359 273.509 63.1266C273.232 64.96 273.117 66.8001 273.026 68.6536C272.885 71.5346 272.82 74.429 272.351 77.2966C272.202 78.1965 272.351 79.1031 272.454 80.0097C272.846 83.5085 271.913 86.9066 271.72 90.3584C271.52 93.7901 271.012 97.1882 270.522 100.566C269.885 104.918 269.582 109.33 268.507 113.608C268.282 114.514 268.462 115.428 268.501 116.328C268.546 117.409 268.128 118.295 267.799 119.235C267.664 119.632 267.329 119.672 267.027 119.746C265.495 120.102 263.937 119.92 262.392 119.988C261.323 120.035 260.28 120.075 259.263 120.404C258.993 120.491 258.703 120.538 258.549 120.297C258.098 119.605 257.358 119.108 257.01 118.409C255.999 116.375 254.738 114.514 253.637 112.547C252.826 111.096 252.118 109.558 251.551 107.98C251.281 107.228 250.527 106.912 250.386 106.093C250.218 105.16 249.44 104.495 249.317 103.481C249.163 102.225 248.435 101.144 247.746 100.156C246.774 98.7596 246.491 97.0874 245.712 95.6167C245.004 94.2669 244.534 92.7895 243.903 91.3926C243.543 90.5935 243.099 89.7809 242.056 89.8816C241.064 89.9823 240.433 90.5599 240.086 91.5538C239.77 92.4671 239.397 93.3468 238.766 94.1191C238.148 94.8847 238.457 95.9458 238.328 96.8524C238.148 98.1619 237.73 99.317 237.131 100.432C236.043 102.453 235.599 104.703 235.013 106.899C234.646 108.289 234.241 109.679 233.738 111.022C232.766 113.635 232.02 116.301 231.633 119.068C231.485 120.115 230.925 120.733 230.069 120.861C229.149 121.002 228.267 121.405 227.314 121.337C226.252 121.257 225.293 121.667 224.34 122.09C224.127 122.184 223.934 122.311 223.722 122.392C222.254 122.909 221.81 122.674 221.147 121.25C220.715 120.33 220.49 119.35 220.246 118.376C220.059 117.651 219.846 116.952 219.428 116.334C219.293 116.133 219.203 115.925 219.203 115.683C219.151 113.574 218.462 111.613 217.96 109.605C217.381 107.309 216.943 104.972 216.467 102.641C215.965 100.163 215.836 97.6045 215.128 95.1735C214.716 93.7431 214.123 92.3597 213.57 90.9695C213.332 90.3786 213.061 89.8077 213.1 89.1429C213.106 89.0086 213.1 88.8474 213.029 88.7467C211.851 87.0073 211.999 84.8315 211.31 82.9242C210.86 81.6953 210.731 80.3387 210.486 79.0359C210.029 76.6653 209.675 74.2678 209.057 71.9241C208.561 70.0437 208.066 68.1633 207.577 66.283C207.126 64.5638 206.669 62.8446 206.238 61.1254C206.135 60.7023 206.102 60.2591 206.057 59.8226C206.019 59.4263 206.083 59.2585 206.54 59.4801C207.602 60.0039 208.31 59.6278 208.632 58.4593C208.742 58.0564 208.71 57.6534 208.658 57.2505C208.516 56.2432 208.504 55.3634 209.862 55.3567C210.3 55.3567 210.486 54.9605 210.531 54.5038Z" fill="#E8C8FB"/>
<path d="M116.596 99.4379C116.776 99.8476 116.737 100.284 116.737 100.727C116.692 104.468 116.441 108.215 116.666 111.956C116.744 113.198 116.937 114.414 116.557 115.656C116.357 116.308 116.048 116.757 115.424 116.885C112.913 117.409 110.519 118.336 108.06 119.047C106.907 119.383 105.774 119.773 104.641 120.162C104.197 120.31 103.766 120.37 103.302 120.31C102.826 120.243 102.613 119.947 102.601 119.497C102.51 116.166 102.137 112.856 102.337 109.505C102.44 107.638 102.562 105.663 101.757 103.83C101.423 103.071 101.918 102.326 102.066 101.587C102.137 101.218 102.266 100.875 102.144 100.499C101.32 98.0142 101.693 95.3683 101.223 92.8231C101.081 92.0709 101.609 91.2717 101.461 90.4457C101.004 87.961 101.004 85.4292 100.85 82.9243C100.74 81.0976 100.869 79.2105 100.476 77.4309C100.18 76.0945 100.148 74.7312 99.8582 73.3948C99.5492 71.9577 99.6973 70.3661 99.8968 68.8819C100.141 67.0687 100.129 65.2689 100.032 63.4624C99.8325 59.9166 100.302 56.4782 101.493 53.154C101.513 53.107 101.596 53.0801 101.648 53.0465C102.478 54.3359 102.652 54.4031 104.158 53.7718C104.699 53.5435 104.995 53.6107 105.163 54.2352C105.324 54.8329 105.407 55.7059 106.135 55.6656C106.978 55.6119 107.66 54.9806 108.021 54.1278C108.594 52.7913 108.761 53.0062 109.959 53.6107C111.761 54.524 111.117 56.176 111.362 57.4654C111.864 60.1114 111.626 62.8379 111.574 65.5376C111.542 67.1694 111.877 68.8081 111.516 70.4467C111.439 70.7959 111.459 71.1652 111.323 71.5212C111.098 72.139 111.195 72.73 111.71 73.1665C112.328 73.6836 112.424 74.382 112.527 75.1342C112.978 78.3979 113.203 81.6886 113.95 84.9188C114.471 87.1954 114.626 89.566 114.973 91.8963C115.366 94.4415 115.533 97.0472 116.596 99.4379Z" fill="#E8C8FB"/>
</g>
<defs>
<clipPath id="clip0_407_41">
<rect width="438" height="129" fill="white"/>
</clipPath>
</defs>
</svg>
