<svg width="1728" height="113" viewBox="0 0 1728 113" fill="none" xmlns="http://www.w3.org/2000/svg">
<g filter="url(#filter0_d_177_23)">
<path d="M1853.14 48.1864L1874.15 49.6062L1874.2 62.105L1853.19 61.6851C1847.65 53.7062 1833.14 51.7615 1828.14 51.7806C1823.13 51.7997 1817.65 57.8206 1816.16 58.8264C1814.66 59.8321 1795.65 59.9046 1788.14 58.9332C1780.64 57.9618 1778.11 51.4714 1777.11 51.4752C1776.11 51.4791 1761.61 53.5355 1758.61 54.047C1756.21 54.4561 1749.6 51.9146 1746.59 50.5928C1744.16 43.002 1737.89 43.7926 1735.06 45.1367C1717.07 48.7054 1713.55 43.7188 1706.51 34.7455C1699.47 25.7723 1695.47 27.2876 1694.97 27.2895C1687.79 31.7169 1676.99 35.1914 1672.5 36.3753C1659.5 37.9249 1659.43 20.425 1646.92 18.9727C1643.14 18.535 1636.77 24.8448 1633.95 28.5222C1633.43 25.0242 1620.88 13.572 1614.39 17.5967C1609.2 20.8166 1598.92 25.9892 1594.42 28.173C1591.89 20.1826 1583.87 15.2131 1579.87 15.2284C1575.86 15.2437 1566.89 23.778 1566.9 26.7779C1566.92 29.7779 1559.94 37.8046 1559.94 36.3046C1559.93 35.1046 1554.92 33.8237 1552.42 33.3332C1552.42 32.8332 1550.82 32.4393 1544.42 34.8637C1538.42 35.8866 1524.37 23.9401 1520.37 23.9554C1517.17 23.9676 1514.04 25.9796 1512.88 26.984C1507.64 18.2039 1503.34 19.687 1501.85 21.526C1501.19 22.6952 1497.96 25.7409 1490.37 28.5699C1480.88 32.1061 1482.33 19.6005 1479.84 21.61C1477.34 23.6195 1465.86 29.1634 1456.87 32.1977C1447.87 35.232 1441.34 28.7568 1429.33 27.3027C1417.32 25.8485 1403.35 35.9018 1394.36 38.4361C1385.36 40.9705 1367.33 34.0392 1356.31 32.5812C1345.3 31.1232 1340.32 35.1422 1339.31 34.1461C1338.51 33.3491 1332.95 28.8369 1330.28 26.6805C1341.05 18.6393 1378.46 23.1633 1395.81 26.4305C1404.99 20.3954 1428.3 17.8065 1438.8 17.2665C1452.44 26.4145 1471.82 16.9739 1479.8 11.1101C1484.24 21.0932 1493.99 16.2226 1498.31 12.5394C1507.09 5.70591 1510.99 12.6578 1511.84 16.9879C1516.22 11.3711 1520.33 12.6222 1521.83 13.9498C1538.87 22.3848 1544.89 25.8619 1547.88 23.8505C1550.88 21.839 1553.38 22.3295 1554.88 22.3238C1556.08 22.3192 1558.72 24.6425 1559.9 25.8047C1560.73 25.9681 1562.6 25.4944 1563.38 22.2913C1564.17 19.0883 1570.68 10.9301 1573.83 7.25137C1581.81 0.420885 1590.86 12.0198 1594.39 18.6731L1603.37 13.6387C1613.35 7.20063 1618.52 6.58092 1619.86 7.07583C1624.26 6.65904 1631.39 14.5319 1634.41 18.5204C1640.88 9.99567 1652.86 3.44992 1660.42 18.4212C1667.98 33.3925 1687.94 18.3162 1689.94 18.3086C1697.12 13.4812 1700.6 16.2679 1701.44 18.2647C1717.51 34.6036 1725.85 35.6717 1728.02 34.1635C1745.21 30.0979 1747.53 35.7557 1746.55 39.0929L1759.56 41.5432C1761.96 40.3341 1772.23 39.3282 1777.06 38.9765C1785.51 50.1443 1806.94 47.8626 1816.61 45.3257C1830.57 32.8723 1846.78 42.0439 1853.14 48.1864Z" fill="white"/>
<path d="M1352.93 63.5932C1353.43 62.5913 1347.4 55.1142 1347.39 54.6142C1333.42 62.6679 1316.58 64.7317 1309.91 64.7569C1293.54 74.8194 1281.41 69.0323 1277.4 64.8809C1261.42 72.9419 1259.87 59.9477 1234.86 61.5431C1214.83 56.4195 1198.5 59.8484 1192.84 62.2034C1185.6 53.6864 1173.14 54.7183 1167.81 56.2988C1135.45 72.8223 1123.66 68.9669 1121.81 64.9738C1111.83 70.0114 1102.76 53.0469 1096.25 51.0717C1089.74 49.0965 1086.77 58.1079 1086.27 58.1098C1085.77 58.1117 1079.26 55.6365 1069.24 53.6747C1061.23 52.1053 1042.91 56.1085 1034.74 58.3063C1023.92 54.7476 992.549 56.9673 978.214 58.522C966.693 54.5659 974.693 53.5353 946.703 60.1422C918.714 66.749 924.684 58.2261 914.693 61.7643C906.699 64.5948 891.354 63.6866 884.681 62.8787C882.852 64.2191 878.394 67.0027 875.193 67.415C871.993 67.8272 869.187 66.6045 868.184 65.9417C868.192 67.9417 863.868 71.1248 861.705 72.4664C836.21 77.0637 814.168 69.1477 813.167 69.1515C812.167 69.1554 813.161 67.6515 805.671 71.1801C798.18 74.7087 793.646 66.226 793.146 66.2279C778.166 73.7851 774.128 64.3004 771.117 61.8119C768.106 59.3233 753.587 56.3787 747.072 53.4035C740.558 50.4283 731.013 39.9647 725.502 37.9857C721.094 36.4025 697.987 37.7573 686.984 38.6326C682.461 33.1498 652.455 35.7643 646.958 37.2852C641.461 38.8062 635.439 33.8292 633.944 35.3349C632.449 36.8406 610.934 35.9226 587.949 43.0104C569.561 48.6805 544.935 45.5078 534.921 43.2126C520.853 27.2661 504.893 39.8271 499.407 44.3481C495.018 47.9648 489.581 47.5522 487.41 46.8938C484.571 45.738 478.392 43.4282 476.391 43.4358C473.89 43.4454 464.353 34.9817 461.349 34.4932C458.947 34.1023 456.684 35.3443 455.852 36.0141C449.315 27.039 445.311 26.5543 435.288 22.0925C427.271 18.523 407.304 30.0326 398.323 36.2336C389.299 31.2679 379.311 35.8061 370.312 37.3404C363.113 38.5679 358.641 37.8849 357.305 37.39C350.147 40.584 331.224 45.7896 312.796 41.0598C294.368 36.3301 279.783 42.1857 274.794 45.7048C257.285 45.7716 237.824 58.8459 232.329 60.8669C226.834 62.8878 213.823 61.9374 213.819 60.9375C213.816 59.9375 208.277 50.4585 207.276 50.4623C206.476 50.4654 205.28 51.8033 204.782 52.4719C196.766 49.3024 174.407 45.5877 164.229 44.1265L114.702 43.8154C105.112 47.852 88.0151 42.2505 80.6653 38.9452L74.162 38.97L74.1677 40.47C86.737 56.9221 37.6661 45.1092 35.1647 45.1187C33.1638 45.1264 28.3445 49.4781 26.185 51.653L28.1899 52.6454C29.1922 53.1416 30.7235 61.1358 31.7182 59.632C32.5141 58.429 36.0482 58.1155 37.7156 58.1091C80.7721 66.945 75.7409 59.4641 75.7313 56.9641C75.7218 54.4641 74.2077 50.9699 76.7071 50.4603C78.7066 50.0527 95.9008 54.8872 104.248 57.3553C107.246 56.3439 114.143 54.8176 117.753 56.8038C122.265 59.2866 163.269 54.6302 165.277 56.6226C167.286 58.6149 191.808 61.0214 197.817 62.4985C202.624 63.6802 204.831 65.3051 205.334 65.9699C205.498 65.3026 206.127 63.8668 207.326 63.4622C208.824 62.9565 211.354 70.4469 213.873 74.9374C215.888 78.5297 227.385 76.3858 232.883 74.8648C240.856 66.8344 273.34 58.2104 275.838 57.2009C278.335 56.1913 283.313 49.6723 292.325 51.638C301.338 53.6036 330.855 53.991 333.858 54.4796C336.862 54.9681 352.851 49.9071 358.848 48.3842C364.846 46.8613 360.347 47.8785 367.859 49.8499C375.37 51.8212 380.35 45.8022 385.851 45.2812C390.251 44.8644 396.029 47.0757 398.368 48.2335C413.33 36.1763 418.339 37.6572 429.325 32.6153C440.312 27.5733 455.902 49.014 455.9 48.514C455.898 48.014 461.395 46.4931 464.399 46.9816C467.402 47.4702 475.435 54.9396 476.437 55.4358C477.44 55.9319 477.438 55.4319 483.954 58.9071C489.168 61.6873 493.797 60.0362 495.46 58.8632C499.117 55.6826 508.329 48.8141 515.925 46.7851C525.42 44.2489 531.956 52.724 534.967 55.2125C537.978 57.7011 553.484 57.1419 554.485 57.1381C566.104 60.6938 577.336 58.5509 581.499 57.0351C594.69 52.9847 623.656 48.8742 636.491 47.3252C639.011 52.3157 667.495 44.207 678.512 47.165C687.326 49.5314 690.532 50.7858 691.034 51.1172C706.028 47.56 721.544 49.5009 726.552 50.9818C731.56 52.4627 742.127 68.4225 747.126 67.4034C751.125 66.5882 765.826 73.6651 772.677 77.3055C780.731 90.2743 787.706 82.7487 788.708 83.2449C789.71 83.7411 792.697 79.7297 793.705 81.7259C794.713 83.722 799.727 86.7029 803.725 85.6877C807.724 84.6724 812.226 84.6547 813.226 84.6509C820.749 89.6222 845.755 87.5268 851.758 87.504L861.262 87.4677C864.864 87.454 867.414 82.7775 868.239 80.441C871.061 85.6303 879.745 80.2305 883.734 76.8819C888.949 80.062 897.913 78.1612 901.743 76.8132C905.908 75.7973 916.041 74.3587 923.254 76.7312C932.27 79.6968 943.259 75.1549 946.755 73.6415C950.251 72.1282 965.247 69.071 972.253 69.5442C979.258 70.0175 977.272 74.0251 979.768 72.5156C982.264 71.0061 1021.78 70.8553 1028.29 72.3305C1033.5 73.5107 1041.46 71.7803 1044.8 70.7676C1063.98 64.2943 1080.81 68.9635 1086.82 72.1073C1088.41 67.7012 1092.13 65.587 1093.8 65.0806C1098.79 62.0616 1108.84 74.5233 1112.36 78.5099C1115.88 82.4965 1117.87 80.9889 1118.87 79.9851C1119.67 79.1821 1122.2 79.6391 1123.37 79.9679C1132.91 87.9316 1157.37 75.8382 1168.86 69.7944C1180.34 63.7505 1191.39 75.7085 1192.89 75.7027C1194.39 75.697 1204.88 71.157 1208.39 71.6436C1211.19 72.0329 1227.24 74.4051 1234.91 75.5425C1236.58 74.2028 1243.11 72.9112 1255.94 78.4623C1268.76 84.0134 1274.96 81.0571 1276.45 78.885C1282.88 85.2613 1289.48 85.835 1291.98 85.3248C1296.99 87.3057 1309.47 78.7591 1310.97 78.7534C1322.98 81.7075 1352.43 64.5951 1352.93 63.5932Z" fill="white"/>
<path d="M26.2345 64.653C25.2283 63.1568 27.2293 63.1491 27.7276 62.6472L10.2187 62.714C6.04422 61.2299 -3.2015 59.2652 -6.78815 63.2789C-10.3747 67.2926 -13.9534 64.6396 -15.2944 62.8113C-16.4905 64.0159 -36.1289 65.3908 -45.7986 65.9277L-45.7452 79.9276C-43.2383 81.418 -15.2448 75.8112 -14.2386 77.3074C-13.4336 78.5043 -11.897 79.1318 -11.2294 79.2959C-9.56639 78.1229 -5.44059 75.5738 -2.242 74.7616C1.75623 73.7464 6.76269 74.7273 9.26962 76.2177C11.7767 77.7082 29.7802 76.1395 31.2752 74.6338C32.7703 73.1281 29.7611 71.1395 27.7429 66.6472C25.7248 62.1549 27.2407 66.1491 26.2345 64.653Z" fill="white"/>
</g>
<defs>
<filter id="filter0_d_177_23" x="-60.7988" y="0.169067" width="1950" height="112.793" filterUnits="userSpaceOnUse" color-interpolation-filters="sRGB">
<feFlood flood-opacity="0" result="BackgroundImageFix"/>
<feColorMatrix in="SourceAlpha" type="matrix" values="0 0 0 0 0 0 0 0 0 0 0 0 0 0 0 0 0 0 127 0" result="hardAlpha"/>
<feOffset dy="10"/>
<feGaussianBlur stdDeviation="7.5"/>
<feComposite in2="hardAlpha" operator="out"/>
<feColorMatrix type="matrix" values="0 0 0 0 0 0 0 0 0 0 0 0 0 0 0 0 0 0 0.1 0"/>
<feBlend mode="normal" in2="BackgroundImageFix" result="effect1_dropShadow_177_23"/>
<feBlend mode="normal" in="SourceGraphic" in2="effect1_dropShadow_177_23" result="shape"/>
</filter>
</defs>
</svg>
