<svg width="24" height="24" viewBox="0 0 24 24" fill="none" xmlns="http://www.w3.org/2000/svg">
<path d="M7.64018 10.38C7.64018 10.63 7.66018 10.83 7.71018 11C7.76018 11.12 7.83018 11.28 7.92018 11.46C7.96018 11.5 7.97018 11.56 7.97018 11.61C7.97018 11.68 7.93018 11.74 7.84018 11.81L7.42018 12.09C7.36018 12.13 7.30018 12.15 7.25018 12.15C7.18018 12.15 7.12018 12.11 7.05018 12.05C6.96018 11.95 6.88018 11.85 6.81018 11.74C6.75018 11.63 6.68018 11.5 6.61018 11.35C6.09018 11.96 5.44018 12.27 4.65018 12.27C4.09018 12.27 3.65018 12.11 3.32018 11.79C3.00018 11.47 2.83018 11.04 2.83018 10.5C2.83018 9.95004 3.03018 9.50004 3.43018 9.14004C3.84018 8.80004 4.38018 8.62004 5.06018 8.62004C5.29018 8.62004 5.50018 8.64004 5.77018 8.68004C6.00018 8.71004 6.27018 8.76004 6.53018 8.82004V8.34004C6.53018 7.83004 6.43018 7.50004 6.22018 7.27004C6.00018 7.06004 5.65018 6.97004 5.14018 6.97004C4.90018 6.97004 4.66018 7.00004 4.42018 7.05004C4.17018 7.11004 3.93018 7.18004 3.70018 7.28004C3.59018 7.32004 3.50018 7.35004 3.47018 7.36004C3.42018 7.38004 3.39018 7.38004 3.36018 7.38004C3.27018 7.38004 3.22018 7.32004 3.22018 7.18004V6.85004C3.22018 6.75004 3.23018 6.67004 3.27018 6.62004C3.30018 6.57004 3.36018 6.53004 3.45018 6.50004C3.69018 6.36004 3.96018 6.26004 4.29018 6.18004C4.62965 6.09128 4.97931 6.04757 5.33018 6.05004C6.12018 6.05004 6.70018 6.23004 7.07018 6.59004C7.44018 6.95004 7.62018 7.50004 7.62018 8.23004V10.38H7.64018ZM4.94018 11.4C5.16018 11.4 5.38018 11.36 5.62018 11.28C5.86018 11.2 6.07018 11.05 6.25018 10.85C6.36018 10.72 6.44018 10.58 6.50018 10.42C6.50018 10.26 6.55018 10.07 6.55018 9.84004V9.57004C6.35018 9.50004 6.15018 9.50004 5.93018 9.45004C5.72421 9.42754 5.51734 9.41419 5.31018 9.41004C4.86018 9.41004 4.54018 9.50004 4.32018 9.68004C4.10018 9.86004 4.00018 10.11 4.00018 10.44C4.00018 10.76 4.07018 11 4.24018 11.15C4.40018 11.32 4.63018 11.4 4.94018 11.4ZM10.2802 12.11C10.1834 12.1129 10.0873 12.0923 10.0002 12.05C9.97018 12 9.92018 11.91 9.88018 11.79L8.32018 6.65004C8.28018 6.50004 8.26018 6.43004 8.26018 6.38004C8.26018 6.27004 8.31018 6.21004 8.42018 6.21004H9.07018C9.20018 6.21004 9.29018 6.23004 9.33018 6.28004C9.39018 6.32004 9.43018 6.41004 9.47018 6.54004L10.5802 10.94L11.6202 6.54004C11.6502 6.41004 11.6902 6.32004 11.7502 6.28004C11.8002 6.24004 11.8902 6.21004 12.0002 6.21004H12.5502C12.6702 6.21004 12.7602 6.23004 12.8102 6.28004C12.8602 6.32004 12.9102 6.41004 12.9402 6.54004L14.0002 11L15.1402 6.54004C15.1802 6.41004 15.2302 6.32004 15.2702 6.28004C15.3302 6.24004 15.4102 6.21004 15.5302 6.21004H16.1502C16.2602 6.21004 16.3202 6.27004 16.3202 6.38004C16.3202 6.41004 16.3102 6.45004 16.3002 6.50004C16.3002 6.50004 16.2802 6.58004 16.2602 6.65004L14.6502 11.79C14.6102 11.93 14.5702 12 14.5002 12.05C14.4602 12.09 14.3702 12.12 14.2602 12.12H13.6902C13.5602 12.12 13.5002 12.1 13.4202 12.05C13.3529 11.9788 13.3108 11.8875 13.3002 11.79L12.2702 7.50004L11.2402 11.78C11.2102 11.91 11.1702 12 11.1202 12.05C11.0376 12.095 10.944 12.1158 10.8502 12.11H10.2802ZM18.8302 12.29C18.5002 12.29 18.1302 12.25 17.8002 12.17C17.4702 12.09 17.2102 12 17.0402 11.91C16.9533 11.8683 16.8804 11.8023 16.8302 11.72C16.803 11.664 16.7893 11.6023 16.7902 11.54V11.2C16.7902 11.06 16.8402 11 16.9402 11H17.0602C17.1002 11 17.1602 11.05 17.2302 11.08C17.4502 11.18 17.7002 11.26 17.9602 11.31C18.2302 11.36 18.5002 11.39 18.7502 11.39C19.1702 11.39 19.5002 11.32 19.7202 11.17C19.9502 11 20.0702 10.81 20.0702 10.54C20.0702 10.35 20.0002 10.2 19.8902 10.07C19.7702 9.95004 19.5402 9.83004 19.2202 9.73004L18.2502 9.43004C17.7702 9.27004 17.4102 9.05004 17.1902 8.75004C16.9755 8.47234 16.8594 8.13105 16.8602 7.78004C16.8602 7.50004 16.9202 7.26004 17.0402 7.05004C17.1602 6.83004 17.3202 6.65004 17.5002 6.50004C17.7202 6.35004 17.9402 6.24004 18.2102 6.16004C18.4702 6.08004 18.7502 6.04004 19.0502 6.04004C19.1902 6.04004 19.3402 6.05004 19.5002 6.07004C19.6402 6.09004 19.7802 6.12004 19.9202 6.14004C20.0602 6.18004 20.1802 6.21004 20.3002 6.25004C20.4202 6.29004 20.5002 6.33004 20.5802 6.37004C20.6702 6.42004 20.7402 6.47004 20.7802 6.53004C20.8202 6.59004 20.8402 6.66004 20.8402 6.75004V7.07004C20.8402 7.21004 20.7902 7.28004 20.6902 7.28004C20.6402 7.28004 20.5502 7.25004 20.4302 7.20004C20.0602 7.03004 19.6302 6.94004 19.1602 6.94004C18.7802 6.94004 18.5002 7.00004 18.2702 7.13004C18.0702 7.25004 17.9602 7.45004 17.9602 7.72004C17.9602 7.91004 18.0302 8.07004 18.1602 8.19004C18.2902 8.32004 18.5402 8.44004 18.8902 8.56004L19.8402 8.86004C20.3202 9.00004 20.6602 9.22004 20.8702 9.50004C21.0702 9.77004 21.1702 10.08 21.1702 10.43C21.1702 10.71 21.1102 10.97 21.0002 11.2C20.8802 11.42 20.7202 11.62 20.5002 11.78C20.3102 11.95 20.0602 12.07 19.7802 12.16C19.5002 12.25 19.1602 12.29 18.8302 12.29ZM20.0802 15.53C17.8902 17.14 14.7102 18 12.0002 18C8.15018 18 4.70018 16.58 2.09018 14.23C1.88018 14.04 2.07018 13.79 2.32018 13.94C5.14018 15.57 8.61018 16.56 12.2102 16.56C14.6402 16.56 17.3102 16.06 19.7602 15C20.1302 14.85 20.4402 15.26 20.0802 15.53ZM21.0002 14.5C20.7102 14.13 19.1402 14.32 18.4302 14.4C18.2202 14.43 18.1902 14.24 18.3802 14.1C19.6302 13.23 21.6902 13.5 21.9202 13.77C22.1602 14.07 21.8602 16.13 20.6902 17.11C20.5002 17.26 20.3302 17.18 20.4102 17C20.6802 16.32 21.2702 14.84 21.0002 14.5Z" fill="black"/>
</svg>
