<svg width="24" height="24" viewBox="0 0 24 24" fill="none" xmlns="http://www.w3.org/2000/svg">
<path d="M11.9996 1.6001V15.2001M11.9996 15.2001V18.4001C11.9996 19.033 11.8119 19.6517 11.4603 20.1779C11.1087 20.7042 10.6089 21.1143 10.0242 21.3565C9.43947 21.5987 8.79606 21.6621 8.17532 21.5386C7.55458 21.4151 6.9844 21.1104 6.53687 20.6628C6.08934 20.2153 5.78457 19.6451 5.6611 19.0244C5.53763 18.4036 5.601 17.7602 5.8432 17.1755C6.0854 16.5908 6.49555 16.091 7.02179 15.7394C7.54802 15.3878 8.16671 15.2001 8.79961 15.2001M11.9996 15.2001H8.79961M8.79961 15.2001C7.95092 15.2001 7.13699 14.863 6.53687 14.2628C5.93675 13.6627 5.59961 12.8488 5.59961 12.0001C5.59961 11.1514 5.93675 10.3375 6.53687 9.73736C7.13699 9.13724 7.95092 8.8001 8.79961 8.8001M8.79961 8.8001H11.9996M8.79961 8.8001H15.1996M8.79961 8.8001C7.95092 8.8001 7.13699 8.46296 6.53687 7.86284C5.93675 7.26272 5.59961 6.44879 5.59961 5.6001C5.59961 4.7514 5.93675 3.93747 6.53687 3.33736C7.13699 2.73724 7.95092 2.4001 8.79961 2.4001H15.1996C16.0483 2.4001 16.8622 2.73724 17.4624 3.33736C18.0625 3.93747 18.3996 4.7514 18.3996 5.6001C18.3996 6.44879 18.0625 7.26272 17.4624 7.86284C16.8622 8.46296 16.0483 8.8001 15.1996 8.8001M15.1996 8.8001C16.0483 8.8001 16.8622 9.13724 17.4624 9.73736C18.0625 10.3375 18.3996 11.1514 18.3996 12.0001C18.3996 12.8488 18.0625 13.6627 17.4624 14.2628C16.8622 14.863 16.0483 15.2001 15.1996 15.2001C14.3509 15.2001 13.537 14.863 12.9369 14.2628C12.3368 13.6627 11.9996 12.8488 11.9996 12.0001C11.9996 11.1514 12.3368 10.3375 12.9369 9.73736C13.537 9.13724 14.3509 8.8001 15.1996 8.8001Z" stroke="black"/>
</svg>
