<svg width="24" height="24" viewBox="0 0 24 24" fill="none" xmlns="http://www.w3.org/2000/svg">
<path d="M9.223 8.70698L6.911 13.041L8.001 6.32598L9.223 8.70698ZM10.368 6.55898L7.695 1.35298C7.64686 1.25945 7.57045 1.18348 7.47664 1.13589C7.38283 1.0883 7.2764 1.0715 7.1725 1.0879C7.06859 1.10429 6.97251 1.15304 6.89791 1.2272C6.82331 1.30137 6.774 1.39717 6.757 1.50098L4 18.5L5.748 19.593L10.94 22.837C11.2579 23.0356 11.6252 23.141 12 23.141C12.3748 23.141 12.7421 23.0356 13.06 22.837L20 18.5L18.142 5.96098C18.1285 5.87021 18.0903 5.7849 18.0315 5.71441C17.9728 5.64391 17.8958 5.59094 17.8089 5.5613C17.7221 5.53166 17.6287 5.5265 17.5392 5.54637C17.4496 5.56625 17.3672 5.61039 17.301 5.67398L14.566 8.31098L12.441 4.32698C12.3983 4.2471 12.3348 4.18032 12.2571 4.13376C12.1794 4.0872 12.0906 4.0626 12 4.0626C11.9094 4.0626 11.8206 4.0872 11.7429 4.13376C11.6652 4.18032 11.6017 4.2471 11.559 4.32698L10.368 6.55898ZM13.069 9.75498L8.667 14L12 7.74998L13.069 9.75498ZM7.232 18.162L16.592 9.13698L17.83 17.497L12 21.143L7.232 18.162Z" fill="black"/>
</svg>
