<svg width="160" height="160" viewBox="0 0 160 160" fill="none" xmlns="http://www.w3.org/2000/svg">
<path d="M0 0V160H160V0H0ZM39.2383 31.4551C45.5756 31.5264 51.8183 35.8984 52.0899 43.4668C52.2253 50.1968 46.3604 55.3229 39.0723 55.4785H38.8965C32.6223 55.4061 26.4949 50.9244 26.2109 43.4668C26.3004 36.8117 31.8945 31.6129 39.2383 31.4551ZM107.227 63.252C114.194 63.2952 120.769 65.3621 126.172 70.8693C131.786 77.1307 133.588 85.764 133.789 94.5411V134.463H110.781V97.2559C110.73 90.2823 108.341 81.8056 99.1113 81.5235C93.7019 81.5811 89.8873 84.7244 87.2753 89.9805C86.5623 91.6723 86.4596 93.6169 86.4257 95.5567V134.463H63.4277C63.5157 115.013 63.6367 95.5639 63.5937 76.1133C63.5937 70.5883 63.5405 66.868 63.4277 64.9512H86.4257V74.7559C88.3779 71.9795 90.5429 69.3464 93.4471 67.2265C97.3864 64.4152 102.119 63.3375 107.227 63.252ZM27.5684 64.9512H50.5664V134.463H27.5684V64.9512Z" fill="white"/>
</svg>
