<svg width="24" height="24" viewBox="0 0 24 24" fill="none" xmlns="http://www.w3.org/2000/svg">
<path d="M14.8998 5.09998C14.8998 5.09998 14.6998 5.15998 14.3598 5.26998C14.2998 5.08998 14.2198 4.85998 14.0998 4.63998C13.7198 3.90998 13.1598 3.52998 12.4798 3.51998C12.4298 3.51998 12.3898 3.51998 12.3398 3.52998C12.3198 3.50998 12.2998 3.47998 12.2798 3.45998C11.9898 3.13998 11.6098 2.98998 11.1598 2.99998C10.2898 3.02998 9.4198 3.65998 8.7098 4.77998C8.2098 5.56998 7.8398 6.55998 7.7298 7.31998C6.7298 7.62998 6.0298 7.84998 6.0098 7.84998C5.4998 8.00998 5.4898 8.02998 5.4198 8.49998C5.3698 8.85998 4.0498 19.1 4.0498 19.1L15.0298 21V5.07998C14.9798 5.07998 14.9298 5.08998 14.8998 5.09998ZM12.3598 5.88998C11.7798 6.06998 11.1398 6.26998 10.5098 6.45998C10.6898 5.76998 11.0298 5.08998 11.4498 4.63998C11.6098 4.46998 11.8198 4.28998 12.0798 4.17998C12.3198 4.68998 12.3698 5.39998 12.3598 5.88998ZM11.1698 3.57998C11.3698 3.57998 11.5498 3.61998 11.6998 3.71998C11.4598 3.83998 11.2398 4.01998 11.0198 4.24998C10.4698 4.83998 10.0398 5.76998 9.8698 6.65998C9.3398 6.81998 8.8298 6.97998 8.3498 7.12998C8.6498 5.71998 9.8298 3.61998 11.1698 3.57998ZM9.4698 11.57C9.5298 12.5 11.9898 12.71 12.1298 14.9C12.2398 16.62 11.2198 17.8 9.7398 17.89C7.9798 18 6.9998 16.96 6.9998 16.96L7.3698 15.37C7.3698 15.37 8.3498 16.11 9.1298 16.06C9.6398 16.03 9.8198 15.61 9.8098 15.32C9.7298 14.1 7.7298 14.17 7.6098 12.17C7.4998 10.48 8.6098 8.77998 11.0498 8.61998C11.9998 8.55998 12.4798 8.79998 12.4798 8.79998L11.9198 10.89C11.9198 10.89 11.2998 10.61 10.5598 10.65C9.4798 10.72 9.4598 11.4 9.4698 11.57ZM12.9398 5.70998C12.9298 5.26998 12.8798 4.64998 12.6698 4.11998C13.3298 4.24998 13.6598 4.98998 13.7998 5.43998C13.5498 5.51998 13.2598 5.60998 12.9398 5.70998ZM15.3898 20.96L19.9498 19.83C19.9498 19.83 17.9898 6.56998 17.9798 6.47998C17.9698 6.38998 17.8898 6.33998 17.8198 6.32998C17.7498 6.31998 16.4698 6.29998 16.4698 6.29998C16.4698 6.29998 15.6898 5.53998 15.3898 5.24998V20.96Z" fill="black"/>
</svg>
